%TF.GenerationSoftware,KiCad,Pcbnew,9.0.7*%
%TF.CreationDate,2026-02-04T22:23:49+02:00*%
%TF.ProjectId,isd-board-dual-socket,6973642d-626f-4617-9264-2d6475616c2d,rev?*%
%TF.SameCoordinates,Original*%
%TF.FileFunction,Paste,Top*%
%TF.FilePolarity,Positive*%
%FSLAX46Y46*%
G04 Gerber Fmt 4.6, Leading zero omitted, Abs format (unit mm)*
G04 Created by KiCad (PCBNEW 9.0.7) date 2026-02-04 22:23:49*
%MOMM*%
%LPD*%
G01*
G04 APERTURE LIST*
G04 Aperture macros list*
%AMRoundRect*
0 Rectangle with rounded corners*
0 $1 Rounding radius*
0 $2 $3 $4 $5 $6 $7 $8 $9 X,Y pos of 4 corners*
0 Add a 4 corners polygon primitive as box body*
4,1,4,$2,$3,$4,$5,$6,$7,$8,$9,$2,$3,0*
0 Add four circle primitives for the rounded corners*
1,1,$1+$1,$2,$3*
1,1,$1+$1,$4,$5*
1,1,$1+$1,$6,$7*
1,1,$1+$1,$8,$9*
0 Add four rect primitives between the rounded corners*
20,1,$1+$1,$2,$3,$4,$5,0*
20,1,$1+$1,$4,$5,$6,$7,0*
20,1,$1+$1,$6,$7,$8,$9,0*
20,1,$1+$1,$8,$9,$2,$3,0*%
G04 Aperture macros list end*
%ADD10RoundRect,0.250001X-0.462499X-1.074999X0.462499X-1.074999X0.462499X1.074999X-0.462499X1.074999X0*%
%ADD11RoundRect,0.162500X-0.162500X0.617500X-0.162500X-0.617500X0.162500X-0.617500X0.162500X0.617500X0*%
%ADD12RoundRect,0.250000X0.337500X0.475000X-0.337500X0.475000X-0.337500X-0.475000X0.337500X-0.475000X0*%
%ADD13RoundRect,0.250000X-0.475000X0.337500X-0.475000X-0.337500X0.475000X-0.337500X0.475000X0.337500X0*%
%ADD14RoundRect,0.250000X-0.337500X-0.475000X0.337500X-0.475000X0.337500X0.475000X-0.337500X0.475000X0*%
%ADD15RoundRect,0.250000X-0.450000X0.350000X-0.450000X-0.350000X0.450000X-0.350000X0.450000X0.350000X0*%
%ADD16R,3.600000X1.500000*%
%ADD17RoundRect,0.162500X0.162500X-0.617500X0.162500X0.617500X-0.162500X0.617500X-0.162500X-0.617500X0*%
%ADD18RoundRect,0.150000X-0.200000X0.150000X-0.200000X-0.150000X0.200000X-0.150000X0.200000X0.150000X0*%
%ADD19RoundRect,0.250000X0.450000X-0.350000X0.450000X0.350000X-0.450000X0.350000X-0.450000X-0.350000X0*%
%ADD20RoundRect,0.250001X-1.074999X0.462499X-1.074999X-0.462499X1.074999X-0.462499X1.074999X0.462499X0*%
%ADD21RoundRect,0.125000X0.125000X0.375000X-0.125000X0.375000X-0.125000X-0.375000X0.125000X-0.375000X0*%
%ADD22RoundRect,0.162500X-0.617500X-0.162500X0.617500X-0.162500X0.617500X0.162500X-0.617500X0.162500X0*%
%ADD23RoundRect,0.175000X-0.425000X0.175000X-0.425000X-0.175000X0.425000X-0.175000X0.425000X0.175000X0*%
%ADD24RoundRect,0.190000X0.410000X-0.190000X0.410000X0.190000X-0.410000X0.190000X-0.410000X-0.190000X0*%
%ADD25RoundRect,0.200000X0.400000X-0.200000X0.400000X0.200000X-0.400000X0.200000X-0.400000X-0.200000X0*%
%ADD26RoundRect,0.175000X0.425000X-0.175000X0.425000X0.175000X-0.425000X0.175000X-0.425000X-0.175000X0*%
%ADD27RoundRect,0.190000X-0.410000X0.190000X-0.410000X-0.190000X0.410000X-0.190000X0.410000X0.190000X0*%
%ADD28RoundRect,0.200000X-0.400000X0.200000X-0.400000X-0.200000X0.400000X-0.200000X0.400000X0.200000X0*%
%ADD29O,1.700000X1.100000*%
%ADD30RoundRect,0.250000X0.325000X0.450000X-0.325000X0.450000X-0.325000X-0.450000X0.325000X-0.450000X0*%
%ADD31RoundRect,0.150000X-0.150000X-0.200000X0.150000X-0.200000X0.150000X0.200000X-0.150000X0.200000X0*%
%ADD32RoundRect,0.250000X0.475000X-0.337500X0.475000X0.337500X-0.475000X0.337500X-0.475000X-0.337500X0*%
%ADD33RoundRect,0.250000X0.350000X0.450000X-0.350000X0.450000X-0.350000X-0.450000X0.350000X-0.450000X0*%
%ADD34R,0.250000X0.720000*%
%ADD35R,0.250000X0.520000*%
%ADD36R,0.300000X0.850000*%
%ADD37RoundRect,0.150000X-0.150000X0.512500X-0.150000X-0.512500X0.150000X-0.512500X0.150000X0.512500X0*%
%ADD38RoundRect,0.200000X0.200000X-0.750000X0.200000X0.750000X-0.200000X0.750000X-0.200000X-0.750000X0*%
G04 APERTURE END LIST*
D10*
%TO.C,F4*%
X102689000Y-53594000D03*
X105664000Y-53594000D03*
%TD*%
D11*
%TO.C,U4*%
X119650000Y-59150000D03*
X118700000Y-59150000D03*
X117750000Y-59150000D03*
X117750000Y-61850000D03*
X119650000Y-61850000D03*
%TD*%
D12*
%TO.C,C9*%
X122936000Y-51511200D03*
X120861000Y-51511200D03*
%TD*%
D13*
%TO.C,C6*%
X105562400Y-69959400D03*
X105562400Y-72034400D03*
%TD*%
D14*
%TO.C,C3*%
X129962500Y-75438000D03*
X132037500Y-75438000D03*
%TD*%
D15*
%TO.C,R14*%
X100236568Y-82060000D03*
X100236568Y-84060000D03*
%TD*%
D16*
%TO.C,L2*%
X117729000Y-47244000D03*
X117729000Y-44194000D03*
%TD*%
D14*
%TO.C,C5*%
X135382000Y-47879000D03*
X137457000Y-47879000D03*
%TD*%
D17*
%TO.C,U1*%
X113143750Y-60600000D03*
X114093750Y-60600000D03*
X115043750Y-60600000D03*
X115043750Y-57900000D03*
X114093750Y-57900000D03*
X113143750Y-57900000D03*
%TD*%
D18*
%TO.C,D2*%
X123494800Y-83718400D03*
X123494800Y-82318400D03*
%TD*%
D19*
%TO.C,R3*%
X135530500Y-45878250D03*
X135530500Y-43878250D03*
%TD*%
D20*
%TO.C,F3*%
X109727999Y-79284501D03*
X109728001Y-82259499D03*
%TD*%
D17*
%TO.C,U5*%
X121400000Y-49043544D03*
X122350000Y-49043544D03*
X123300000Y-49043544D03*
X123300000Y-46343544D03*
X121400000Y-46343544D03*
%TD*%
D21*
%TO.C,U6*%
X132181600Y-84286500D03*
X131381600Y-84286500D03*
X130581600Y-84286500D03*
X129781600Y-84286500D03*
X129781600Y-81486500D03*
X130581600Y-81486500D03*
X131381600Y-81486500D03*
X132181600Y-81486500D03*
%TD*%
D13*
%TO.C,C14*%
X107237500Y-44700000D03*
X107237500Y-46775000D03*
%TD*%
D22*
%TO.C,U3*%
X137863500Y-44055250D03*
X137863500Y-45005250D03*
X137863500Y-45955250D03*
X140563500Y-45955250D03*
X140563500Y-45005250D03*
X140563500Y-44055250D03*
%TD*%
D15*
%TO.C,R6*%
X114200000Y-51500000D03*
X114200000Y-53500000D03*
%TD*%
D23*
%TO.C,J8*%
X97511568Y-79080000D03*
D24*
X97511568Y-81100000D03*
D25*
X97511568Y-82330000D03*
D26*
X97511568Y-80080000D03*
D27*
X97511568Y-78060000D03*
D28*
X97511568Y-76830000D03*
D29*
X97431568Y-75260000D03*
X93631568Y-75260000D03*
X97431568Y-83900000D03*
X93631568Y-83900000D03*
%TD*%
D30*
%TO.C,F2*%
X131927600Y-89941400D03*
X129877600Y-89941400D03*
%TD*%
D15*
%TO.C,R16*%
X111137500Y-44700000D03*
X111137500Y-46700000D03*
%TD*%
D13*
%TO.C,C10*%
X125984000Y-45571500D03*
X125984000Y-47646500D03*
%TD*%
D15*
%TO.C,R8*%
X102336568Y-82060000D03*
X102336568Y-84060000D03*
%TD*%
D12*
%TO.C,C2*%
X111837500Y-49900000D03*
X109762500Y-49900000D03*
%TD*%
D31*
%TO.C,D3*%
X109666000Y-77216000D03*
X108266000Y-77216000D03*
%TD*%
D32*
%TO.C,C11*%
X135128000Y-82673100D03*
X135128000Y-80598100D03*
%TD*%
D15*
%TO.C,R5*%
X138049000Y-81439000D03*
X138049000Y-83439000D03*
%TD*%
%TO.C,R4*%
X119700000Y-64200000D03*
X119700000Y-66200000D03*
%TD*%
D33*
%TO.C,R2*%
X113493750Y-62950000D03*
X111493750Y-62950000D03*
%TD*%
D12*
%TO.C,C1*%
X111937500Y-55000000D03*
X109862500Y-55000000D03*
%TD*%
D19*
%TO.C,R15*%
X103137500Y-46700000D03*
X103137500Y-44700000D03*
%TD*%
D34*
%TO.C,J12*%
X129130831Y-71711940D03*
D35*
X129425837Y-69281940D03*
D34*
X129730831Y-71711940D03*
D35*
X130025837Y-69281940D03*
D34*
X130330831Y-71711940D03*
D35*
X130625837Y-69281940D03*
D34*
X130930831Y-71711940D03*
D35*
X131225837Y-69281940D03*
D34*
X131530831Y-71711940D03*
D35*
X131825837Y-69281940D03*
D34*
X132130831Y-71711940D03*
D35*
X132425837Y-69281940D03*
D34*
X132730831Y-71711940D03*
D36*
X128420910Y-71645900D03*
X133440900Y-71645900D03*
%TD*%
D37*
%TO.C,Q1*%
X110043750Y-57912500D03*
X109093750Y-57912500D03*
X108143750Y-57912500D03*
X108143750Y-60187500D03*
X109093750Y-60187500D03*
X110043750Y-60187500D03*
%TD*%
D15*
%TO.C,R7*%
X140335000Y-81439000D03*
X140335000Y-83439000D03*
%TD*%
D12*
%TO.C,C8*%
X117637500Y-64000000D03*
X115562500Y-64000000D03*
%TD*%
D14*
%TO.C,C7*%
X117580500Y-56261000D03*
X119655500Y-56261000D03*
%TD*%
D33*
%TO.C,R1*%
X111837500Y-52500000D03*
X109837500Y-52500000D03*
%TD*%
D38*
%TO.C,Q4*%
X116350000Y-53200000D03*
X118250000Y-53200000D03*
X117300000Y-50200000D03*
%TD*%
M02*
