%TF.GenerationSoftware,KiCad,Pcbnew,9.0.7*%
%TF.CreationDate,2026-02-04T22:23:49+02:00*%
%TF.ProjectId,isd-board-dual-socket,6973642d-626f-4617-9264-2d6475616c2d,rev?*%
%TF.SameCoordinates,Original*%
%TF.FileFunction,Legend,Bot*%
%TF.FilePolarity,Positive*%
%FSLAX46Y46*%
G04 Gerber Fmt 4.6, Leading zero omitted, Abs format (unit mm)*
G04 Created by KiCad (PCBNEW 9.0.7) date 2026-02-04 22:23:49*
%MOMM*%
%LPD*%
G01*
G04 APERTURE LIST*
G04 Aperture macros list*
%AMRoundRect*
0 Rectangle with rounded corners*
0 $1 Rounding radius*
0 $2 $3 $4 $5 $6 $7 $8 $9 X,Y pos of 4 corners*
0 Add a 4 corners polygon primitive as box body*
4,1,4,$2,$3,$4,$5,$6,$7,$8,$9,$2,$3,0*
0 Add four circle primitives for the rounded corners*
1,1,$1+$1,$2,$3*
1,1,$1+$1,$4,$5*
1,1,$1+$1,$6,$7*
1,1,$1+$1,$8,$9*
0 Add four rect primitives between the rounded corners*
20,1,$1+$1,$2,$3,$4,$5,0*
20,1,$1+$1,$4,$5,$6,$7,0*
20,1,$1+$1,$6,$7,$8,$9,0*
20,1,$1+$1,$8,$9,$2,$3,0*%
G04 Aperture macros list end*
%ADD10R,1.700000X1.700000*%
%ADD11C,1.700000*%
%ADD12RoundRect,0.249999X-0.850001X0.850001X-0.850001X-0.850001X0.850001X-0.850001X0.850001X0.850001X0*%
%ADD13C,2.200000*%
%ADD14RoundRect,0.250000X-0.615000X0.265000X-0.615000X-0.265000X0.615000X-0.265000X0.615000X0.265000X0*%
%ADD15O,1.730000X1.030000*%
%ADD16C,0.800000*%
%ADD17C,5.000000*%
%ADD18RoundRect,0.250000X-0.625000X0.350000X-0.625000X-0.350000X0.625000X-0.350000X0.625000X0.350000X0*%
%ADD19O,1.750000X1.200000*%
%ADD20RoundRect,0.249999X0.850001X0.850001X-0.850001X0.850001X-0.850001X-0.850001X0.850001X-0.850001X0*%
%ADD21R,1.500000X2.300000*%
%ADD22O,1.500000X2.300000*%
%ADD23C,1.600000*%
%ADD24O,1.700000X1.100000*%
%ADD25R,1.524000X1.524000*%
%ADD26C,1.524000*%
G04 APERTURE END LIST*
%LPC*%
D10*
%TO.C,J4*%
X157480000Y-78740000D03*
D11*
X157480000Y-81280000D03*
X160020000Y-78740000D03*
X160020000Y-81280000D03*
X162560000Y-78740000D03*
X162560000Y-81280000D03*
X165100000Y-78740000D03*
X165100000Y-81280000D03*
X167640000Y-78740000D03*
X167640000Y-81280000D03*
X170180000Y-78740000D03*
X170180000Y-81280000D03*
X172720000Y-78740000D03*
X172720000Y-81280000D03*
X175260000Y-78740000D03*
X175260000Y-81280000D03*
%TD*%
D12*
%TO.C,D1*%
X123190000Y-57150000D03*
D13*
X123190000Y-67310000D03*
%TD*%
D14*
%TO.C,J6*%
X144900000Y-52000000D03*
D15*
X144900000Y-53500000D03*
X144900000Y-55000000D03*
X144900000Y-56500000D03*
X144900000Y-58000000D03*
%TD*%
D16*
%TO.C,H2*%
X174125000Y-88000000D03*
X174674175Y-86674175D03*
X174674175Y-89325825D03*
X176000000Y-86125000D03*
D17*
X176000000Y-88000000D03*
D16*
X176000000Y-89875000D03*
X177325825Y-86674175D03*
X177325825Y-89325825D03*
X177875000Y-88000000D03*
%TD*%
D18*
%TO.C,J1*%
X97750000Y-52700000D03*
D19*
X97750000Y-54700000D03*
%TD*%
D20*
%TO.C,D8*%
X116580000Y-67150000D03*
D13*
X106420000Y-67150000D03*
%TD*%
D10*
%TO.C,J15*%
X105800000Y-83600000D03*
D11*
X105800000Y-86140000D03*
%TD*%
D20*
%TO.C,D7*%
X118618000Y-70713600D03*
D13*
X108458000Y-70713600D03*
%TD*%
D21*
%TO.C,U2*%
X95652500Y-71307500D03*
D22*
X98192500Y-71307500D03*
X100732500Y-71307500D03*
%TD*%
D10*
%TO.C,J10*%
X175260484Y-51937170D03*
D11*
X172720484Y-51937170D03*
X170180484Y-51937170D03*
X167640484Y-51937170D03*
X165100484Y-51937170D03*
X162560484Y-51937170D03*
X160020484Y-51937170D03*
X157480484Y-51937170D03*
%TD*%
D23*
%TO.C,C4*%
X102350000Y-60600000D03*
X104850000Y-60600000D03*
%TD*%
D16*
%TO.C,H1*%
X174125000Y-46000000D03*
X174674175Y-44674175D03*
X174674175Y-47325825D03*
X176000000Y-44125000D03*
D17*
X176000000Y-46000000D03*
D16*
X176000000Y-47875000D03*
X177325825Y-44674175D03*
X177325825Y-47325825D03*
X177875000Y-46000000D03*
%TD*%
%TO.C,H4*%
X93125000Y-46000000D03*
X93674175Y-44674175D03*
X93674175Y-47325825D03*
X95000000Y-44125000D03*
D17*
X95000000Y-46000000D03*
D16*
X95000000Y-47875000D03*
X96325825Y-44674175D03*
X96325825Y-47325825D03*
X96875000Y-46000000D03*
%TD*%
D24*
%TO.C,J8*%
X97431568Y-75260000D03*
X93631568Y-75260000D03*
X97431568Y-83900000D03*
X93631568Y-83900000D03*
%TD*%
D20*
%TO.C,D4*%
X120904000Y-74168000D03*
D13*
X110744000Y-74168000D03*
%TD*%
D18*
%TO.C,J3*%
X97750000Y-59600000D03*
D19*
X97750000Y-61600000D03*
%TD*%
D25*
%TO.C,J9*%
X161608000Y-87884000D03*
D26*
X163608000Y-87884000D03*
X165608000Y-87884000D03*
X167608000Y-87884000D03*
%TD*%
D10*
%TO.C,J13*%
X156718000Y-44856400D03*
D11*
X159258000Y-44856400D03*
X161798000Y-44856400D03*
X164338000Y-44856400D03*
X166878000Y-44856400D03*
%TD*%
D10*
%TO.C,J16*%
X147569000Y-44856400D03*
D11*
X150109000Y-44856400D03*
%TD*%
D10*
%TO.C,J14*%
X120590000Y-83725000D03*
D11*
X120590000Y-86265000D03*
%TD*%
D10*
%TO.C,J5*%
X157550000Y-58420000D03*
D11*
X157550000Y-60960000D03*
X160090000Y-58420000D03*
X160090000Y-60960000D03*
X162630000Y-58420000D03*
X162630000Y-60960000D03*
X165170000Y-58420000D03*
X165170000Y-60960000D03*
X167710000Y-58420000D03*
X167710000Y-60960000D03*
X170250000Y-58420000D03*
X170250000Y-60960000D03*
X172790000Y-58420000D03*
X172790000Y-60960000D03*
X175330000Y-58420000D03*
X175330000Y-60960000D03*
%TD*%
D25*
%TO.C,J2*%
X143600000Y-66600000D03*
D26*
X143600000Y-68600000D03*
X143600000Y-70600000D03*
X143600000Y-72600000D03*
%TD*%
D16*
%TO.C,H3*%
X93125000Y-88000000D03*
X93674175Y-86674175D03*
X93674175Y-89325825D03*
X95000000Y-86125000D03*
D17*
X95000000Y-88000000D03*
D16*
X95000000Y-89875000D03*
X96325825Y-86674175D03*
X96325825Y-89325825D03*
X96875000Y-88000000D03*
%TD*%
D10*
%TO.C,J7*%
X175260484Y-69717170D03*
D11*
X172720484Y-69717170D03*
X170180484Y-69717170D03*
X167640484Y-69717170D03*
X165100484Y-69717170D03*
X162560484Y-69717170D03*
X160020484Y-69717170D03*
X157480484Y-69717170D03*
%TD*%
%LPD*%
M02*
