%TF.GenerationSoftware,KiCad,Pcbnew,9.0.7*%
%TF.CreationDate,2026-02-04T22:23:48+02:00*%
%TF.ProjectId,isd-board-dual-socket,6973642d-626f-4617-9264-2d6475616c2d,rev?*%
%TF.SameCoordinates,Original*%
%TF.FileFunction,Copper,L2,Bot*%
%TF.FilePolarity,Positive*%
%FSLAX46Y46*%
G04 Gerber Fmt 4.6, Leading zero omitted, Abs format (unit mm)*
G04 Created by KiCad (PCBNEW 9.0.7) date 2026-02-04 22:23:48*
%MOMM*%
%LPD*%
G01*
G04 APERTURE LIST*
G04 Aperture macros list*
%AMRoundRect*
0 Rectangle with rounded corners*
0 $1 Rounding radius*
0 $2 $3 $4 $5 $6 $7 $8 $9 X,Y pos of 4 corners*
0 Add a 4 corners polygon primitive as box body*
4,1,4,$2,$3,$4,$5,$6,$7,$8,$9,$2,$3,0*
0 Add four circle primitives for the rounded corners*
1,1,$1+$1,$2,$3*
1,1,$1+$1,$4,$5*
1,1,$1+$1,$6,$7*
1,1,$1+$1,$8,$9*
0 Add four rect primitives between the rounded corners*
20,1,$1+$1,$2,$3,$4,$5,0*
20,1,$1+$1,$4,$5,$6,$7,0*
20,1,$1+$1,$6,$7,$8,$9,0*
20,1,$1+$1,$8,$9,$2,$3,0*%
G04 Aperture macros list end*
%TA.AperFunction,ComponentPad*%
%ADD10R,1.700000X1.700000*%
%TD*%
%TA.AperFunction,ComponentPad*%
%ADD11C,1.700000*%
%TD*%
%TA.AperFunction,ComponentPad*%
%ADD12RoundRect,0.249999X-0.850001X0.850001X-0.850001X-0.850001X0.850001X-0.850001X0.850001X0.850001X0*%
%TD*%
%TA.AperFunction,ComponentPad*%
%ADD13C,2.200000*%
%TD*%
%TA.AperFunction,ComponentPad*%
%ADD14RoundRect,0.250000X-0.615000X0.265000X-0.615000X-0.265000X0.615000X-0.265000X0.615000X0.265000X0*%
%TD*%
%TA.AperFunction,ComponentPad*%
%ADD15O,1.730000X1.030000*%
%TD*%
%TA.AperFunction,ComponentPad*%
%ADD16C,0.800000*%
%TD*%
%TA.AperFunction,ComponentPad*%
%ADD17C,5.000000*%
%TD*%
%TA.AperFunction,ComponentPad*%
%ADD18RoundRect,0.250000X-0.625000X0.350000X-0.625000X-0.350000X0.625000X-0.350000X0.625000X0.350000X0*%
%TD*%
%TA.AperFunction,ComponentPad*%
%ADD19O,1.750000X1.200000*%
%TD*%
%TA.AperFunction,ComponentPad*%
%ADD20RoundRect,0.249999X0.850001X0.850001X-0.850001X0.850001X-0.850001X-0.850001X0.850001X-0.850001X0*%
%TD*%
%TA.AperFunction,ComponentPad*%
%ADD21R,1.500000X2.300000*%
%TD*%
%TA.AperFunction,ComponentPad*%
%ADD22O,1.500000X2.300000*%
%TD*%
%TA.AperFunction,ComponentPad*%
%ADD23C,1.600000*%
%TD*%
%TA.AperFunction,HeatsinkPad*%
%ADD24O,1.700000X1.100000*%
%TD*%
%TA.AperFunction,ComponentPad*%
%ADD25R,1.524000X1.524000*%
%TD*%
%TA.AperFunction,ComponentPad*%
%ADD26C,1.524000*%
%TD*%
%TA.AperFunction,ViaPad*%
%ADD27C,0.800000*%
%TD*%
%TA.AperFunction,Conductor*%
%ADD28C,0.300000*%
%TD*%
%TA.AperFunction,Conductor*%
%ADD29C,0.600000*%
%TD*%
%TA.AperFunction,Conductor*%
%ADD30C,0.200000*%
%TD*%
%TA.AperFunction,Conductor*%
%ADD31C,0.250000*%
%TD*%
G04 APERTURE END LIST*
D10*
%TO.P,J4,1,Pin_1*%
%TO.N,unconnected-(J4-Pin_1-Pad1)*%
X157480000Y-78740000D03*
D11*
%TO.P,J4,2,Pin_2*%
%TO.N,/ADC_BATT*%
X157480000Y-81280000D03*
%TO.P,J4,3,Pin_3*%
%TO.N,unconnected-(J4-Pin_3-Pad3)*%
X160020000Y-78740000D03*
%TO.P,J4,4,Pin_4*%
%TO.N,/RST*%
X160020000Y-81280000D03*
%TO.P,J4,5,Pin_5*%
%TO.N,/TMS*%
X162560000Y-78740000D03*
%TO.P,J4,6,Pin_6*%
%TO.N,/CS*%
X162560000Y-81280000D03*
%TO.P,J4,7,Pin_7*%
%TO.N,/TDI*%
X165100000Y-78740000D03*
%TO.P,J4,8,Pin_8*%
%TO.N,/SCK*%
X165100000Y-81280000D03*
%TO.P,J4,9,Pin_9*%
%TO.N,/TDO*%
X167640000Y-78740000D03*
%TO.P,J4,10,Pin_10*%
%TO.N,/MISO*%
X167640000Y-81280000D03*
%TO.P,J4,11,Pin_11*%
%TO.N,/TCK*%
X170180000Y-78740000D03*
%TO.P,J4,12,Pin_12*%
%TO.N,/MOSI*%
X170180000Y-81280000D03*
%TO.P,J4,13,Pin_13*%
%TO.N,GND*%
X172720000Y-78740000D03*
%TO.P,J4,14,Pin_14*%
%TO.N,unconnected-(J4-Pin_14-Pad14)*%
X172720000Y-81280000D03*
%TO.P,J4,15,Pin_15*%
%TO.N,+3V3*%
X175260000Y-78740000D03*
%TO.P,J4,16,Pin_16*%
%TO.N,GND*%
X175260000Y-81280000D03*
%TD*%
D12*
%TO.P,D1,1,K*%
%TO.N,VSYS*%
X123190000Y-57150000D03*
D13*
%TO.P,D1,2,A*%
%TO.N,VEXT*%
X123190000Y-67310000D03*
%TD*%
D14*
%TO.P,J6,1,Pin_1*%
%TO.N,+5V*%
X144900000Y-52000000D03*
D15*
%TO.P,J6,2,Pin_2*%
%TO.N,/BME690_SDA*%
X144900000Y-53500000D03*
%TO.P,J6,3,Pin_3*%
%TO.N,/BME690_SCL*%
X144900000Y-55000000D03*
%TO.P,J6,4,Pin_4*%
%TO.N,GND*%
X144900000Y-56500000D03*
%TO.P,J6,5,Pin_5*%
X144900000Y-58000000D03*
%TD*%
D16*
%TO.P,H2,1,1*%
%TO.N,GND*%
X174125000Y-88000000D03*
X174674175Y-86674175D03*
X174674175Y-89325825D03*
X176000000Y-86125000D03*
D17*
X176000000Y-88000000D03*
D16*
X176000000Y-89875000D03*
X177325825Y-86674175D03*
X177325825Y-89325825D03*
X177875000Y-88000000D03*
%TD*%
D18*
%TO.P,J1,1,Pin_1*%
%TO.N,Net-(J1-Pin_1)*%
X97750000Y-52700000D03*
D19*
%TO.P,J1,2,Pin_2*%
%TO.N,-BATT*%
X97750000Y-54700000D03*
%TD*%
D20*
%TO.P,D8,1,K*%
%TO.N,VEXT*%
X116580000Y-67150000D03*
D13*
%TO.P,D8,2,A*%
%TO.N,VSOL*%
X106420000Y-67150000D03*
%TD*%
D10*
%TO.P,J15,1,Pin_1*%
%TO.N,Net-(J15-Pin_1)*%
X105800000Y-83600000D03*
D11*
%TO.P,J15,2,Pin_2*%
%TO.N,GND*%
X105800000Y-86140000D03*
%TD*%
D20*
%TO.P,D7,1,K*%
%TO.N,VEXT*%
X118618000Y-70713600D03*
D13*
%TO.P,D7,2,A*%
%TO.N,VBUS*%
X108458000Y-70713600D03*
%TD*%
D21*
%TO.P,U2,1,IN*%
%TO.N,Net-(J3-Pin_1)*%
X95652500Y-71307500D03*
D22*
%TO.P,U2,2,GND*%
%TO.N,GND*%
X98192500Y-71307500D03*
%TO.P,U2,3,OUT*%
%TO.N,VSOL*%
X100732500Y-71307500D03*
%TD*%
D10*
%TO.P,J10,1,Pin_1*%
%TO.N,GND*%
X175260484Y-51937170D03*
D11*
%TO.P,J10,2,Pin_2*%
%TO.N,+3V3*%
X172720484Y-51937170D03*
%TO.P,J10,3,Pin_3*%
%TO.N,/ADC_BATT*%
X170180484Y-51937170D03*
%TO.P,J10,4,Pin_4*%
%TO.N,/BMV080_IRQ*%
X167640484Y-51937170D03*
%TO.P,J10,5,Pin_5*%
%TO.N,/SCK*%
X165100484Y-51937170D03*
%TO.P,J10,6,Pin_6*%
%TO.N,/MOSI*%
X162560484Y-51937170D03*
%TO.P,J10,7,Pin_7*%
%TO.N,/MISO*%
X160020484Y-51937170D03*
%TO.P,J10,8,Pin_8*%
%TO.N,/CS*%
X157480484Y-51937170D03*
%TD*%
D23*
%TO.P,C4,1*%
%TO.N,Net-(J3-Pin_1)*%
X102350000Y-60600000D03*
%TO.P,C4,2*%
%TO.N,GND*%
X104850000Y-60600000D03*
%TD*%
D16*
%TO.P,H1,1,1*%
%TO.N,GND*%
X174125000Y-46000000D03*
X174674175Y-44674175D03*
X174674175Y-47325825D03*
X176000000Y-44125000D03*
D17*
X176000000Y-46000000D03*
D16*
X176000000Y-47875000D03*
X177325825Y-44674175D03*
X177325825Y-47325825D03*
X177875000Y-46000000D03*
%TD*%
%TO.P,H4,1,1*%
%TO.N,GND*%
X93125000Y-46000000D03*
X93674175Y-44674175D03*
X93674175Y-47325825D03*
X95000000Y-44125000D03*
D17*
X95000000Y-46000000D03*
D16*
X95000000Y-47875000D03*
X96325825Y-44674175D03*
X96325825Y-47325825D03*
X96875000Y-46000000D03*
%TD*%
D24*
%TO.P,J8,S1,SHIELD*%
%TO.N,GND*%
X97431568Y-75260000D03*
X93631568Y-75260000D03*
X97431568Y-83900000D03*
X93631568Y-83900000D03*
%TD*%
D20*
%TO.P,D4,1,K*%
%TO.N,VEXT*%
X120904000Y-74168000D03*
D13*
%TO.P,D4,2,A*%
%TO.N,Net-(D3-K)*%
X110744000Y-74168000D03*
%TD*%
D18*
%TO.P,J3,1,Pin_1*%
%TO.N,Net-(J3-Pin_1)*%
X97750000Y-59600000D03*
D19*
%TO.P,J3,2,Pin_2*%
%TO.N,GND*%
X97750000Y-61600000D03*
%TD*%
D25*
%TO.P,J9,1,Pin_1*%
%TO.N,/RX*%
X161608000Y-87884000D03*
D26*
%TO.P,J9,2,Pin_2*%
%TO.N,/TX*%
X163608000Y-87884000D03*
%TO.P,J9,3,Pin_3*%
%TO.N,+3V3*%
X165608000Y-87884000D03*
%TO.P,J9,4,Pin_4*%
%TO.N,GND*%
X167608000Y-87884000D03*
%TD*%
D10*
%TO.P,J13,1,Pin_1*%
%TO.N,GND*%
X156718000Y-44856400D03*
D11*
%TO.P,J13,2,Pin_2*%
%TO.N,/CS*%
X159258000Y-44856400D03*
%TO.P,J13,3,Pin_3*%
%TO.N,/MISO*%
X161798000Y-44856400D03*
%TO.P,J13,4,Pin_4*%
%TO.N,/MOSI*%
X164338000Y-44856400D03*
%TO.P,J13,5,Pin_5*%
%TO.N,/SCK*%
X166878000Y-44856400D03*
%TD*%
D10*
%TO.P,J16,1,Pin_1*%
%TO.N,Net-(J16-Pin_1)*%
X147569000Y-44856400D03*
D11*
%TO.P,J16,2,Pin_2*%
%TO.N,GND*%
X150109000Y-44856400D03*
%TD*%
D10*
%TO.P,J14,1,Pin_1*%
%TO.N,Net-(D2-K)*%
X120590000Y-83725000D03*
D11*
%TO.P,J14,2,Pin_2*%
%TO.N,GND*%
X120590000Y-86265000D03*
%TD*%
D10*
%TO.P,J5,1,Pin_1*%
%TO.N,/BMV080_IRQ*%
X157550000Y-58420000D03*
D11*
%TO.P,J5,2,Pin_2*%
%TO.N,unconnected-(J5-Pin_2-Pad2)*%
X157550000Y-60960000D03*
%TO.P,J5,3,Pin_3*%
%TO.N,/INT*%
X160090000Y-58420000D03*
%TO.P,J5,4,Pin_4*%
%TO.N,unconnected-(J5-Pin_4-Pad4)*%
X160090000Y-60960000D03*
%TO.P,J5,5,Pin_5*%
%TO.N,/RX*%
X162630000Y-58420000D03*
%TO.P,J5,6,Pin_6*%
%TO.N,GND*%
X162630000Y-60960000D03*
%TO.P,J5,7,Pin_7*%
%TO.N,/TX*%
X165170000Y-58420000D03*
%TO.P,J5,8,Pin_8*%
%TO.N,unconnected-(J5-Pin_8-Pad8)*%
X165170000Y-60960000D03*
%TO.P,J5,9,Pin_9*%
%TO.N,/BME690_SCL*%
X167710000Y-58420000D03*
%TO.P,J5,10,Pin_10*%
%TO.N,+5V*%
X167710000Y-60960000D03*
%TO.P,J5,11,Pin_11*%
%TO.N,/BME690_SDA*%
X170250000Y-58420000D03*
%TO.P,J5,12,Pin_12*%
%TO.N,/RXD0*%
X170250000Y-60960000D03*
%TO.P,J5,13,Pin_13*%
%TO.N,+5V*%
X172790000Y-58420000D03*
%TO.P,J5,14,Pin_14*%
%TO.N,/TXD0*%
X172790000Y-60960000D03*
%TO.P,J5,15,Pin_15*%
%TO.N,GND*%
X175330000Y-58420000D03*
%TO.P,J5,16,Pin_16*%
%TO.N,unconnected-(J5-Pin_16-Pad16)*%
X175330000Y-60960000D03*
%TD*%
D25*
%TO.P,J2,1,Pin_1*%
%TO.N,/BME690_SCL*%
X143600000Y-66600000D03*
D26*
%TO.P,J2,2,Pin_2*%
%TO.N,/BME690_SDA*%
X143600000Y-68600000D03*
%TO.P,J2,3,Pin_3*%
%TO.N,+3V3*%
X143600000Y-70600000D03*
%TO.P,J2,4,Pin_4*%
%TO.N,GND*%
X143600000Y-72600000D03*
%TD*%
D16*
%TO.P,H3,1,1*%
%TO.N,GND*%
X93125000Y-88000000D03*
X93674175Y-86674175D03*
X93674175Y-89325825D03*
X95000000Y-86125000D03*
D17*
X95000000Y-88000000D03*
D16*
X95000000Y-89875000D03*
X96325825Y-86674175D03*
X96325825Y-89325825D03*
X96875000Y-88000000D03*
%TD*%
D10*
%TO.P,J7,1,Pin_1*%
%TO.N,unconnected-(J7-Pin_1-Pad1)*%
X175260484Y-69717170D03*
D11*
%TO.P,J7,2,Pin_2*%
%TO.N,GND*%
X172720484Y-69717170D03*
%TO.P,J7,3,Pin_3*%
%TO.N,+5V*%
X170180484Y-69717170D03*
%TO.P,J7,4,Pin_4*%
%TO.N,/RX*%
X167640484Y-69717170D03*
%TO.P,J7,5,Pin_5*%
%TO.N,/TX*%
X165100484Y-69717170D03*
%TO.P,J7,6,Pin_6*%
%TO.N,/BME690_SDA*%
X162560484Y-69717170D03*
%TO.P,J7,7,Pin_7*%
%TO.N,/BME690_SCL*%
X160020484Y-69717170D03*
%TO.P,J7,8,Pin_8*%
%TO.N,/LP_SDA*%
X157480484Y-69717170D03*
%TD*%
D27*
%TO.N,GND*%
X137160000Y-88900000D03*
X119888000Y-49174400D03*
X164693600Y-65989200D03*
X136741600Y-71475600D03*
X116840000Y-88900000D03*
X111893000Y-71083600D03*
X135128000Y-63195200D03*
X147726400Y-87782400D03*
X94615000Y-67945000D03*
X141224000Y-76657200D03*
X179832000Y-65989200D03*
X133096000Y-81026000D03*
X103505000Y-58420000D03*
X157530800Y-75336400D03*
X133604000Y-76047600D03*
X123200000Y-63800000D03*
X146202400Y-68427600D03*
X163068000Y-75285600D03*
X114200000Y-50200000D03*
X160528000Y-49364600D03*
X113665000Y-44450000D03*
X156413200Y-54152800D03*
X138811000Y-78435200D03*
X135686800Y-76047600D03*
X133600000Y-84074000D03*
X103124000Y-72517000D03*
X103378000Y-50038000D03*
X100330000Y-85725000D03*
X166674800Y-75285600D03*
X179374800Y-79146400D03*
X135229600Y-66802000D03*
X168452800Y-47396400D03*
X109220000Y-88900000D03*
X137312400Y-51409600D03*
X160477200Y-66040000D03*
X134518400Y-72847200D03*
X137363200Y-60502800D03*
X116840000Y-78994000D03*
X114046000Y-74168000D03*
X99695000Y-44450000D03*
X137312400Y-54203600D03*
X93345000Y-77470000D03*
X141325600Y-65328800D03*
X177393600Y-70154800D03*
X175260000Y-55118000D03*
X134264400Y-51409600D03*
X179832000Y-70205600D03*
X144322800Y-88900000D03*
X169468800Y-85953600D03*
X124460000Y-51409600D03*
X177495200Y-66040000D03*
X107188000Y-50038000D03*
X109728000Y-63246000D03*
X94615000Y-61595000D03*
X123520200Y-81102200D03*
X93345000Y-81915000D03*
X124460000Y-88900000D03*
X179070000Y-60198000D03*
X172161200Y-65989200D03*
X123190000Y-44450000D03*
X109855000Y-67310000D03*
X111125000Y-48260000D03*
X169722800Y-65989200D03*
X126746000Y-81686400D03*
X179070000Y-55626000D03*
X134264400Y-54203600D03*
X144678400Y-64617600D03*
X157581600Y-85852000D03*
X156362400Y-50139600D03*
X124460000Y-53975000D03*
X125374400Y-69240400D03*
X100965000Y-67945000D03*
X127508000Y-68427600D03*
X145186400Y-80314800D03*
X102235000Y-85725000D03*
X144373600Y-47345600D03*
X94615000Y-54610000D03*
X139344400Y-47853600D03*
X177292000Y-76555600D03*
X127254000Y-77216000D03*
X120650000Y-71755000D03*
X158191200Y-48209200D03*
X128981200Y-82854800D03*
%TO.N,+3V3*%
X178663600Y-63703200D03*
X147574000Y-89916000D03*
X143764000Y-81400000D03*
%TO.N,/ADC_BATT*%
X141374931Y-62685731D03*
X136601200Y-62636400D03*
X142814000Y-85897072D03*
X109237500Y-46775000D03*
%TO.N,/CS*%
X156972000Y-67411600D03*
X161645600Y-75285600D03*
X159664400Y-54175000D03*
X159183181Y-49311600D03*
X157429200Y-56509600D03*
%TO.N,/MOSI*%
X164200000Y-49364600D03*
%TO.N,/SCK*%
X158478884Y-56483771D03*
X155847999Y-72410136D03*
X166637654Y-49364600D03*
%TO.N,/MISO*%
X161800000Y-49364600D03*
%TO.N,/RX*%
X164325484Y-72390000D03*
X162979400Y-65865112D03*
%TO.N,+5V*%
X171958000Y-62484000D03*
X175657000Y-49657000D03*
%TO.N,Net-(Q1-G2)*%
X115093750Y-62150000D03*
X108093750Y-62150000D03*
%TO.N,/BME690_SCL*%
X166863392Y-65720592D03*
X141427200Y-85865000D03*
X141935200Y-84315000D03*
X135474644Y-85865000D03*
X134670800Y-68478400D03*
X166370000Y-59690000D03*
%TO.N,/BME690_SDA*%
X168910000Y-59690000D03*
X130860800Y-73456800D03*
X145954423Y-85127801D03*
X167944800Y-65735200D03*
X135508979Y-84815559D03*
%TO.N,/BMV080_IRQ*%
X137363200Y-61861400D03*
X167792400Y-55473600D03*
X141500000Y-60045600D03*
X134670800Y-69748400D03*
%TO.N,Net-(J16-Pin_1)*%
X145338800Y-44856400D03*
X135382000Y-49530000D03*
%TD*%
D28*
%TO.N,GND*%
X171520000Y-59709000D02*
X171501000Y-59690000D01*
X161340800Y-59670800D02*
X158800800Y-59670800D01*
X161290000Y-80010000D02*
X163068000Y-80010000D01*
X171501000Y-59690000D02*
X171501000Y-61478182D01*
X161290000Y-66852800D02*
X161290000Y-68834000D01*
X175330000Y-58420000D02*
X174041000Y-59709000D01*
X158800800Y-59670800D02*
X156737200Y-59670800D01*
X158800800Y-59670800D02*
X158800800Y-62382400D01*
X171450000Y-82346800D02*
X171450000Y-80010000D01*
X158769000Y-80111600D02*
X158769000Y-84664600D01*
D29*
X175260484Y-51918084D02*
X173024800Y-49682400D01*
D28*
X157530800Y-75336400D02*
X157530800Y-75488800D01*
D29*
X173990000Y-80010000D02*
X172720000Y-78740000D01*
D28*
X161290000Y-80010000D02*
X161290000Y-78028800D01*
X161290000Y-68834000D02*
X161290000Y-71018400D01*
D29*
X97431568Y-83900000D02*
X97476568Y-83900000D01*
D28*
X158800800Y-59670800D02*
X158800800Y-57708800D01*
X158800800Y-57708800D02*
X159816800Y-56692800D01*
X158769000Y-76727000D02*
X158769000Y-80111600D01*
X171450000Y-80010000D02*
X173990000Y-80010000D01*
X171450000Y-80010000D02*
X171450000Y-77266800D01*
X174284818Y-55118000D02*
X171501000Y-57901818D01*
X161290000Y-80010000D02*
X161290000Y-82753200D01*
X157530800Y-75488800D02*
X158769000Y-76727000D01*
X175260000Y-55118000D02*
X174284818Y-55118000D01*
X160528000Y-49364600D02*
X160528000Y-43383200D01*
X168910000Y-66802000D02*
X168910000Y-70866000D01*
X158667400Y-80010000D02*
X156616400Y-80010000D01*
X171450000Y-80010000D02*
X169875200Y-80010000D01*
X133600000Y-84074000D02*
X133600000Y-81530000D01*
X156616400Y-80010000D02*
X160629600Y-80010000D01*
D29*
X175260484Y-51937170D02*
X175137170Y-51937170D01*
D30*
X125374400Y-69240400D02*
X127152400Y-69240400D01*
D29*
X160477200Y-66040000D02*
X161290000Y-66852800D01*
D28*
X158769000Y-80111600D02*
X158667400Y-80010000D01*
D30*
X169722800Y-65989200D02*
X168910000Y-66802000D01*
D28*
X161340800Y-59670800D02*
X161340800Y-57048400D01*
X171450000Y-80010000D02*
X172720000Y-78740000D01*
X161340800Y-57048400D02*
X161340800Y-62382400D01*
X174041000Y-59709000D02*
X171520000Y-59709000D01*
X171501000Y-57901818D02*
X171501000Y-59690000D01*
D29*
X175260000Y-81280000D02*
X173990000Y-80010000D01*
D28*
X158769000Y-84664600D02*
X157581600Y-85852000D01*
X171501000Y-61478182D02*
X169733182Y-63246000D01*
X160629600Y-80010000D02*
X161290000Y-80010000D01*
X133600000Y-81530000D02*
X133096000Y-81026000D01*
X162630000Y-60960000D02*
X161340800Y-59670800D01*
D29*
X175260484Y-51937170D02*
X175260484Y-51918084D01*
%TO.N,+3V3*%
X143764000Y-86106000D02*
X147574000Y-89916000D01*
X147574000Y-89916000D02*
X163576000Y-89916000D01*
X178663600Y-77730400D02*
X177400000Y-78994000D01*
X169164000Y-84328000D02*
X165608000Y-87884000D01*
X163576000Y-89916000D02*
X165608000Y-87884000D01*
X143764000Y-76962000D02*
X143764000Y-75946000D01*
X143764000Y-81400000D02*
X143764000Y-79375000D01*
X177400000Y-78994000D02*
X177600000Y-79194000D01*
X143764000Y-79375000D02*
X143764000Y-76962000D01*
X177600000Y-82242000D02*
X175514000Y-84328000D01*
X175514000Y-84328000D02*
X169164000Y-84328000D01*
X141700000Y-73882000D02*
X141700000Y-71400000D01*
X143764000Y-81400000D02*
X143764000Y-86106000D01*
X143764000Y-75946000D02*
X141700000Y-73882000D01*
X141700000Y-71400000D02*
X142500000Y-70600000D01*
X175260000Y-78740000D02*
X177146000Y-78740000D01*
X177146000Y-78740000D02*
X177400000Y-78994000D01*
X178663600Y-63703200D02*
X178663600Y-77730400D01*
X142500000Y-70600000D02*
X143600000Y-70600000D01*
X177600000Y-79194000D02*
X177600000Y-82242000D01*
D31*
%TO.N,/ADC_BATT*%
X133350000Y-52800000D02*
X134791200Y-52800000D01*
X142777996Y-75916004D02*
X141024000Y-74162008D01*
X109237500Y-49547500D02*
X112490000Y-52800000D01*
X134791200Y-52800000D02*
X135686800Y-53695600D01*
X141024000Y-74162008D02*
X141024000Y-71119992D01*
X158762766Y-50139600D02*
X157169166Y-48546000D01*
X135686800Y-61722000D02*
X136601200Y-62636400D01*
X109237500Y-46775000D02*
X109237500Y-49547500D01*
X142814000Y-85897072D02*
X142777996Y-85861068D01*
X157169166Y-48546000D02*
X144138400Y-48546000D01*
X170180484Y-51937170D02*
X168382914Y-50139600D01*
X141024000Y-71119992D02*
X142462000Y-69681992D01*
X142777996Y-85861068D02*
X142777996Y-75916004D01*
X142462000Y-63772800D02*
X141374931Y-62685731D01*
X168382914Y-50139600D02*
X158762766Y-50139600D01*
X139884400Y-52800000D02*
X133350000Y-52800000D01*
X135686800Y-53695600D02*
X135686800Y-61722000D01*
X144138400Y-48546000D02*
X139884400Y-52800000D01*
X142462000Y-69681992D02*
X142462000Y-63772800D01*
X112490000Y-52800000D02*
X133350000Y-52800000D01*
%TO.N,/CS*%
X158748660Y-72797740D02*
X158748660Y-69239060D01*
X159258000Y-44856400D02*
X159258000Y-49236781D01*
X158748660Y-69239060D02*
X156972000Y-67462400D01*
X161236520Y-75285600D02*
X158748660Y-72797740D01*
X159258000Y-49236781D02*
X159183181Y-49311600D01*
X157429200Y-56509600D02*
X157429200Y-56293570D01*
X161645600Y-75285600D02*
X161236520Y-75285600D01*
X156972000Y-67462400D02*
X156972000Y-67411600D01*
X159547770Y-54175000D02*
X159664400Y-54175000D01*
X157429200Y-56293570D02*
X159547770Y-54175000D01*
%TO.N,/MOSI*%
X164338000Y-49226600D02*
X164338000Y-44907200D01*
X161329400Y-76087000D02*
X166720826Y-76087000D01*
X162560484Y-51937170D02*
X161097654Y-53400000D01*
X166720826Y-76087000D02*
X168866000Y-78232174D01*
X164200000Y-49364600D02*
X164338000Y-49226600D01*
X156075000Y-56591174D02*
X156075000Y-70832600D01*
X168866000Y-78232174D02*
X168866000Y-79966000D01*
X156075000Y-70832600D02*
X161329400Y-76087000D01*
X168866000Y-79966000D02*
X170180000Y-81280000D01*
X161097654Y-53400000D02*
X159266174Y-53400000D01*
X159266174Y-53400000D02*
X156075000Y-56591174D01*
%TO.N,/SCK*%
X162687000Y-77089000D02*
X163786000Y-78188000D01*
X163088054Y-53949600D02*
X165100484Y-51937170D01*
X156235494Y-72410136D02*
X160914360Y-77089000D01*
X166637654Y-49364600D02*
X166600000Y-49326946D01*
X166624000Y-45161200D02*
X166878000Y-44907200D01*
X166624000Y-49350946D02*
X166624000Y-45161200D01*
X163786000Y-79966000D02*
X165100000Y-81280000D01*
X160914360Y-77089000D02*
X162687000Y-77089000D01*
X161013055Y-53949600D02*
X163088054Y-53949600D01*
X166637654Y-49364600D02*
X166624000Y-49350946D01*
X155847999Y-72410136D02*
X156235494Y-72410136D01*
X163786000Y-78188000D02*
X163786000Y-79966000D01*
X158478884Y-56483771D02*
X161013055Y-53949600D01*
%TO.N,/MISO*%
X155574000Y-71040121D02*
X155574000Y-56383654D01*
X161121880Y-76588000D02*
X155574000Y-71040121D01*
X161800000Y-49364600D02*
X161798000Y-49362600D01*
X166326000Y-79966000D02*
X166326000Y-77553000D01*
X167640000Y-81280000D02*
X166326000Y-79966000D01*
X166326000Y-77553000D02*
X165361000Y-76588000D01*
X165361000Y-76588000D02*
X161121880Y-76588000D01*
X155574000Y-56383654D02*
X160020484Y-51937170D01*
X161798000Y-49362600D02*
X161798000Y-44907200D01*
%TO.N,/TX*%
X165150800Y-69767486D02*
X165100484Y-69717170D01*
X163830000Y-87662000D02*
X163608000Y-87884000D01*
X162204400Y-65024000D02*
X162204400Y-66821086D01*
X162204400Y-65024000D02*
X163856000Y-63372400D01*
X163856000Y-59734000D02*
X165170000Y-58420000D01*
X163856000Y-63372400D02*
X163856000Y-59734000D01*
X162204400Y-66821086D02*
X165100484Y-69717170D01*
%TO.N,/RX*%
X162966400Y-65865112D02*
X162966400Y-66874566D01*
X164325484Y-72390000D02*
X164390284Y-72325200D01*
X166183997Y-68260683D02*
X167640484Y-69717170D01*
X164390284Y-72325200D02*
X165032454Y-72325200D01*
X164352517Y-68260683D02*
X166183997Y-68260683D01*
X165032454Y-72325200D02*
X167640484Y-69717170D01*
X162966400Y-66874566D02*
X164352517Y-68260683D01*
D29*
%TO.N,+5V*%
X171958000Y-62484000D02*
X171704000Y-62484000D01*
X175787314Y-62484000D02*
X177546000Y-60725314D01*
X177546000Y-60725314D02*
X177546000Y-55372000D01*
X171958000Y-62484000D02*
X175787314Y-62484000D01*
X176403000Y-49657000D02*
X177546000Y-50800000D01*
X170891200Y-69006454D02*
X170180484Y-69717170D01*
X172790000Y-58004000D02*
X172790000Y-58420000D01*
X175657000Y-49657000D02*
X176403000Y-49657000D01*
X171704000Y-62484000D02*
X170891200Y-63296800D01*
X177546000Y-55372000D02*
X176276000Y-56642000D01*
X174152000Y-56642000D02*
X172790000Y-58004000D01*
X167710000Y-61436400D02*
X167710000Y-60960000D01*
X177546000Y-50800000D02*
X177546000Y-55372000D01*
X170891200Y-63296800D02*
X170891200Y-69006454D01*
X176276000Y-56642000D02*
X174152000Y-56642000D01*
%TO.N,Net-(Q1-G2)*%
X115093750Y-62150000D02*
X108093750Y-62150000D01*
D30*
%TO.N,/BME690_SCL*%
X135521613Y-85865000D02*
X135474644Y-85865000D01*
D31*
X166484000Y-59804000D02*
X166370000Y-59690000D01*
D30*
X134892800Y-74911200D02*
X134892800Y-82946034D01*
D31*
X143600000Y-66600000D02*
X144778800Y-66600000D01*
X146431000Y-55372000D02*
X146059000Y-55000000D01*
D30*
X135991600Y-73812400D02*
X134892800Y-74911200D01*
D31*
X166863392Y-65720592D02*
X167443800Y-65140184D01*
D30*
X136259979Y-84313213D02*
X136259979Y-85126634D01*
D31*
X167443800Y-65140184D02*
X167443800Y-62788800D01*
X166484000Y-61829000D02*
X166484000Y-59804000D01*
D30*
X134892800Y-82946034D02*
X136259979Y-84313213D01*
X136259979Y-85126634D02*
X135521613Y-85865000D01*
D31*
X144485000Y-55000000D02*
X144900000Y-55000000D01*
X141427200Y-85865000D02*
X141935200Y-85357000D01*
X144778800Y-66600000D02*
X146431000Y-64947800D01*
D30*
X135178800Y-68478400D02*
X135991600Y-69291200D01*
D31*
X167443800Y-62788800D02*
X166484000Y-61829000D01*
X146059000Y-55000000D02*
X144900000Y-55000000D01*
D30*
X135991600Y-69291200D02*
X135991600Y-73812400D01*
D31*
X141935200Y-85357000D02*
X141935200Y-84315000D01*
D30*
X134670800Y-68478400D02*
X135178800Y-68478400D01*
D31*
X146431000Y-64947800D02*
X146431000Y-55372000D01*
%TO.N,/BME690_SDA*%
X168936000Y-61899200D02*
X168936000Y-59716000D01*
X145954423Y-85127801D02*
X146012199Y-85127801D01*
X167944800Y-62890400D02*
X168936000Y-61899200D01*
X144485000Y-53500000D02*
X144900000Y-53500000D01*
X168936000Y-59716000D02*
X168910000Y-59690000D01*
X130860800Y-73456800D02*
X132384800Y-74980800D01*
X145135600Y-66951720D02*
X146932000Y-65155320D01*
X143600000Y-68600000D02*
X144252000Y-68600000D01*
X146932000Y-54476000D02*
X145956000Y-53500000D01*
X146932000Y-65155320D02*
X146932000Y-54476000D01*
X133908800Y-74980800D02*
X134416800Y-75488800D01*
D30*
X135508979Y-84235379D02*
X135500000Y-84226400D01*
D31*
X132384800Y-74980800D02*
X133908800Y-74980800D01*
D30*
X135508979Y-84815559D02*
X135508979Y-84235379D01*
D31*
X145135600Y-67716400D02*
X145135600Y-66951720D01*
X134416800Y-75488800D02*
X134416800Y-83143200D01*
X144252000Y-68600000D02*
X145135600Y-67716400D01*
X146012199Y-85127801D02*
X146456400Y-84683600D01*
X143600000Y-68600000D02*
X143324000Y-68600000D01*
X167944800Y-65735200D02*
X167944800Y-62890400D01*
X134416800Y-83143200D02*
X135500000Y-84226400D01*
X145956000Y-53500000D02*
X144900000Y-53500000D01*
X146456400Y-84683600D02*
X146456400Y-71456400D01*
X146456400Y-71456400D02*
X143600000Y-68600000D01*
%TO.N,/BMV080_IRQ*%
X168097200Y-52393886D02*
X167640484Y-51937170D01*
X134651231Y-69767969D02*
X134385569Y-69767969D01*
D30*
X167500000Y-52077654D02*
X167640484Y-51937170D01*
D31*
X167792400Y-55473600D02*
X168097200Y-55168800D01*
D30*
X141500000Y-51857566D02*
X144335566Y-49022000D01*
D31*
X134385569Y-69767969D02*
X133807200Y-69189600D01*
D30*
X158565600Y-50615600D02*
X166318914Y-50615600D01*
D31*
X134670800Y-69748400D02*
X134651231Y-69767969D01*
X168097200Y-55168800D02*
X168097200Y-52393886D01*
D30*
X144335566Y-49022000D02*
X156972000Y-49022000D01*
D31*
X133807200Y-66517370D02*
X136912170Y-63412400D01*
X137377200Y-61875400D02*
X137363200Y-61861400D01*
D30*
X141500000Y-60045600D02*
X141500000Y-51857566D01*
X166318914Y-50615600D02*
X167640484Y-51937170D01*
D31*
X136922630Y-63412400D02*
X137377200Y-62957830D01*
X137377200Y-62957830D02*
X137377200Y-61875400D01*
D30*
X156972000Y-49022000D02*
X158565600Y-50615600D01*
D31*
X136912170Y-63412400D02*
X136922630Y-63412400D01*
X133807200Y-69189600D02*
X133807200Y-66517370D01*
%TO.N,Net-(J16-Pin_1)*%
X140665200Y-49530000D02*
X135382000Y-49530000D01*
X145338800Y-44856400D02*
X140665200Y-49530000D01*
%TD*%
%TA.AperFunction,Conductor*%
%TO.N,GND*%
G36*
X144985578Y-70879542D02*
G01*
X145018548Y-70903139D01*
X145794581Y-71679171D01*
X145828066Y-71740494D01*
X145830900Y-71766852D01*
X145830900Y-84132465D01*
X145811215Y-84199504D01*
X145758411Y-84245259D01*
X145731092Y-84254082D01*
X145691762Y-84261905D01*
X145691752Y-84261908D01*
X145527882Y-84329784D01*
X145527869Y-84329791D01*
X145380388Y-84428336D01*
X145380384Y-84428339D01*
X145254961Y-84553762D01*
X145254958Y-84553766D01*
X145156413Y-84701247D01*
X145156406Y-84701260D01*
X145088529Y-84865133D01*
X145088526Y-84865142D01*
X145053923Y-85039105D01*
X145053923Y-85216496D01*
X145088526Y-85390459D01*
X145088529Y-85390468D01*
X145156406Y-85554341D01*
X145156413Y-85554354D01*
X145254958Y-85701835D01*
X145254961Y-85701839D01*
X145380384Y-85827262D01*
X145380388Y-85827265D01*
X145527869Y-85925810D01*
X145527882Y-85925817D01*
X145650786Y-85976724D01*
X145691757Y-85993695D01*
X145691759Y-85993695D01*
X145691764Y-85993697D01*
X145865727Y-86028300D01*
X145865730Y-86028301D01*
X145865732Y-86028301D01*
X146043116Y-86028301D01*
X146043117Y-86028300D01*
X146101105Y-86016765D01*
X146217081Y-85993697D01*
X146217084Y-85993695D01*
X146217089Y-85993695D01*
X146380970Y-85925814D01*
X146528458Y-85827265D01*
X146653887Y-85701836D01*
X146752436Y-85554348D01*
X146820317Y-85390467D01*
X146826692Y-85358421D01*
X146854922Y-85216496D01*
X146854923Y-85216492D01*
X146854923Y-85216485D01*
X146855520Y-85210432D01*
X146857964Y-85210672D01*
X146861875Y-85197351D01*
X146864673Y-85172834D01*
X146872483Y-85161227D01*
X146874608Y-85153991D01*
X146882879Y-85142598D01*
X146886824Y-85137766D01*
X146942258Y-85082333D01*
X146984712Y-85018796D01*
X146988349Y-85013352D01*
X146989068Y-85012278D01*
X146989804Y-85011662D01*
X146991769Y-85009257D01*
X146996827Y-85005793D01*
X147042681Y-84967473D01*
X147092169Y-84957170D01*
X155448000Y-84957170D01*
X155448000Y-73399807D01*
X155467685Y-73332768D01*
X155520489Y-73287013D01*
X155589647Y-73277069D01*
X155596192Y-73278190D01*
X155759305Y-73310636D01*
X155759308Y-73310636D01*
X155936692Y-73310636D01*
X155936693Y-73310635D01*
X156110665Y-73276030D01*
X156110677Y-73276024D01*
X156116492Y-73274262D01*
X156116962Y-73275813D01*
X156178631Y-73269182D01*
X156241111Y-73300455D01*
X156244299Y-73303531D01*
X159250769Y-76310000D01*
X160118589Y-77177819D01*
X160152074Y-77239142D01*
X160147090Y-77308834D01*
X160105218Y-77364767D01*
X160039754Y-77389184D01*
X160030908Y-77389500D01*
X159913713Y-77389500D01*
X159865042Y-77397208D01*
X159703760Y-77422753D01*
X159501585Y-77488444D01*
X159312179Y-77584951D01*
X159140215Y-77709889D01*
X159026673Y-77823431D01*
X158965350Y-77856915D01*
X158895658Y-77851931D01*
X158839725Y-77810059D01*
X158822810Y-77779082D01*
X158773797Y-77647671D01*
X158773793Y-77647664D01*
X158687547Y-77532455D01*
X158687544Y-77532452D01*
X158572335Y-77446206D01*
X158572328Y-77446202D01*
X158437482Y-77395908D01*
X158437483Y-77395908D01*
X158377883Y-77389501D01*
X158377881Y-77389500D01*
X158377873Y-77389500D01*
X158377864Y-77389500D01*
X156582129Y-77389500D01*
X156582123Y-77389501D01*
X156522516Y-77395908D01*
X156387671Y-77446202D01*
X156387664Y-77446206D01*
X156272455Y-77532452D01*
X156272452Y-77532455D01*
X156186206Y-77647664D01*
X156186202Y-77647671D01*
X156135908Y-77782517D01*
X156129501Y-77842116D01*
X156129500Y-77842127D01*
X156129500Y-79637870D01*
X156129501Y-79637876D01*
X156135908Y-79697483D01*
X156186202Y-79832328D01*
X156186206Y-79832335D01*
X156272452Y-79947544D01*
X156272455Y-79947547D01*
X156387664Y-80033793D01*
X156387671Y-80033797D01*
X156519082Y-80082810D01*
X156575016Y-80124681D01*
X156599433Y-80190145D01*
X156584582Y-80258418D01*
X156563431Y-80286673D01*
X156449889Y-80400215D01*
X156324951Y-80572179D01*
X156228444Y-80761585D01*
X156162753Y-80963760D01*
X156129500Y-81173713D01*
X156129500Y-81386286D01*
X156160533Y-81582225D01*
X156162754Y-81596243D01*
X156228380Y-81798219D01*
X156228444Y-81798414D01*
X156324951Y-81987820D01*
X156449890Y-82159786D01*
X156600213Y-82310109D01*
X156772179Y-82435048D01*
X156772181Y-82435049D01*
X156772184Y-82435051D01*
X156961588Y-82531557D01*
X157163757Y-82597246D01*
X157373713Y-82630500D01*
X157373714Y-82630500D01*
X157586286Y-82630500D01*
X157586287Y-82630500D01*
X157796243Y-82597246D01*
X157998412Y-82531557D01*
X158187816Y-82435051D01*
X158271158Y-82374500D01*
X158359786Y-82310109D01*
X158359788Y-82310106D01*
X158359792Y-82310104D01*
X158510104Y-82159792D01*
X158510106Y-82159788D01*
X158510109Y-82159786D01*
X158635048Y-81987820D01*
X158635047Y-81987820D01*
X158635051Y-81987816D01*
X158639514Y-81979054D01*
X158687488Y-81928259D01*
X158755308Y-81911463D01*
X158821444Y-81933999D01*
X158860486Y-81979056D01*
X158864951Y-81987820D01*
X158989890Y-82159786D01*
X159140213Y-82310109D01*
X159312179Y-82435048D01*
X159312181Y-82435049D01*
X159312184Y-82435051D01*
X159501588Y-82531557D01*
X159703757Y-82597246D01*
X159913713Y-82630500D01*
X159913714Y-82630500D01*
X160126286Y-82630500D01*
X160126287Y-82630500D01*
X160336243Y-82597246D01*
X160538412Y-82531557D01*
X160727816Y-82435051D01*
X160811158Y-82374500D01*
X160899786Y-82310109D01*
X160899788Y-82310106D01*
X160899792Y-82310104D01*
X161050104Y-82159792D01*
X161050106Y-82159788D01*
X161050109Y-82159786D01*
X161175048Y-81987820D01*
X161175047Y-81987820D01*
X161175051Y-81987816D01*
X161179514Y-81979054D01*
X161227488Y-81928259D01*
X161295308Y-81911463D01*
X161361444Y-81933999D01*
X161400486Y-81979056D01*
X161404951Y-81987820D01*
X161529890Y-82159786D01*
X161680213Y-82310109D01*
X161852179Y-82435048D01*
X161852181Y-82435049D01*
X161852184Y-82435051D01*
X162041588Y-82531557D01*
X162243757Y-82597246D01*
X162453713Y-82630500D01*
X162453714Y-82630500D01*
X162666286Y-82630500D01*
X162666287Y-82630500D01*
X162876243Y-82597246D01*
X163078412Y-82531557D01*
X163267816Y-82435051D01*
X163351158Y-82374500D01*
X163439786Y-82310109D01*
X163439788Y-82310106D01*
X163439792Y-82310104D01*
X163590104Y-82159792D01*
X163590106Y-82159788D01*
X163590109Y-82159786D01*
X163715048Y-81987820D01*
X163715047Y-81987820D01*
X163715051Y-81987816D01*
X163719514Y-81979054D01*
X163767488Y-81928259D01*
X163835308Y-81911463D01*
X163901444Y-81933999D01*
X163940486Y-81979056D01*
X163944951Y-81987820D01*
X164069890Y-82159786D01*
X164220213Y-82310109D01*
X164392179Y-82435048D01*
X164392181Y-82435049D01*
X164392184Y-82435051D01*
X164581588Y-82531557D01*
X164783757Y-82597246D01*
X164993713Y-82630500D01*
X164993714Y-82630500D01*
X165206286Y-82630500D01*
X165206287Y-82630500D01*
X165416243Y-82597246D01*
X165618412Y-82531557D01*
X165807816Y-82435051D01*
X165891158Y-82374500D01*
X165979786Y-82310109D01*
X165979788Y-82310106D01*
X165979792Y-82310104D01*
X166130104Y-82159792D01*
X166130106Y-82159788D01*
X166130109Y-82159786D01*
X166255048Y-81987820D01*
X166255047Y-81987820D01*
X166255051Y-81987816D01*
X166259514Y-81979054D01*
X166307488Y-81928259D01*
X166375308Y-81911463D01*
X166441444Y-81933999D01*
X166480486Y-81979056D01*
X166484951Y-81987820D01*
X166609890Y-82159786D01*
X166760213Y-82310109D01*
X166932179Y-82435048D01*
X166932181Y-82435049D01*
X166932184Y-82435051D01*
X167121588Y-82531557D01*
X167323757Y-82597246D01*
X167533713Y-82630500D01*
X167533714Y-82630500D01*
X167746286Y-82630500D01*
X167746287Y-82630500D01*
X167956243Y-82597246D01*
X168158412Y-82531557D01*
X168347816Y-82435051D01*
X168431158Y-82374500D01*
X168519786Y-82310109D01*
X168519788Y-82310106D01*
X168519792Y-82310104D01*
X168670104Y-82159792D01*
X168670106Y-82159788D01*
X168670109Y-82159786D01*
X168795048Y-81987820D01*
X168795047Y-81987820D01*
X168795051Y-81987816D01*
X168799514Y-81979054D01*
X168847488Y-81928259D01*
X168915308Y-81911463D01*
X168981444Y-81933999D01*
X169020486Y-81979056D01*
X169024951Y-81987820D01*
X169149890Y-82159786D01*
X169300213Y-82310109D01*
X169472179Y-82435048D01*
X169472181Y-82435049D01*
X169472184Y-82435051D01*
X169661588Y-82531557D01*
X169863757Y-82597246D01*
X170073713Y-82630500D01*
X170073714Y-82630500D01*
X170286286Y-82630500D01*
X170286287Y-82630500D01*
X170496243Y-82597246D01*
X170698412Y-82531557D01*
X170887816Y-82435051D01*
X170971158Y-82374500D01*
X171059786Y-82310109D01*
X171059788Y-82310106D01*
X171059792Y-82310104D01*
X171210104Y-82159792D01*
X171210106Y-82159788D01*
X171210109Y-82159786D01*
X171335048Y-81987820D01*
X171335047Y-81987820D01*
X171335051Y-81987816D01*
X171339514Y-81979054D01*
X171387488Y-81928259D01*
X171455308Y-81911463D01*
X171521444Y-81933999D01*
X171560486Y-81979056D01*
X171564951Y-81987820D01*
X171689890Y-82159786D01*
X171840213Y-82310109D01*
X172012179Y-82435048D01*
X172012181Y-82435049D01*
X172012184Y-82435051D01*
X172201588Y-82531557D01*
X172403757Y-82597246D01*
X172613713Y-82630500D01*
X172613714Y-82630500D01*
X172826286Y-82630500D01*
X172826287Y-82630500D01*
X173036243Y-82597246D01*
X173238412Y-82531557D01*
X173427816Y-82435051D01*
X173511158Y-82374500D01*
X173599786Y-82310109D01*
X173599788Y-82310106D01*
X173599792Y-82310104D01*
X173750104Y-82159792D01*
X173750106Y-82159788D01*
X173750109Y-82159786D01*
X173831305Y-82048028D01*
X173875051Y-81987816D01*
X173879793Y-81978508D01*
X173927763Y-81927711D01*
X173995583Y-81910911D01*
X174061719Y-81933445D01*
X174100763Y-81978500D01*
X174105373Y-81987547D01*
X174144728Y-82041716D01*
X174777037Y-81409408D01*
X174794075Y-81472993D01*
X174859901Y-81587007D01*
X174952993Y-81680099D01*
X175067007Y-81745925D01*
X175130590Y-81762962D01*
X174498282Y-82395269D01*
X174498282Y-82395270D01*
X174552449Y-82434624D01*
X174741782Y-82531095D01*
X174943870Y-82596757D01*
X175153754Y-82630000D01*
X175366246Y-82630000D01*
X175576127Y-82596757D01*
X175576130Y-82596757D01*
X175778219Y-82531094D01*
X175897422Y-82470357D01*
X175966091Y-82457460D01*
X176030832Y-82483736D01*
X176071090Y-82540842D01*
X176074082Y-82610647D01*
X176041399Y-82668522D01*
X175218741Y-83491181D01*
X175157418Y-83524666D01*
X175131060Y-83527500D01*
X169085154Y-83527500D01*
X168930509Y-83558261D01*
X168930497Y-83558264D01*
X168887832Y-83575936D01*
X168887833Y-83575937D01*
X168784823Y-83618604D01*
X168784814Y-83618609D01*
X168653712Y-83706209D01*
X168653710Y-83706212D01*
X165774740Y-86585181D01*
X165713417Y-86618666D01*
X165687059Y-86621500D01*
X165508639Y-86621500D01*
X165443214Y-86631862D01*
X165312362Y-86652587D01*
X165123370Y-86713993D01*
X165123367Y-86713994D01*
X164946305Y-86804213D01*
X164785533Y-86921021D01*
X164695681Y-87010874D01*
X164634358Y-87044359D01*
X164564666Y-87039375D01*
X164520319Y-87010874D01*
X164430466Y-86921021D01*
X164430464Y-86921019D01*
X164269694Y-86804213D01*
X164092632Y-86713994D01*
X164092629Y-86713993D01*
X163903637Y-86652587D01*
X163805498Y-86637043D01*
X163707361Y-86621500D01*
X163508639Y-86621500D01*
X163443214Y-86631862D01*
X163312362Y-86652587D01*
X163123370Y-86713993D01*
X163123367Y-86713994D01*
X162946304Y-86804214D01*
X162922782Y-86821303D01*
X162856975Y-86844781D01*
X162788921Y-86828954D01*
X162750634Y-86795296D01*
X162727546Y-86764454D01*
X162727544Y-86764452D01*
X162727543Y-86764451D01*
X162612335Y-86678206D01*
X162612328Y-86678202D01*
X162477482Y-86627908D01*
X162477483Y-86627908D01*
X162417883Y-86621501D01*
X162417881Y-86621500D01*
X162417873Y-86621500D01*
X162417864Y-86621500D01*
X160798129Y-86621500D01*
X160798123Y-86621501D01*
X160738516Y-86627908D01*
X160603671Y-86678202D01*
X160603664Y-86678206D01*
X160488455Y-86764452D01*
X160488452Y-86764455D01*
X160402206Y-86879664D01*
X160402202Y-86879671D01*
X160351908Y-87014517D01*
X160345501Y-87074116D01*
X160345500Y-87074135D01*
X160345500Y-88693870D01*
X160345501Y-88693876D01*
X160351908Y-88753483D01*
X160402202Y-88888328D01*
X160402204Y-88888331D01*
X160423807Y-88917189D01*
X160448224Y-88982654D01*
X160433372Y-89050927D01*
X160383967Y-89100332D01*
X160324540Y-89115500D01*
X148019207Y-89115500D01*
X148011030Y-89113873D01*
X148005952Y-89114790D01*
X147971756Y-89106061D01*
X147865456Y-89062030D01*
X147825230Y-89035152D01*
X144600819Y-85810741D01*
X144567334Y-85749418D01*
X144564500Y-85723060D01*
X144564500Y-81845207D01*
X144573939Y-81797755D01*
X144629892Y-81662670D01*
X144629894Y-81662666D01*
X144664500Y-81488691D01*
X144664500Y-81311309D01*
X144664500Y-81311306D01*
X144664499Y-81311304D01*
X144629896Y-81137341D01*
X144629893Y-81137332D01*
X144573939Y-81002245D01*
X144564500Y-80954793D01*
X144564500Y-75867155D01*
X144564499Y-75867153D01*
X144533737Y-75712503D01*
X144526719Y-75695559D01*
X144473397Y-75566827D01*
X144473390Y-75566814D01*
X144385790Y-75435712D01*
X144338871Y-75388793D01*
X144274289Y-75324211D01*
X142861896Y-73911818D01*
X142828411Y-73850495D01*
X142833395Y-73780803D01*
X142875267Y-73724870D01*
X142940731Y-73700453D01*
X143005872Y-73713652D01*
X143115562Y-73769542D01*
X143304477Y-73830924D01*
X143500679Y-73862000D01*
X143699321Y-73862000D01*
X143895520Y-73830924D01*
X143895523Y-73830924D01*
X144084437Y-73769542D01*
X144261425Y-73679362D01*
X144298715Y-73652268D01*
X143627447Y-72981000D01*
X143650160Y-72981000D01*
X143747061Y-72955036D01*
X143833940Y-72904876D01*
X143904876Y-72833940D01*
X143955036Y-72747061D01*
X143981000Y-72650160D01*
X143981000Y-72627447D01*
X144652268Y-73298715D01*
X144679362Y-73261425D01*
X144769542Y-73084437D01*
X144830924Y-72895523D01*
X144830924Y-72895520D01*
X144862000Y-72699321D01*
X144862000Y-72500678D01*
X144830924Y-72304479D01*
X144830924Y-72304476D01*
X144769542Y-72115562D01*
X144679358Y-71938567D01*
X144652268Y-71901283D01*
X143981000Y-72572551D01*
X143981000Y-72549840D01*
X143955036Y-72452939D01*
X143904876Y-72366060D01*
X143833940Y-72295124D01*
X143747061Y-72244964D01*
X143650160Y-72219000D01*
X143627446Y-72219000D01*
X144054043Y-71792402D01*
X144085424Y-71769601D01*
X144261694Y-71679787D01*
X144422464Y-71562981D01*
X144562981Y-71422464D01*
X144679787Y-71261694D01*
X144770005Y-71084632D01*
X144801779Y-70986840D01*
X144812936Y-70952503D01*
X144852373Y-70894827D01*
X144916731Y-70867628D01*
X144985578Y-70879542D01*
G37*
%TD.AperFunction*%
%TA.AperFunction,Conductor*%
G36*
X173835270Y-79501717D02*
G01*
X173835270Y-79501716D01*
X173874622Y-79447555D01*
X173879232Y-79438507D01*
X173927205Y-79387709D01*
X173995025Y-79370912D01*
X174061161Y-79393447D01*
X174100204Y-79438504D01*
X174104949Y-79447817D01*
X174229890Y-79619786D01*
X174380213Y-79770109D01*
X174552179Y-79895048D01*
X174552181Y-79895049D01*
X174552184Y-79895051D01*
X174561493Y-79899794D01*
X174612290Y-79947766D01*
X174629087Y-80015587D01*
X174606552Y-80081722D01*
X174561505Y-80120760D01*
X174552446Y-80125376D01*
X174552440Y-80125380D01*
X174498282Y-80164727D01*
X174498282Y-80164728D01*
X175130591Y-80797037D01*
X175067007Y-80814075D01*
X174952993Y-80879901D01*
X174859901Y-80972993D01*
X174794075Y-81087007D01*
X174777037Y-81150591D01*
X174144728Y-80518282D01*
X174144727Y-80518282D01*
X174105380Y-80572440D01*
X174105376Y-80572446D01*
X174100760Y-80581505D01*
X174052781Y-80632297D01*
X173984959Y-80649087D01*
X173918826Y-80626543D01*
X173879794Y-80581493D01*
X173875051Y-80572184D01*
X173875049Y-80572181D01*
X173875048Y-80572179D01*
X173750109Y-80400213D01*
X173599786Y-80249890D01*
X173427817Y-80124949D01*
X173418504Y-80120204D01*
X173367707Y-80072230D01*
X173350912Y-80004409D01*
X173373449Y-79938274D01*
X173418507Y-79899232D01*
X173427555Y-79894622D01*
X173481716Y-79855270D01*
X173481717Y-79855270D01*
X172849408Y-79222962D01*
X172912993Y-79205925D01*
X173027007Y-79140099D01*
X173120099Y-79047007D01*
X173185925Y-78932993D01*
X173202962Y-78869408D01*
X173835270Y-79501717D01*
G37*
%TD.AperFunction*%
%TA.AperFunction,Conductor*%
G36*
X176742539Y-79560185D02*
G01*
X176788294Y-79612989D01*
X176799500Y-79664500D01*
X176799500Y-80866496D01*
X176779815Y-80933535D01*
X176727011Y-80979290D01*
X176657853Y-80989234D01*
X176594297Y-80960209D01*
X176557569Y-80904814D01*
X176511095Y-80761782D01*
X176414624Y-80572449D01*
X176375270Y-80518282D01*
X176375269Y-80518282D01*
X175742962Y-81150590D01*
X175725925Y-81087007D01*
X175660099Y-80972993D01*
X175567007Y-80879901D01*
X175452993Y-80814075D01*
X175389409Y-80797037D01*
X176021716Y-80164728D01*
X175967547Y-80125373D01*
X175967547Y-80125372D01*
X175958500Y-80120763D01*
X175907706Y-80072788D01*
X175890912Y-80004966D01*
X175913451Y-79938832D01*
X175958508Y-79899793D01*
X175967816Y-79895051D01*
X176054147Y-79832328D01*
X176139786Y-79770109D01*
X176139788Y-79770106D01*
X176139792Y-79770104D01*
X176290104Y-79619792D01*
X176310577Y-79591613D01*
X176365906Y-79548949D01*
X176410894Y-79540500D01*
X176675500Y-79540500D01*
X176742539Y-79560185D01*
G37*
%TD.AperFunction*%
%TA.AperFunction,Conductor*%
G36*
X158998418Y-79635417D02*
G01*
X159026673Y-79656569D01*
X159140213Y-79770109D01*
X159312182Y-79895050D01*
X159320946Y-79899516D01*
X159371742Y-79947491D01*
X159388536Y-80015312D01*
X159365998Y-80081447D01*
X159320946Y-80120484D01*
X159312182Y-80124949D01*
X159140213Y-80249890D01*
X158989890Y-80400213D01*
X158864949Y-80572182D01*
X158860484Y-80580946D01*
X158812509Y-80631742D01*
X158744688Y-80648536D01*
X158678553Y-80625998D01*
X158639516Y-80580946D01*
X158635050Y-80572182D01*
X158510109Y-80400213D01*
X158396569Y-80286673D01*
X158363084Y-80225350D01*
X158368068Y-80155658D01*
X158409940Y-80099725D01*
X158440915Y-80082810D01*
X158572331Y-80033796D01*
X158687546Y-79947546D01*
X158773796Y-79832331D01*
X158822810Y-79700916D01*
X158864681Y-79644984D01*
X158930145Y-79620566D01*
X158998418Y-79635417D01*
G37*
%TD.AperFunction*%
%TA.AperFunction,Conductor*%
G36*
X161361444Y-79393999D02*
G01*
X161400486Y-79439056D01*
X161404951Y-79447820D01*
X161529890Y-79619786D01*
X161680213Y-79770109D01*
X161852182Y-79895050D01*
X161860946Y-79899516D01*
X161911742Y-79947491D01*
X161928536Y-80015312D01*
X161905998Y-80081447D01*
X161860946Y-80120484D01*
X161852182Y-80124949D01*
X161680213Y-80249890D01*
X161529890Y-80400213D01*
X161404949Y-80572182D01*
X161400484Y-80580946D01*
X161352509Y-80631742D01*
X161284688Y-80648536D01*
X161218553Y-80625998D01*
X161179516Y-80580946D01*
X161175050Y-80572182D01*
X161050109Y-80400213D01*
X160899786Y-80249890D01*
X160727820Y-80124951D01*
X160719600Y-80120763D01*
X160719054Y-80120485D01*
X160668259Y-80072512D01*
X160651463Y-80004692D01*
X160673999Y-79938556D01*
X160719054Y-79899515D01*
X160727816Y-79895051D01*
X160814138Y-79832335D01*
X160899786Y-79770109D01*
X160899788Y-79770106D01*
X160899792Y-79770104D01*
X161050104Y-79619792D01*
X161050106Y-79619788D01*
X161050109Y-79619786D01*
X161175048Y-79447820D01*
X161175047Y-79447820D01*
X161175051Y-79447816D01*
X161179514Y-79439054D01*
X161227488Y-79388259D01*
X161295308Y-79371463D01*
X161361444Y-79393999D01*
G37*
%TD.AperFunction*%
%TA.AperFunction,Conductor*%
G36*
X172254075Y-78932993D02*
G01*
X172319901Y-79047007D01*
X172412993Y-79140099D01*
X172527007Y-79205925D01*
X172590590Y-79222962D01*
X171958282Y-79855269D01*
X171958282Y-79855270D01*
X172012452Y-79894626D01*
X172012451Y-79894626D01*
X172021495Y-79899234D01*
X172072292Y-79947208D01*
X172089087Y-80015029D01*
X172066550Y-80081164D01*
X172021499Y-80120202D01*
X172012182Y-80124949D01*
X171840213Y-80249890D01*
X171689890Y-80400213D01*
X171564949Y-80572182D01*
X171560484Y-80580946D01*
X171512509Y-80631742D01*
X171444688Y-80648536D01*
X171378553Y-80625998D01*
X171339516Y-80580946D01*
X171335050Y-80572182D01*
X171210109Y-80400213D01*
X171059786Y-80249890D01*
X170887820Y-80124951D01*
X170879600Y-80120763D01*
X170879054Y-80120485D01*
X170828259Y-80072512D01*
X170811463Y-80004692D01*
X170833999Y-79938556D01*
X170879054Y-79899515D01*
X170887816Y-79895051D01*
X170974138Y-79832335D01*
X171059786Y-79770109D01*
X171059788Y-79770106D01*
X171059792Y-79770104D01*
X171210104Y-79619792D01*
X171210106Y-79619788D01*
X171210109Y-79619786D01*
X171295890Y-79501717D01*
X171335051Y-79447816D01*
X171339793Y-79438508D01*
X171387763Y-79387711D01*
X171455583Y-79370911D01*
X171521719Y-79393445D01*
X171560763Y-79438500D01*
X171565373Y-79447547D01*
X171604728Y-79501716D01*
X172237036Y-78869407D01*
X172254075Y-78932993D01*
G37*
%TD.AperFunction*%
%TA.AperFunction,Conductor*%
G36*
X133124739Y-67791667D02*
G01*
X133170494Y-67844471D01*
X133181700Y-67895982D01*
X133181700Y-69251206D01*
X133188363Y-69284707D01*
X133188362Y-69284707D01*
X133205734Y-69372044D01*
X133205736Y-69372048D01*
X133205737Y-69372052D01*
X133211393Y-69385707D01*
X133211393Y-69385708D01*
X133252885Y-69485881D01*
X133252887Y-69485884D01*
X133252888Y-69485886D01*
X133277678Y-69522985D01*
X133321342Y-69588333D01*
X133408467Y-69675458D01*
X133408470Y-69675460D01*
X133416176Y-69683166D01*
X133830476Y-70097466D01*
X133857356Y-70137694D01*
X133872785Y-70174944D01*
X133971335Y-70322434D01*
X133971338Y-70322438D01*
X134096761Y-70447861D01*
X134096765Y-70447864D01*
X134244246Y-70546409D01*
X134244259Y-70546416D01*
X134343780Y-70587638D01*
X134408134Y-70614294D01*
X134408136Y-70614294D01*
X134408141Y-70614296D01*
X134582104Y-70648899D01*
X134582107Y-70648900D01*
X134582109Y-70648900D01*
X134759493Y-70648900D01*
X134759494Y-70648899D01*
X134775309Y-70645753D01*
X134822627Y-70636342D01*
X134892218Y-70642569D01*
X134947395Y-70685432D01*
X134970640Y-70751322D01*
X134970818Y-70757959D01*
X134970818Y-73231200D01*
X134951133Y-73298239D01*
X134898329Y-73343994D01*
X134846818Y-73355200D01*
X131860496Y-73355200D01*
X131793457Y-73335515D01*
X131747702Y-73282711D01*
X131738879Y-73255391D01*
X131726695Y-73194141D01*
X131726694Y-73194134D01*
X131683339Y-73089464D01*
X131658816Y-73030259D01*
X131658809Y-73030246D01*
X131560264Y-72882765D01*
X131560261Y-72882761D01*
X131434838Y-72757338D01*
X131434834Y-72757335D01*
X131287353Y-72658790D01*
X131287340Y-72658783D01*
X131123467Y-72590906D01*
X131123458Y-72590903D01*
X130949494Y-72556300D01*
X130949491Y-72556300D01*
X130772109Y-72556300D01*
X130772106Y-72556300D01*
X130598141Y-72590903D01*
X130598132Y-72590906D01*
X130434259Y-72658783D01*
X130434246Y-72658790D01*
X130286765Y-72757335D01*
X130286761Y-72757338D01*
X130161338Y-72882761D01*
X130161335Y-72882765D01*
X130062790Y-73030246D01*
X130062783Y-73030259D01*
X129994906Y-73194132D01*
X129994904Y-73194141D01*
X129982721Y-73255391D01*
X129950337Y-73317302D01*
X129889621Y-73351876D01*
X129861104Y-73355200D01*
X127022400Y-73355200D01*
X126955361Y-73335515D01*
X126909606Y-73282711D01*
X126898400Y-73231200D01*
X126898400Y-67895982D01*
X126918085Y-67828943D01*
X126970889Y-67783188D01*
X127022400Y-67771982D01*
X133057700Y-67771982D01*
X133124739Y-67791667D01*
G37*
%TD.AperFunction*%
%TA.AperFunction,Conductor*%
G36*
X146977334Y-66097090D02*
G01*
X147033267Y-66138962D01*
X147057684Y-66204426D01*
X147058000Y-66213272D01*
X147058000Y-70874046D01*
X147038315Y-70941085D01*
X146985511Y-70986840D01*
X146916353Y-70996784D01*
X146852797Y-70967759D01*
X146846319Y-70961727D01*
X144898271Y-69013679D01*
X144864786Y-68952356D01*
X144869770Y-68882664D01*
X144898269Y-68838319D01*
X145534329Y-68202260D01*
X145534333Y-68202258D01*
X145621458Y-68115133D01*
X145655716Y-68063863D01*
X145689912Y-68012686D01*
X145737063Y-67898851D01*
X145744566Y-67861133D01*
X145755214Y-67807598D01*
X145761100Y-67778007D01*
X145761100Y-67654793D01*
X145761100Y-67262172D01*
X145780785Y-67195133D01*
X145797419Y-67174491D01*
X146846319Y-66125591D01*
X146907642Y-66092106D01*
X146977334Y-66097090D01*
G37*
%TD.AperFunction*%
%TA.AperFunction,Conductor*%
G36*
X162164075Y-61152993D02*
G01*
X162229901Y-61267007D01*
X162322993Y-61360099D01*
X162437007Y-61425925D01*
X162500589Y-61442962D01*
X161868282Y-62075269D01*
X161868282Y-62075270D01*
X161922449Y-62114624D01*
X162111782Y-62211095D01*
X162313870Y-62276757D01*
X162523754Y-62310000D01*
X162736246Y-62310000D01*
X162946127Y-62276757D01*
X162946130Y-62276757D01*
X163068182Y-62237100D01*
X163138023Y-62235105D01*
X163197856Y-62271185D01*
X163228684Y-62333886D01*
X163230500Y-62355031D01*
X163230500Y-63061947D01*
X163210815Y-63128986D01*
X163194181Y-63149628D01*
X161807890Y-64535918D01*
X161807880Y-64535928D01*
X161805670Y-64538139D01*
X161805667Y-64538142D01*
X161718542Y-64625267D01*
X161699125Y-64654327D01*
X161694100Y-64661846D01*
X161694092Y-64661856D01*
X161650090Y-64727709D01*
X161650085Y-64727718D01*
X161616747Y-64808207D01*
X161611824Y-64820092D01*
X161602937Y-64841545D01*
X161602935Y-64841553D01*
X161578900Y-64962389D01*
X161578900Y-66882696D01*
X161602935Y-67003530D01*
X161602938Y-67003540D01*
X161614891Y-67032399D01*
X161614894Y-67032406D01*
X161616747Y-67036878D01*
X161650088Y-67117372D01*
X161679857Y-67161923D01*
X161683933Y-67168023D01*
X161683936Y-67168029D01*
X161718538Y-67219814D01*
X161718544Y-67219822D01*
X161809986Y-67311264D01*
X161810008Y-67311284D01*
X162653713Y-68154989D01*
X162687198Y-68216312D01*
X162682214Y-68286004D01*
X162640342Y-68341937D01*
X162574878Y-68366354D01*
X162566032Y-68366670D01*
X162454197Y-68366670D01*
X162405526Y-68374378D01*
X162244244Y-68399923D01*
X162042069Y-68465614D01*
X161852663Y-68562121D01*
X161680697Y-68687060D01*
X161530374Y-68837383D01*
X161405433Y-69009352D01*
X161400968Y-69018116D01*
X161352993Y-69068912D01*
X161285172Y-69085706D01*
X161219037Y-69063168D01*
X161180000Y-69018116D01*
X161175534Y-69009352D01*
X161050593Y-68837383D01*
X160900270Y-68687060D01*
X160728304Y-68562121D01*
X160538898Y-68465614D01*
X160538897Y-68465613D01*
X160538896Y-68465613D01*
X160336727Y-68399924D01*
X160336725Y-68399923D01*
X160336724Y-68399923D01*
X160175441Y-68374378D01*
X160126771Y-68366670D01*
X159914197Y-68366670D01*
X159865526Y-68374378D01*
X159704244Y-68399923D01*
X159502069Y-68465614D01*
X159312665Y-68562120D01*
X159191945Y-68649827D01*
X159126139Y-68673306D01*
X159058085Y-68657480D01*
X159031380Y-68637189D01*
X157908819Y-67514628D01*
X157875334Y-67453305D01*
X157872500Y-67426947D01*
X157872500Y-67322906D01*
X157872499Y-67322904D01*
X157837896Y-67148941D01*
X157837893Y-67148932D01*
X157770016Y-66985059D01*
X157770009Y-66985046D01*
X157671464Y-66837565D01*
X157671461Y-66837561D01*
X157546038Y-66712138D01*
X157546034Y-66712135D01*
X157398553Y-66613590D01*
X157398540Y-66613583D01*
X157234667Y-66545706D01*
X157234658Y-66545703D01*
X157060694Y-66511100D01*
X157060691Y-66511100D01*
X156883309Y-66511100D01*
X156848690Y-66517986D01*
X156779099Y-66511758D01*
X156723922Y-66468894D01*
X156700678Y-66403004D01*
X156700500Y-66396368D01*
X156700500Y-62245209D01*
X156720185Y-62178170D01*
X156772989Y-62132415D01*
X156842147Y-62122471D01*
X156880793Y-62134723D01*
X157031588Y-62211557D01*
X157233757Y-62277246D01*
X157443713Y-62310500D01*
X157443714Y-62310500D01*
X157656286Y-62310500D01*
X157656287Y-62310500D01*
X157866243Y-62277246D01*
X158068412Y-62211557D01*
X158257816Y-62115051D01*
X158331793Y-62061304D01*
X158429786Y-61990109D01*
X158429788Y-61990106D01*
X158429792Y-61990104D01*
X158580104Y-61839792D01*
X158580106Y-61839788D01*
X158580109Y-61839786D01*
X158705048Y-61667820D01*
X158705047Y-61667820D01*
X158705051Y-61667816D01*
X158709514Y-61659054D01*
X158757488Y-61608259D01*
X158825308Y-61591463D01*
X158891444Y-61613999D01*
X158930486Y-61659056D01*
X158934951Y-61667820D01*
X159059890Y-61839786D01*
X159210213Y-61990109D01*
X159382179Y-62115048D01*
X159382181Y-62115049D01*
X159382184Y-62115051D01*
X159571588Y-62211557D01*
X159773757Y-62277246D01*
X159983713Y-62310500D01*
X159983714Y-62310500D01*
X160196286Y-62310500D01*
X160196287Y-62310500D01*
X160406243Y-62277246D01*
X160608412Y-62211557D01*
X160797816Y-62115051D01*
X160871793Y-62061304D01*
X160969786Y-61990109D01*
X160969788Y-61990106D01*
X160969792Y-61990104D01*
X161120104Y-61839792D01*
X161120106Y-61839788D01*
X161120109Y-61839786D01*
X161204624Y-61723459D01*
X161245051Y-61667816D01*
X161249793Y-61658508D01*
X161297763Y-61607711D01*
X161365583Y-61590911D01*
X161431719Y-61613445D01*
X161470763Y-61658500D01*
X161475373Y-61667547D01*
X161514728Y-61721716D01*
X162147037Y-61089408D01*
X162164075Y-61152993D01*
G37*
%TD.AperFunction*%
%TA.AperFunction,Conductor*%
G36*
X165874752Y-62136403D02*
G01*
X165881900Y-62135061D01*
X165907962Y-62145638D01*
X165935062Y-62153175D01*
X165943006Y-62159862D01*
X165946641Y-62161337D01*
X165953132Y-62168384D01*
X165962064Y-62175902D01*
X165967825Y-62182361D01*
X165998142Y-62227733D01*
X166085267Y-62314858D01*
X166085270Y-62314860D01*
X166092111Y-62321701D01*
X166781981Y-63011571D01*
X166815466Y-63072894D01*
X166818300Y-63099252D01*
X166818300Y-64709655D01*
X166798615Y-64776694D01*
X166745811Y-64822449D01*
X166718492Y-64831272D01*
X166600732Y-64854696D01*
X166600724Y-64854698D01*
X166436851Y-64922575D01*
X166436838Y-64922582D01*
X166289357Y-65021127D01*
X166289353Y-65021130D01*
X166163930Y-65146553D01*
X166163927Y-65146557D01*
X166065382Y-65294038D01*
X166065375Y-65294051D01*
X165997498Y-65457924D01*
X165997495Y-65457933D01*
X165962892Y-65631896D01*
X165962892Y-65809287D01*
X165997495Y-65983250D01*
X165997498Y-65983259D01*
X166065375Y-66147132D01*
X166065382Y-66147145D01*
X166163926Y-66294625D01*
X166163930Y-66294630D01*
X166289353Y-66420053D01*
X166289357Y-66420056D01*
X166436838Y-66518601D01*
X166436851Y-66518608D01*
X166502273Y-66545706D01*
X166600726Y-66586486D01*
X166600728Y-66586486D01*
X166600733Y-66586488D01*
X166774696Y-66621091D01*
X166774699Y-66621092D01*
X166774701Y-66621092D01*
X166952085Y-66621092D01*
X166952086Y-66621091D01*
X167010074Y-66609556D01*
X167126050Y-66586488D01*
X167126053Y-66586486D01*
X167126058Y-66586486D01*
X167289939Y-66518605D01*
X167324273Y-66495662D01*
X167390950Y-66474785D01*
X167458330Y-66493269D01*
X167462055Y-66495663D01*
X167518249Y-66533211D01*
X167518251Y-66533211D01*
X167518253Y-66533213D01*
X167682134Y-66601094D01*
X167682136Y-66601094D01*
X167682141Y-66601096D01*
X167856104Y-66635699D01*
X167856107Y-66635700D01*
X167856109Y-66635700D01*
X168033493Y-66635700D01*
X168033494Y-66635699D01*
X168106935Y-66621091D01*
X168207458Y-66601096D01*
X168207461Y-66601094D01*
X168207466Y-66601094D01*
X168371347Y-66533213D01*
X168518835Y-66434664D01*
X168644264Y-66309235D01*
X168742813Y-66161747D01*
X168810694Y-65997866D01*
X168813602Y-65983250D01*
X168844729Y-65826760D01*
X168845300Y-65823891D01*
X168845300Y-65646509D01*
X168845300Y-65646506D01*
X168845299Y-65646504D01*
X168810696Y-65472541D01*
X168810693Y-65472532D01*
X168742816Y-65308659D01*
X168742809Y-65308646D01*
X168644264Y-65161165D01*
X168644261Y-65161161D01*
X168606619Y-65123519D01*
X168573134Y-65062196D01*
X168570300Y-65035838D01*
X168570300Y-63200852D01*
X168589985Y-63133813D01*
X168606619Y-63113171D01*
X169421851Y-62297940D01*
X169421851Y-62297939D01*
X169421857Y-62297934D01*
X169429165Y-62286998D01*
X169482362Y-62207381D01*
X169535974Y-62162576D01*
X169605299Y-62153869D01*
X169641757Y-62165786D01*
X169731588Y-62211557D01*
X169933757Y-62277246D01*
X170143713Y-62310500D01*
X170143714Y-62310500D01*
X170356285Y-62310500D01*
X170356287Y-62310500D01*
X170441721Y-62296968D01*
X170472994Y-62301009D01*
X170504451Y-62303259D01*
X170507381Y-62305452D01*
X170511013Y-62305922D01*
X170535139Y-62326231D01*
X170560385Y-62345130D01*
X170561664Y-62348560D01*
X170564465Y-62350918D01*
X170573779Y-62381043D01*
X170584802Y-62410595D01*
X170584023Y-62414172D01*
X170585105Y-62417670D01*
X170576653Y-62448054D01*
X170569950Y-62478868D01*
X170566977Y-62482839D01*
X170566381Y-62484983D01*
X170548801Y-62507120D01*
X170380911Y-62675011D01*
X170331888Y-62724034D01*
X170269409Y-62786512D01*
X170181809Y-62917614D01*
X170181802Y-62917627D01*
X170121464Y-63063298D01*
X170121461Y-63063310D01*
X170090700Y-63217953D01*
X170090700Y-68258150D01*
X170071015Y-68325189D01*
X170018211Y-68370944D01*
X169986098Y-68380623D01*
X169864244Y-68399923D01*
X169662069Y-68465614D01*
X169472663Y-68562121D01*
X169300697Y-68687060D01*
X169150374Y-68837383D01*
X169025433Y-69009352D01*
X169020968Y-69018116D01*
X168972993Y-69068912D01*
X168905172Y-69085706D01*
X168839037Y-69063168D01*
X168800000Y-69018116D01*
X168795534Y-69009352D01*
X168670593Y-68837383D01*
X168520270Y-68687060D01*
X168348304Y-68562121D01*
X168158898Y-68465614D01*
X168158897Y-68465613D01*
X168158896Y-68465613D01*
X167956727Y-68399924D01*
X167956725Y-68399923D01*
X167956724Y-68399923D01*
X167795441Y-68374378D01*
X167746771Y-68366670D01*
X167534197Y-68366670D01*
X167493739Y-68373078D01*
X167324237Y-68399924D01*
X167308644Y-68404991D01*
X167238803Y-68406986D01*
X167182646Y-68374741D01*
X166679819Y-67871915D01*
X166669856Y-67861952D01*
X166669855Y-67861950D01*
X166582730Y-67774825D01*
X166531506Y-67740598D01*
X166480283Y-67706371D01*
X166480280Y-67706369D01*
X166480277Y-67706368D01*
X166407006Y-67676019D01*
X166407003Y-67676018D01*
X166399789Y-67673030D01*
X166366449Y-67659220D01*
X166294209Y-67644851D01*
X166289919Y-67643997D01*
X166289913Y-67643996D01*
X166258500Y-67637748D01*
X166245604Y-67635183D01*
X166245603Y-67635183D01*
X164662970Y-67635183D01*
X164595931Y-67615498D01*
X164575289Y-67598864D01*
X163634899Y-66658474D01*
X163601414Y-66597151D01*
X163606398Y-66527459D01*
X163634900Y-66483111D01*
X163678861Y-66439150D01*
X163678864Y-66439147D01*
X163777413Y-66291659D01*
X163845294Y-66127778D01*
X163847113Y-66118637D01*
X163874041Y-65983258D01*
X163879900Y-65953803D01*
X163879900Y-65776421D01*
X163879900Y-65776418D01*
X163879899Y-65776416D01*
X163845296Y-65602453D01*
X163845293Y-65602444D01*
X163836412Y-65581004D01*
X163794763Y-65480451D01*
X163777416Y-65438571D01*
X163777409Y-65438558D01*
X163678864Y-65291077D01*
X163678861Y-65291073D01*
X163553438Y-65165650D01*
X163553434Y-65165647D01*
X163405953Y-65067102D01*
X163405943Y-65067097D01*
X163322800Y-65032658D01*
X163268397Y-64988817D01*
X163246332Y-64922523D01*
X163263611Y-64854823D01*
X163282568Y-64830420D01*
X164254729Y-63858260D01*
X164254733Y-63858258D01*
X164341858Y-63771133D01*
X164383584Y-63708686D01*
X164410312Y-63668686D01*
X164457463Y-63554851D01*
X164481500Y-63434007D01*
X164481500Y-63310793D01*
X164481500Y-62326682D01*
X164501185Y-62259643D01*
X164553989Y-62213888D01*
X164623147Y-62203944D01*
X164646826Y-62210443D01*
X164646954Y-62210051D01*
X164651586Y-62211556D01*
X164651588Y-62211557D01*
X164853757Y-62277246D01*
X165063713Y-62310500D01*
X165063714Y-62310500D01*
X165276286Y-62310500D01*
X165276287Y-62310500D01*
X165486243Y-62277246D01*
X165688412Y-62211557D01*
X165813233Y-62147957D01*
X165840876Y-62142765D01*
X165867747Y-62134455D01*
X165874752Y-62136403D01*
G37*
%TD.AperFunction*%
%TA.AperFunction,Conductor*%
G36*
X161377226Y-59055524D02*
G01*
X161389810Y-59054985D01*
X161409674Y-59066581D01*
X161431444Y-59073999D01*
X161440719Y-59084703D01*
X161450151Y-59090209D01*
X161470486Y-59119056D01*
X161474951Y-59127820D01*
X161599890Y-59299786D01*
X161750213Y-59450109D01*
X161922179Y-59575048D01*
X161922181Y-59575049D01*
X161922184Y-59575051D01*
X161931493Y-59579794D01*
X161982290Y-59627766D01*
X161999087Y-59695587D01*
X161976552Y-59761722D01*
X161931505Y-59800760D01*
X161922446Y-59805376D01*
X161922440Y-59805380D01*
X161868282Y-59844727D01*
X161868282Y-59844728D01*
X162500591Y-60477037D01*
X162437007Y-60494075D01*
X162322993Y-60559901D01*
X162229901Y-60652993D01*
X162164075Y-60767007D01*
X162147037Y-60830591D01*
X161514728Y-60198282D01*
X161514727Y-60198282D01*
X161475380Y-60252440D01*
X161475376Y-60252446D01*
X161470760Y-60261505D01*
X161422781Y-60312297D01*
X161354959Y-60329087D01*
X161288826Y-60306543D01*
X161249794Y-60261493D01*
X161245051Y-60252184D01*
X161245049Y-60252181D01*
X161245048Y-60252179D01*
X161120109Y-60080213D01*
X160969786Y-59929890D01*
X160797820Y-59804951D01*
X160797115Y-59804591D01*
X160789054Y-59800485D01*
X160738259Y-59752512D01*
X160721463Y-59684692D01*
X160743999Y-59618556D01*
X160789054Y-59579515D01*
X160797816Y-59575051D01*
X160884138Y-59512335D01*
X160969786Y-59450109D01*
X160969788Y-59450106D01*
X160969792Y-59450104D01*
X161120104Y-59299792D01*
X161120106Y-59299788D01*
X161120109Y-59299786D01*
X161245048Y-59127820D01*
X161245047Y-59127820D01*
X161245051Y-59127816D01*
X161249514Y-59119054D01*
X161258160Y-59109900D01*
X161262897Y-59098232D01*
X161281696Y-59084979D01*
X161297488Y-59068259D01*
X161309710Y-59065231D01*
X161320004Y-59057976D01*
X161342985Y-59056991D01*
X161365308Y-59051463D01*
X161377226Y-59055524D01*
G37*
%TD.AperFunction*%
%TA.AperFunction,Conductor*%
G36*
X176445270Y-59181717D02*
G01*
X176445270Y-59181716D01*
X176484624Y-59127552D01*
X176511015Y-59075757D01*
X176558989Y-59024960D01*
X176626810Y-59008165D01*
X176692945Y-59030702D01*
X176736397Y-59085417D01*
X176745500Y-59132051D01*
X176745500Y-60246846D01*
X176725815Y-60313885D01*
X176673011Y-60359640D01*
X176603853Y-60369584D01*
X176540297Y-60340559D01*
X176511015Y-60303141D01*
X176493789Y-60269334D01*
X176485051Y-60252184D01*
X176466942Y-60227259D01*
X176360109Y-60080213D01*
X176209786Y-59929890D01*
X176037817Y-59804949D01*
X176028504Y-59800204D01*
X175977707Y-59752230D01*
X175960912Y-59684409D01*
X175983449Y-59618274D01*
X176028507Y-59579232D01*
X176037555Y-59574622D01*
X176091716Y-59535270D01*
X176091717Y-59535270D01*
X175459408Y-58902962D01*
X175522993Y-58885925D01*
X175637007Y-58820099D01*
X175730099Y-58727007D01*
X175795925Y-58612993D01*
X175812962Y-58549409D01*
X176445270Y-59181717D01*
G37*
%TD.AperFunction*%
%TA.AperFunction,Conductor*%
G36*
X159068418Y-59315417D02*
G01*
X159096673Y-59336569D01*
X159210213Y-59450109D01*
X159382182Y-59575050D01*
X159390946Y-59579516D01*
X159441742Y-59627491D01*
X159458536Y-59695312D01*
X159435998Y-59761447D01*
X159390946Y-59800484D01*
X159382182Y-59804949D01*
X159210213Y-59929890D01*
X159059890Y-60080213D01*
X158934949Y-60252182D01*
X158930484Y-60260946D01*
X158882509Y-60311742D01*
X158814688Y-60328536D01*
X158748553Y-60305998D01*
X158709516Y-60260946D01*
X158705050Y-60252182D01*
X158580109Y-60080213D01*
X158466569Y-59966673D01*
X158433084Y-59905350D01*
X158438068Y-59835658D01*
X158479940Y-59779725D01*
X158510915Y-59762810D01*
X158642331Y-59713796D01*
X158757546Y-59627546D01*
X158843796Y-59512331D01*
X158892810Y-59380916D01*
X158934681Y-59324984D01*
X159000145Y-59300566D01*
X159068418Y-59315417D01*
G37*
%TD.AperFunction*%
%TA.AperFunction,Conductor*%
G36*
X171591444Y-59073999D02*
G01*
X171630486Y-59119056D01*
X171634951Y-59127820D01*
X171759890Y-59299786D01*
X171910213Y-59450109D01*
X172082182Y-59575050D01*
X172090946Y-59579516D01*
X172141742Y-59627491D01*
X172158536Y-59695312D01*
X172135998Y-59761447D01*
X172090946Y-59800484D01*
X172082182Y-59804949D01*
X171910213Y-59929890D01*
X171759890Y-60080213D01*
X171634949Y-60252182D01*
X171630484Y-60260946D01*
X171582509Y-60311742D01*
X171514688Y-60328536D01*
X171448553Y-60305998D01*
X171409516Y-60260946D01*
X171405050Y-60252182D01*
X171280109Y-60080213D01*
X171129786Y-59929890D01*
X170957820Y-59804951D01*
X170957115Y-59804591D01*
X170949054Y-59800485D01*
X170898259Y-59752512D01*
X170881463Y-59684692D01*
X170903999Y-59618556D01*
X170949054Y-59579515D01*
X170957816Y-59575051D01*
X171044138Y-59512335D01*
X171129786Y-59450109D01*
X171129788Y-59450106D01*
X171129792Y-59450104D01*
X171280104Y-59299792D01*
X171280106Y-59299788D01*
X171280109Y-59299786D01*
X171405048Y-59127820D01*
X171405047Y-59127820D01*
X171405051Y-59127816D01*
X171409514Y-59119054D01*
X171457488Y-59068259D01*
X171525308Y-59051463D01*
X171591444Y-59073999D01*
G37*
%TD.AperFunction*%
%TA.AperFunction,Conductor*%
G36*
X174864075Y-58612993D02*
G01*
X174929901Y-58727007D01*
X175022993Y-58820099D01*
X175137007Y-58885925D01*
X175200590Y-58902962D01*
X174568282Y-59535269D01*
X174568282Y-59535270D01*
X174622452Y-59574626D01*
X174622451Y-59574626D01*
X174631495Y-59579234D01*
X174682292Y-59627208D01*
X174699087Y-59695029D01*
X174676550Y-59761164D01*
X174631499Y-59800202D01*
X174622182Y-59804949D01*
X174450213Y-59929890D01*
X174299890Y-60080213D01*
X174174949Y-60252182D01*
X174170484Y-60260946D01*
X174122509Y-60311742D01*
X174054688Y-60328536D01*
X173988553Y-60305998D01*
X173949516Y-60260946D01*
X173945050Y-60252182D01*
X173820109Y-60080213D01*
X173669786Y-59929890D01*
X173497820Y-59804951D01*
X173497115Y-59804591D01*
X173489054Y-59800485D01*
X173438259Y-59752512D01*
X173421463Y-59684692D01*
X173443999Y-59618556D01*
X173489054Y-59579515D01*
X173497816Y-59575051D01*
X173584138Y-59512335D01*
X173669786Y-59450109D01*
X173669788Y-59450106D01*
X173669792Y-59450104D01*
X173820104Y-59299792D01*
X173820106Y-59299788D01*
X173820109Y-59299786D01*
X173905890Y-59181717D01*
X173945051Y-59127816D01*
X173949793Y-59118508D01*
X173997763Y-59067711D01*
X174065583Y-59050911D01*
X174131719Y-59073445D01*
X174170763Y-59118500D01*
X174175373Y-59127547D01*
X174214728Y-59181716D01*
X174847036Y-58549407D01*
X174864075Y-58612993D01*
G37*
%TD.AperFunction*%
%TA.AperFunction,Conductor*%
G36*
X175510484Y-53287170D02*
G01*
X176158312Y-53287170D01*
X176158328Y-53287169D01*
X176217856Y-53280768D01*
X176217863Y-53280766D01*
X176352570Y-53230524D01*
X176352577Y-53230520D01*
X176467671Y-53144360D01*
X176467674Y-53144357D01*
X176522234Y-53071476D01*
X176578168Y-53029605D01*
X176647859Y-53024621D01*
X176709182Y-53058107D01*
X176742666Y-53119430D01*
X176745500Y-53145787D01*
X176745500Y-54989060D01*
X176725815Y-55056099D01*
X176709181Y-55076741D01*
X175980741Y-55805181D01*
X175919418Y-55838666D01*
X175893060Y-55841500D01*
X174073155Y-55841500D01*
X173918510Y-55872261D01*
X173918498Y-55872264D01*
X173772827Y-55932602D01*
X173772814Y-55932609D01*
X173641711Y-56020210D01*
X173641707Y-56020213D01*
X172603730Y-57058190D01*
X172542407Y-57091675D01*
X172535449Y-57092982D01*
X172473758Y-57102753D01*
X172271585Y-57168444D01*
X172082179Y-57264951D01*
X171910213Y-57389890D01*
X171759890Y-57540213D01*
X171634949Y-57712182D01*
X171630484Y-57720946D01*
X171582509Y-57771742D01*
X171514688Y-57788536D01*
X171448553Y-57765998D01*
X171409516Y-57720946D01*
X171405050Y-57712182D01*
X171280109Y-57540213D01*
X171129786Y-57389890D01*
X170957820Y-57264951D01*
X170768414Y-57168444D01*
X170768413Y-57168443D01*
X170768412Y-57168443D01*
X170566243Y-57102754D01*
X170566241Y-57102753D01*
X170566240Y-57102753D01*
X170404957Y-57077208D01*
X170356287Y-57069500D01*
X170143713Y-57069500D01*
X170095042Y-57077208D01*
X169933760Y-57102753D01*
X169731585Y-57168444D01*
X169542179Y-57264951D01*
X169370213Y-57389890D01*
X169219890Y-57540213D01*
X169094949Y-57712182D01*
X169090484Y-57720946D01*
X169042509Y-57771742D01*
X168974688Y-57788536D01*
X168908553Y-57765998D01*
X168869516Y-57720946D01*
X168865050Y-57712182D01*
X168740109Y-57540213D01*
X168589786Y-57389890D01*
X168417820Y-57264951D01*
X168228414Y-57168444D01*
X168228413Y-57168443D01*
X168228412Y-57168443D01*
X168026243Y-57102754D01*
X168026241Y-57102753D01*
X168026240Y-57102753D01*
X167864957Y-57077208D01*
X167816287Y-57069500D01*
X167603713Y-57069500D01*
X167555042Y-57077208D01*
X167393760Y-57102753D01*
X167191585Y-57168444D01*
X167002179Y-57264951D01*
X166830213Y-57389890D01*
X166679890Y-57540213D01*
X166554949Y-57712182D01*
X166550484Y-57720946D01*
X166502509Y-57771742D01*
X166434688Y-57788536D01*
X166368553Y-57765998D01*
X166329516Y-57720946D01*
X166325050Y-57712182D01*
X166200109Y-57540213D01*
X166049786Y-57389890D01*
X165877820Y-57264951D01*
X165688414Y-57168444D01*
X165688413Y-57168443D01*
X165688412Y-57168443D01*
X165486243Y-57102754D01*
X165486241Y-57102753D01*
X165486240Y-57102753D01*
X165324957Y-57077208D01*
X165276287Y-57069500D01*
X165063713Y-57069500D01*
X165015042Y-57077208D01*
X164853760Y-57102753D01*
X164651585Y-57168444D01*
X164462179Y-57264951D01*
X164290213Y-57389890D01*
X164139890Y-57540213D01*
X164014949Y-57712182D01*
X164010484Y-57720946D01*
X163962509Y-57771742D01*
X163894688Y-57788536D01*
X163828553Y-57765998D01*
X163789516Y-57720946D01*
X163785050Y-57712182D01*
X163660109Y-57540213D01*
X163509786Y-57389890D01*
X163337820Y-57264951D01*
X163148414Y-57168444D01*
X163148413Y-57168443D01*
X163148412Y-57168443D01*
X162946243Y-57102754D01*
X162946241Y-57102753D01*
X162946240Y-57102753D01*
X162784957Y-57077208D01*
X162736287Y-57069500D01*
X162523713Y-57069500D01*
X162475042Y-57077208D01*
X162313760Y-57102753D01*
X162111585Y-57168444D01*
X161922179Y-57264951D01*
X161750213Y-57389890D01*
X161599890Y-57540213D01*
X161474949Y-57712182D01*
X161470484Y-57720946D01*
X161422509Y-57771742D01*
X161354688Y-57788536D01*
X161288553Y-57765998D01*
X161249516Y-57720946D01*
X161245050Y-57712182D01*
X161120109Y-57540213D01*
X160969786Y-57389890D01*
X160797820Y-57264951D01*
X160608414Y-57168444D01*
X160608413Y-57168443D01*
X160608412Y-57168443D01*
X160406243Y-57102754D01*
X160406241Y-57102753D01*
X160406240Y-57102753D01*
X160244957Y-57077208D01*
X160196287Y-57069500D01*
X159983713Y-57069500D01*
X159935042Y-57077208D01*
X159773760Y-57102753D01*
X159571585Y-57168444D01*
X159382179Y-57264951D01*
X159210215Y-57389889D01*
X159096673Y-57503431D01*
X159061654Y-57522552D01*
X159035352Y-57536915D01*
X159035350Y-57536914D01*
X159035350Y-57536915D01*
X158965658Y-57531931D01*
X158927587Y-57503431D01*
X158909726Y-57490061D01*
X158892811Y-57459084D01*
X158876679Y-57415834D01*
X158871693Y-57346142D01*
X158905178Y-57284819D01*
X158923969Y-57269397D01*
X158930626Y-57264949D01*
X159052919Y-57183235D01*
X159178348Y-57057806D01*
X159276897Y-56910318D01*
X159344778Y-56746437D01*
X159379384Y-56572462D01*
X159379384Y-56519223D01*
X159399069Y-56452184D01*
X159415703Y-56431542D01*
X161235826Y-54611419D01*
X161297149Y-54577934D01*
X161323507Y-54575100D01*
X163149661Y-54575100D01*
X163210083Y-54563081D01*
X163270506Y-54551063D01*
X163303846Y-54537252D01*
X163384340Y-54503912D01*
X163435563Y-54469684D01*
X163486787Y-54435458D01*
X163573912Y-54348333D01*
X163573913Y-54348331D01*
X163580979Y-54341265D01*
X163580982Y-54341261D01*
X164642646Y-53279596D01*
X164703967Y-53246113D01*
X164768646Y-53249349D01*
X164784241Y-53254416D01*
X164994197Y-53287670D01*
X164994198Y-53287670D01*
X165206770Y-53287670D01*
X165206771Y-53287670D01*
X165416727Y-53254416D01*
X165618896Y-53188727D01*
X165808300Y-53092221D01*
X165855254Y-53058107D01*
X165980270Y-52967279D01*
X165980272Y-52967276D01*
X165980276Y-52967274D01*
X166130588Y-52816962D01*
X166130590Y-52816958D01*
X166130593Y-52816956D01*
X166255532Y-52644990D01*
X166255531Y-52644990D01*
X166255535Y-52644986D01*
X166259998Y-52636224D01*
X166307972Y-52585429D01*
X166375792Y-52568633D01*
X166441928Y-52591169D01*
X166480970Y-52636226D01*
X166485435Y-52644990D01*
X166610374Y-52816956D01*
X166760697Y-52967279D01*
X166932663Y-53092218D01*
X166932665Y-53092219D01*
X166932668Y-53092221D01*
X166986069Y-53119430D01*
X167122067Y-53188725D01*
X167122069Y-53188725D01*
X167122072Y-53188727D01*
X167324241Y-53254416D01*
X167367099Y-53261204D01*
X167430231Y-53291130D01*
X167467163Y-53350441D01*
X167471700Y-53383676D01*
X167471700Y-54548889D01*
X167452015Y-54615928D01*
X167399211Y-54661683D01*
X167395154Y-54663450D01*
X167365852Y-54675587D01*
X167365846Y-54675590D01*
X167218365Y-54774135D01*
X167218361Y-54774138D01*
X167092938Y-54899561D01*
X167092935Y-54899565D01*
X166994390Y-55047046D01*
X166994383Y-55047059D01*
X166926506Y-55210932D01*
X166926503Y-55210941D01*
X166891900Y-55384904D01*
X166891900Y-55562295D01*
X166926503Y-55736258D01*
X166926506Y-55736267D01*
X166994383Y-55900140D01*
X166994390Y-55900153D01*
X167092935Y-56047634D01*
X167092938Y-56047638D01*
X167218361Y-56173061D01*
X167218365Y-56173064D01*
X167365846Y-56271609D01*
X167365859Y-56271616D01*
X167488680Y-56322489D01*
X167529734Y-56339494D01*
X167529736Y-56339494D01*
X167529741Y-56339496D01*
X167703704Y-56374099D01*
X167703707Y-56374100D01*
X167703709Y-56374100D01*
X167881093Y-56374100D01*
X167881094Y-56374099D01*
X167939082Y-56362564D01*
X168055058Y-56339496D01*
X168055061Y-56339494D01*
X168055066Y-56339494D01*
X168218947Y-56271613D01*
X168366435Y-56173064D01*
X168491864Y-56047635D01*
X168590413Y-55900147D01*
X168658294Y-55736266D01*
X168660736Y-55723992D01*
X168692899Y-55562295D01*
X168692900Y-55562293D01*
X168692900Y-55388643D01*
X168697558Y-55357245D01*
X168697474Y-55357229D01*
X168697815Y-55355510D01*
X168698242Y-55352638D01*
X168698659Y-55351260D01*
X168698663Y-55351252D01*
X168722700Y-55230406D01*
X168722700Y-52785524D01*
X168728233Y-52766678D01*
X168728822Y-52747043D01*
X168741012Y-52723160D01*
X168742385Y-52718485D01*
X168744438Y-52715392D01*
X168745378Y-52714020D01*
X168795535Y-52644986D01*
X168803661Y-52629036D01*
X168808222Y-52622387D01*
X168829299Y-52605200D01*
X168847972Y-52585429D01*
X168855978Y-52583446D01*
X168862372Y-52578233D01*
X168889396Y-52575169D01*
X168915792Y-52568633D01*
X168923599Y-52571293D01*
X168931798Y-52570364D01*
X168956189Y-52582398D01*
X168981928Y-52591169D01*
X168987874Y-52598031D01*
X168994456Y-52601279D01*
X169002991Y-52615477D01*
X169020970Y-52636226D01*
X169025435Y-52644990D01*
X169150374Y-52816956D01*
X169300697Y-52967279D01*
X169472663Y-53092218D01*
X169472665Y-53092219D01*
X169472668Y-53092221D01*
X169662072Y-53188727D01*
X169864241Y-53254416D01*
X170074197Y-53287670D01*
X170074198Y-53287670D01*
X170286770Y-53287670D01*
X170286771Y-53287670D01*
X170496727Y-53254416D01*
X170698896Y-53188727D01*
X170888300Y-53092221D01*
X170935254Y-53058107D01*
X171060270Y-52967279D01*
X171060272Y-52967276D01*
X171060276Y-52967274D01*
X171210588Y-52816962D01*
X171210590Y-52816958D01*
X171210593Y-52816956D01*
X171335532Y-52644990D01*
X171335531Y-52644990D01*
X171335535Y-52644986D01*
X171339998Y-52636224D01*
X171387972Y-52585429D01*
X171455792Y-52568633D01*
X171521928Y-52591169D01*
X171560970Y-52636226D01*
X171565435Y-52644990D01*
X171690374Y-52816956D01*
X171840697Y-52967279D01*
X172012663Y-53092218D01*
X172012665Y-53092219D01*
X172012668Y-53092221D01*
X172202072Y-53188727D01*
X172404241Y-53254416D01*
X172614197Y-53287670D01*
X172614198Y-53287670D01*
X172826770Y-53287670D01*
X172826771Y-53287670D01*
X173036727Y-53254416D01*
X173238896Y-53188727D01*
X173428300Y-53092221D01*
X173589064Y-52975420D01*
X173600268Y-52967280D01*
X173600268Y-52967279D01*
X173600276Y-52967274D01*
X173714201Y-52853348D01*
X173775520Y-52819866D01*
X173845212Y-52824850D01*
X173901146Y-52866721D01*
X173918061Y-52897698D01*
X173967130Y-53029258D01*
X173967133Y-53029263D01*
X174053293Y-53144357D01*
X174053296Y-53144360D01*
X174168390Y-53230520D01*
X174168397Y-53230524D01*
X174303104Y-53280766D01*
X174303111Y-53280768D01*
X174362639Y-53287169D01*
X174362656Y-53287170D01*
X175010484Y-53287170D01*
X175010484Y-52370182D01*
X175067491Y-52403095D01*
X175194658Y-52437170D01*
X175326310Y-52437170D01*
X175453477Y-52403095D01*
X175510484Y-52370182D01*
X175510484Y-53287170D01*
G37*
%TD.AperFunction*%
%TA.AperFunction,Conductor*%
G36*
X145150000Y-57733811D02*
G01*
X145124116Y-57707927D01*
X145040885Y-57659874D01*
X144948053Y-57635000D01*
X144851947Y-57635000D01*
X144759115Y-57659874D01*
X144675884Y-57707927D01*
X144650000Y-57733811D01*
X144650000Y-56766189D01*
X144675884Y-56792073D01*
X144759115Y-56840126D01*
X144851947Y-56865000D01*
X144948053Y-56865000D01*
X145040885Y-56840126D01*
X145124116Y-56792073D01*
X145150000Y-56766189D01*
X145150000Y-57733811D01*
G37*
%TD.AperFunction*%
%TA.AperFunction,Conductor*%
G36*
X156738942Y-49642185D02*
G01*
X156759584Y-49658819D01*
X157475753Y-50374989D01*
X157509238Y-50436312D01*
X157504254Y-50506004D01*
X157462382Y-50561937D01*
X157396918Y-50586354D01*
X157388072Y-50586670D01*
X157374197Y-50586670D01*
X157325526Y-50594378D01*
X157164244Y-50619923D01*
X156962069Y-50685614D01*
X156772663Y-50782121D01*
X156600697Y-50907060D01*
X156450374Y-51057383D01*
X156325435Y-51229349D01*
X156228928Y-51418755D01*
X156163237Y-51620930D01*
X156153093Y-51684980D01*
X156129984Y-51830883D01*
X156129984Y-52043457D01*
X156134185Y-52069982D01*
X156154334Y-52197200D01*
X156163238Y-52253413D01*
X156216649Y-52417795D01*
X156228928Y-52455584D01*
X156325435Y-52644990D01*
X156450374Y-52816956D01*
X156600697Y-52967279D01*
X156772663Y-53092218D01*
X156772665Y-53092219D01*
X156772668Y-53092221D01*
X156962072Y-53188727D01*
X157164241Y-53254416D01*
X157374197Y-53287670D01*
X157374198Y-53287670D01*
X157486031Y-53287670D01*
X157553070Y-53307355D01*
X157598825Y-53360159D01*
X157608769Y-53429317D01*
X157579744Y-53492873D01*
X157573712Y-53499351D01*
X155659681Y-55413382D01*
X155598358Y-55446867D01*
X155528666Y-55441883D01*
X155472733Y-55400011D01*
X155448316Y-55334547D01*
X155448000Y-55325701D01*
X155448000Y-49746500D01*
X155467685Y-49679461D01*
X155520489Y-49633706D01*
X155572000Y-49622500D01*
X156671903Y-49622500D01*
X156738942Y-49642185D01*
G37*
%TD.AperFunction*%
%TA.AperFunction,Conductor*%
G36*
X160545226Y-45491924D02*
G01*
X160557810Y-45491385D01*
X160577674Y-45502981D01*
X160599444Y-45510399D01*
X160608719Y-45521103D01*
X160618151Y-45526609D01*
X160638484Y-45555453D01*
X160638694Y-45555865D01*
X160642951Y-45564220D01*
X160767890Y-45736186D01*
X160918213Y-45886509D01*
X161090181Y-46011450D01*
X161104792Y-46018894D01*
X161155589Y-46066867D01*
X161172500Y-46129380D01*
X161172500Y-48667238D01*
X161152815Y-48734277D01*
X161136181Y-48754919D01*
X161100538Y-48790561D01*
X161100535Y-48790565D01*
X161001990Y-48938046D01*
X161001983Y-48938059D01*
X160934106Y-49101932D01*
X160934103Y-49101941D01*
X160899500Y-49275904D01*
X160899500Y-49390100D01*
X160879815Y-49457139D01*
X160827011Y-49502894D01*
X160775500Y-49514100D01*
X160207681Y-49514100D01*
X160140642Y-49494415D01*
X160094887Y-49441611D01*
X160083681Y-49390100D01*
X160083681Y-49222906D01*
X160083680Y-49222904D01*
X160049077Y-49048941D01*
X160049074Y-49048932D01*
X159981194Y-48885053D01*
X159981192Y-48885051D01*
X159981192Y-48885049D01*
X159904398Y-48770119D01*
X159883520Y-48703441D01*
X159883500Y-48701228D01*
X159883500Y-46129380D01*
X159903185Y-46062341D01*
X159951208Y-46018894D01*
X159965818Y-46011450D01*
X160137786Y-45886509D01*
X160137788Y-45886506D01*
X160137792Y-45886504D01*
X160288104Y-45736192D01*
X160288106Y-45736188D01*
X160288109Y-45736186D01*
X160413048Y-45564220D01*
X160413047Y-45564220D01*
X160413051Y-45564216D01*
X160417514Y-45555454D01*
X160426160Y-45546300D01*
X160430897Y-45534632D01*
X160449696Y-45521379D01*
X160465488Y-45504659D01*
X160477710Y-45501631D01*
X160488004Y-45494376D01*
X160510985Y-45493391D01*
X160533308Y-45487863D01*
X160545226Y-45491924D01*
G37*
%TD.AperFunction*%
%TA.AperFunction,Conductor*%
G36*
X178003736Y-42500726D02*
G01*
X178293796Y-42518271D01*
X178308659Y-42520076D01*
X178590798Y-42571780D01*
X178605335Y-42575363D01*
X178879172Y-42660695D01*
X178893163Y-42666000D01*
X179154743Y-42783727D01*
X179167989Y-42790680D01*
X179413465Y-42939075D01*
X179425776Y-42947573D01*
X179651573Y-43124473D01*
X179662781Y-43134403D01*
X179865596Y-43337218D01*
X179875526Y-43348426D01*
X180004305Y-43512801D01*
X180052422Y-43574217D01*
X180060926Y-43586537D01*
X180130590Y-43701775D01*
X180209316Y-43832004D01*
X180216275Y-43845263D01*
X180333997Y-44106831D01*
X180339306Y-44120832D01*
X180424635Y-44394663D01*
X180428219Y-44409201D01*
X180479923Y-44691340D01*
X180481728Y-44706205D01*
X180499274Y-44996263D01*
X180499500Y-45003750D01*
X180499500Y-88996249D01*
X180499274Y-89003736D01*
X180481728Y-89293794D01*
X180479923Y-89308659D01*
X180428219Y-89590798D01*
X180424635Y-89605336D01*
X180339306Y-89879167D01*
X180333997Y-89893168D01*
X180216275Y-90154736D01*
X180209316Y-90167995D01*
X180060928Y-90413459D01*
X180052422Y-90425782D01*
X179875526Y-90651573D01*
X179865596Y-90662781D01*
X179662781Y-90865596D01*
X179651573Y-90875526D01*
X179425782Y-91052422D01*
X179413459Y-91060928D01*
X179167995Y-91209316D01*
X179154736Y-91216275D01*
X178893168Y-91333997D01*
X178879167Y-91339306D01*
X178605336Y-91424635D01*
X178590798Y-91428219D01*
X178308659Y-91479923D01*
X178293794Y-91481728D01*
X178003736Y-91499274D01*
X177996249Y-91499500D01*
X94003751Y-91499500D01*
X93996264Y-91499274D01*
X93706205Y-91481728D01*
X93691340Y-91479923D01*
X93409201Y-91428219D01*
X93394663Y-91424635D01*
X93120832Y-91339306D01*
X93106831Y-91333997D01*
X92845263Y-91216275D01*
X92832004Y-91209316D01*
X92586540Y-91060928D01*
X92574217Y-91052422D01*
X92348426Y-90875526D01*
X92337218Y-90865596D01*
X92134403Y-90662781D01*
X92124473Y-90651573D01*
X91947573Y-90425776D01*
X91939075Y-90413465D01*
X91790680Y-90167989D01*
X91783727Y-90154743D01*
X91666000Y-89893163D01*
X91660693Y-89879167D01*
X91575364Y-89605336D01*
X91571780Y-89590798D01*
X91520076Y-89308659D01*
X91518271Y-89293794D01*
X91509361Y-89146500D01*
X91500726Y-89003736D01*
X91500500Y-88996249D01*
X91500500Y-83650000D01*
X92310725Y-83650000D01*
X93164580Y-83650000D01*
X93147363Y-83659940D01*
X93091508Y-83715795D01*
X93052012Y-83784204D01*
X93031568Y-83860504D01*
X93031568Y-83939496D01*
X93052012Y-84015796D01*
X93091508Y-84084205D01*
X93147363Y-84140060D01*
X93164580Y-84150000D01*
X92310725Y-84150000D01*
X92321918Y-84206274D01*
X92321919Y-84206276D01*
X92401068Y-84397358D01*
X92401073Y-84397368D01*
X92515978Y-84569335D01*
X92515981Y-84569339D01*
X92662228Y-84715586D01*
X92662232Y-84715589D01*
X92834199Y-84830494D01*
X92834209Y-84830499D01*
X93025293Y-84909649D01*
X93025301Y-84909651D01*
X93228147Y-84949999D01*
X93228151Y-84950000D01*
X93381568Y-84950000D01*
X93381568Y-84200000D01*
X93881568Y-84200000D01*
X93881568Y-84950000D01*
X94034985Y-84950000D01*
X94034988Y-84949999D01*
X94237834Y-84909651D01*
X94237842Y-84909649D01*
X94428926Y-84830499D01*
X94428936Y-84830494D01*
X94600903Y-84715589D01*
X94600907Y-84715586D01*
X94747154Y-84569339D01*
X94747157Y-84569335D01*
X94862062Y-84397368D01*
X94862067Y-84397358D01*
X94941216Y-84206276D01*
X94941217Y-84206274D01*
X94952411Y-84150000D01*
X94098556Y-84150000D01*
X94115773Y-84140060D01*
X94171628Y-84084205D01*
X94211124Y-84015796D01*
X94231568Y-83939496D01*
X94231568Y-83860504D01*
X94211124Y-83784204D01*
X94171628Y-83715795D01*
X94115773Y-83659940D01*
X94098556Y-83650000D01*
X94952411Y-83650000D01*
X96110725Y-83650000D01*
X96964580Y-83650000D01*
X96947363Y-83659940D01*
X96891508Y-83715795D01*
X96852012Y-83784204D01*
X96831568Y-83860504D01*
X96831568Y-83939496D01*
X96852012Y-84015796D01*
X96891508Y-84084205D01*
X96947363Y-84140060D01*
X96964580Y-84150000D01*
X96110725Y-84150000D01*
X96121918Y-84206274D01*
X96121919Y-84206276D01*
X96201068Y-84397358D01*
X96201073Y-84397368D01*
X96315978Y-84569335D01*
X96315981Y-84569339D01*
X96462228Y-84715586D01*
X96462232Y-84715589D01*
X96634199Y-84830494D01*
X96634209Y-84830499D01*
X96825293Y-84909649D01*
X96825301Y-84909651D01*
X97028147Y-84949999D01*
X97028151Y-84950000D01*
X97181568Y-84950000D01*
X97181568Y-84200000D01*
X97681568Y-84200000D01*
X97681568Y-84950000D01*
X97834985Y-84950000D01*
X97834988Y-84949999D01*
X98037834Y-84909651D01*
X98037842Y-84909649D01*
X98228926Y-84830499D01*
X98228936Y-84830494D01*
X98400903Y-84715589D01*
X98400907Y-84715586D01*
X98547154Y-84569339D01*
X98547157Y-84569335D01*
X98662062Y-84397368D01*
X98662067Y-84397358D01*
X98741216Y-84206276D01*
X98741217Y-84206274D01*
X98752411Y-84150000D01*
X97898556Y-84150000D01*
X97915773Y-84140060D01*
X97971628Y-84084205D01*
X98011124Y-84015796D01*
X98031568Y-83939496D01*
X98031568Y-83860504D01*
X98011124Y-83784204D01*
X97971628Y-83715795D01*
X97915773Y-83659940D01*
X97898556Y-83650000D01*
X98752411Y-83650000D01*
X98741217Y-83593725D01*
X98741216Y-83593723D01*
X98662067Y-83402641D01*
X98662062Y-83402631D01*
X98547157Y-83230664D01*
X98547154Y-83230660D01*
X98400907Y-83084413D01*
X98400903Y-83084410D01*
X98228936Y-82969505D01*
X98228926Y-82969500D01*
X98037842Y-82890350D01*
X98037834Y-82890348D01*
X97834988Y-82850000D01*
X97681568Y-82850000D01*
X97681568Y-83600000D01*
X97181568Y-83600000D01*
X97181568Y-82850000D01*
X97028147Y-82850000D01*
X96825301Y-82890348D01*
X96825293Y-82890350D01*
X96634209Y-82969500D01*
X96634199Y-82969505D01*
X96462232Y-83084410D01*
X96462228Y-83084413D01*
X96315981Y-83230660D01*
X96315978Y-83230664D01*
X96201073Y-83402631D01*
X96201068Y-83402641D01*
X96121919Y-83593723D01*
X96121918Y-83593725D01*
X96110725Y-83650000D01*
X94952411Y-83650000D01*
X94941217Y-83593725D01*
X94941216Y-83593723D01*
X94862067Y-83402641D01*
X94862062Y-83402631D01*
X94747157Y-83230664D01*
X94747154Y-83230660D01*
X94600907Y-83084413D01*
X94600903Y-83084410D01*
X94428936Y-82969505D01*
X94428926Y-82969500D01*
X94237842Y-82890350D01*
X94237834Y-82890348D01*
X94034988Y-82850000D01*
X93881568Y-82850000D01*
X93881568Y-83600000D01*
X93381568Y-83600000D01*
X93381568Y-82850000D01*
X93228147Y-82850000D01*
X93025301Y-82890348D01*
X93025293Y-82890350D01*
X92834209Y-82969500D01*
X92834199Y-82969505D01*
X92662232Y-83084410D01*
X92662228Y-83084413D01*
X92515981Y-83230660D01*
X92515978Y-83230664D01*
X92401073Y-83402631D01*
X92401068Y-83402641D01*
X92321919Y-83593723D01*
X92321918Y-83593725D01*
X92310725Y-83650000D01*
X91500500Y-83650000D01*
X91500500Y-82702135D01*
X104449500Y-82702135D01*
X104449500Y-84497870D01*
X104449501Y-84497876D01*
X104455908Y-84557483D01*
X104506202Y-84692328D01*
X104506206Y-84692335D01*
X104592452Y-84807544D01*
X104592455Y-84807547D01*
X104707664Y-84893793D01*
X104707671Y-84893797D01*
X104735708Y-84904254D01*
X104842517Y-84944091D01*
X104902127Y-84950500D01*
X104912685Y-84950499D01*
X104979723Y-84970179D01*
X105000372Y-84986818D01*
X105670591Y-85657037D01*
X105607007Y-85674075D01*
X105492993Y-85739901D01*
X105399901Y-85832993D01*
X105334075Y-85947007D01*
X105317037Y-86010591D01*
X104684728Y-85378282D01*
X104684727Y-85378282D01*
X104645380Y-85432439D01*
X104548904Y-85621782D01*
X104483242Y-85823869D01*
X104483242Y-85823872D01*
X104450000Y-86033753D01*
X104450000Y-86246246D01*
X104483242Y-86456127D01*
X104483242Y-86456130D01*
X104548904Y-86658217D01*
X104645375Y-86847550D01*
X104684728Y-86901716D01*
X105317037Y-86269408D01*
X105334075Y-86332993D01*
X105399901Y-86447007D01*
X105492993Y-86540099D01*
X105607007Y-86605925D01*
X105670590Y-86622962D01*
X105038282Y-87255269D01*
X105038282Y-87255270D01*
X105092449Y-87294624D01*
X105281782Y-87391095D01*
X105483870Y-87456757D01*
X105693754Y-87490000D01*
X105906246Y-87490000D01*
X106116127Y-87456757D01*
X106116130Y-87456757D01*
X106318217Y-87391095D01*
X106507554Y-87294622D01*
X106561716Y-87255270D01*
X106561717Y-87255270D01*
X105929408Y-86622962D01*
X105992993Y-86605925D01*
X106107007Y-86540099D01*
X106200099Y-86447007D01*
X106265925Y-86332993D01*
X106282962Y-86269409D01*
X106915270Y-86901717D01*
X106915270Y-86901716D01*
X106954622Y-86847554D01*
X107051095Y-86658217D01*
X107116757Y-86456130D01*
X107116757Y-86456127D01*
X107150000Y-86246246D01*
X107150000Y-86033753D01*
X107116757Y-85823872D01*
X107116757Y-85823869D01*
X107051095Y-85621782D01*
X106954624Y-85432449D01*
X106915270Y-85378282D01*
X106915269Y-85378282D01*
X106282962Y-86010590D01*
X106265925Y-85947007D01*
X106200099Y-85832993D01*
X106107007Y-85739901D01*
X105992993Y-85674075D01*
X105929409Y-85657037D01*
X106599627Y-84986818D01*
X106660950Y-84953333D01*
X106687307Y-84950499D01*
X106697872Y-84950499D01*
X106757483Y-84944091D01*
X106892331Y-84893796D01*
X107007546Y-84807546D01*
X107093796Y-84692331D01*
X107144091Y-84557483D01*
X107150500Y-84497873D01*
X107150499Y-82827135D01*
X119239500Y-82827135D01*
X119239500Y-84622870D01*
X119239501Y-84622876D01*
X119245908Y-84682483D01*
X119296202Y-84817328D01*
X119296206Y-84817335D01*
X119382452Y-84932544D01*
X119382455Y-84932547D01*
X119497664Y-85018793D01*
X119497671Y-85018797D01*
X119542618Y-85035561D01*
X119632517Y-85069091D01*
X119692127Y-85075500D01*
X119702685Y-85075499D01*
X119769723Y-85095179D01*
X119790372Y-85111818D01*
X120460591Y-85782037D01*
X120397007Y-85799075D01*
X120282993Y-85864901D01*
X120189901Y-85957993D01*
X120124075Y-86072007D01*
X120107037Y-86135591D01*
X119474728Y-85503282D01*
X119474727Y-85503282D01*
X119435380Y-85557439D01*
X119338904Y-85746782D01*
X119273242Y-85948869D01*
X119273242Y-85948872D01*
X119240000Y-86158753D01*
X119240000Y-86371246D01*
X119273242Y-86581127D01*
X119273242Y-86581130D01*
X119338904Y-86783217D01*
X119435375Y-86972550D01*
X119474728Y-87026716D01*
X120107037Y-86394408D01*
X120124075Y-86457993D01*
X120189901Y-86572007D01*
X120282993Y-86665099D01*
X120397007Y-86730925D01*
X120460590Y-86747962D01*
X119828282Y-87380269D01*
X119828282Y-87380270D01*
X119882449Y-87419624D01*
X120071782Y-87516095D01*
X120273870Y-87581757D01*
X120483754Y-87615000D01*
X120696246Y-87615000D01*
X120906127Y-87581757D01*
X120906130Y-87581757D01*
X121108217Y-87516095D01*
X121297554Y-87419622D01*
X121351716Y-87380270D01*
X121351717Y-87380270D01*
X120719408Y-86747962D01*
X120782993Y-86730925D01*
X120897007Y-86665099D01*
X120990099Y-86572007D01*
X121055925Y-86457993D01*
X121072962Y-86394408D01*
X121705270Y-87026717D01*
X121705270Y-87026716D01*
X121744622Y-86972554D01*
X121841095Y-86783217D01*
X121906757Y-86581130D01*
X121906757Y-86581127D01*
X121940000Y-86371246D01*
X121940000Y-86158753D01*
X121906757Y-85948872D01*
X121906757Y-85948869D01*
X121841095Y-85746782D01*
X121744624Y-85557449D01*
X121705270Y-85503282D01*
X121705269Y-85503282D01*
X121072962Y-86135590D01*
X121055925Y-86072007D01*
X120990099Y-85957993D01*
X120897007Y-85864901D01*
X120782993Y-85799075D01*
X120719409Y-85782037D01*
X121389627Y-85111818D01*
X121450950Y-85078333D01*
X121477307Y-85075499D01*
X121487872Y-85075499D01*
X121547483Y-85069091D01*
X121682331Y-85018796D01*
X121797546Y-84932546D01*
X121883796Y-84817331D01*
X121934091Y-84682483D01*
X121940500Y-84622873D01*
X121940499Y-82827128D01*
X121934091Y-82767517D01*
X121928414Y-82752297D01*
X121883797Y-82632671D01*
X121883793Y-82632664D01*
X121797547Y-82517455D01*
X121797544Y-82517452D01*
X121682335Y-82431206D01*
X121682328Y-82431202D01*
X121547482Y-82380908D01*
X121547483Y-82380908D01*
X121487883Y-82374501D01*
X121487881Y-82374500D01*
X121487873Y-82374500D01*
X121487864Y-82374500D01*
X119692129Y-82374500D01*
X119692123Y-82374501D01*
X119632516Y-82380908D01*
X119497671Y-82431202D01*
X119497664Y-82431206D01*
X119382455Y-82517452D01*
X119382452Y-82517455D01*
X119296206Y-82632664D01*
X119296202Y-82632671D01*
X119245908Y-82767517D01*
X119239501Y-82827116D01*
X119239501Y-82827123D01*
X119239500Y-82827135D01*
X107150499Y-82827135D01*
X107150499Y-82702128D01*
X107144091Y-82642517D01*
X107139422Y-82630000D01*
X107093797Y-82507671D01*
X107093793Y-82507664D01*
X107007547Y-82392455D01*
X107007544Y-82392452D01*
X106892335Y-82306206D01*
X106892328Y-82306202D01*
X106757482Y-82255908D01*
X106757483Y-82255908D01*
X106697883Y-82249501D01*
X106697881Y-82249500D01*
X106697873Y-82249500D01*
X106697864Y-82249500D01*
X104902129Y-82249500D01*
X104902123Y-82249501D01*
X104842516Y-82255908D01*
X104707671Y-82306202D01*
X104707664Y-82306206D01*
X104592455Y-82392452D01*
X104592452Y-82392455D01*
X104506206Y-82507664D01*
X104506202Y-82507671D01*
X104455908Y-82642517D01*
X104452707Y-82672295D01*
X104449501Y-82702123D01*
X104449500Y-82702135D01*
X91500500Y-82702135D01*
X91500500Y-75010000D01*
X92310725Y-75010000D01*
X93164580Y-75010000D01*
X93147363Y-75019940D01*
X93091508Y-75075795D01*
X93052012Y-75144204D01*
X93031568Y-75220504D01*
X93031568Y-75299496D01*
X93052012Y-75375796D01*
X93091508Y-75444205D01*
X93147363Y-75500060D01*
X93164580Y-75510000D01*
X92310725Y-75510000D01*
X92321918Y-75566274D01*
X92321919Y-75566276D01*
X92401068Y-75757358D01*
X92401073Y-75757368D01*
X92515978Y-75929335D01*
X92515981Y-75929339D01*
X92662228Y-76075586D01*
X92662232Y-76075589D01*
X92834199Y-76190494D01*
X92834209Y-76190499D01*
X93025293Y-76269649D01*
X93025301Y-76269651D01*
X93228147Y-76309999D01*
X93228151Y-76310000D01*
X93381568Y-76310000D01*
X93381568Y-75560000D01*
X93881568Y-75560000D01*
X93881568Y-76310000D01*
X94034985Y-76310000D01*
X94034988Y-76309999D01*
X94237834Y-76269651D01*
X94237842Y-76269649D01*
X94428926Y-76190499D01*
X94428936Y-76190494D01*
X94600903Y-76075589D01*
X94600907Y-76075586D01*
X94747154Y-75929339D01*
X94747157Y-75929335D01*
X94862062Y-75757368D01*
X94862067Y-75757358D01*
X94941216Y-75566276D01*
X94941217Y-75566274D01*
X94952411Y-75510000D01*
X94098556Y-75510000D01*
X94115773Y-75500060D01*
X94171628Y-75444205D01*
X94211124Y-75375796D01*
X94231568Y-75299496D01*
X94231568Y-75220504D01*
X94211124Y-75144204D01*
X94171628Y-75075795D01*
X94115773Y-75019940D01*
X94098556Y-75010000D01*
X94952411Y-75010000D01*
X96110725Y-75010000D01*
X96964580Y-75010000D01*
X96947363Y-75019940D01*
X96891508Y-75075795D01*
X96852012Y-75144204D01*
X96831568Y-75220504D01*
X96831568Y-75299496D01*
X96852012Y-75375796D01*
X96891508Y-75444205D01*
X96947363Y-75500060D01*
X96964580Y-75510000D01*
X96110725Y-75510000D01*
X96121918Y-75566274D01*
X96121919Y-75566276D01*
X96201068Y-75757358D01*
X96201073Y-75757368D01*
X96315978Y-75929335D01*
X96315981Y-75929339D01*
X96462228Y-76075586D01*
X96462232Y-76075589D01*
X96634199Y-76190494D01*
X96634209Y-76190499D01*
X96825293Y-76269649D01*
X96825301Y-76269651D01*
X97028147Y-76309999D01*
X97028151Y-76310000D01*
X97181568Y-76310000D01*
X97181568Y-75560000D01*
X97681568Y-75560000D01*
X97681568Y-76310000D01*
X97834985Y-76310000D01*
X97834988Y-76309999D01*
X98037834Y-76269651D01*
X98037842Y-76269649D01*
X98228926Y-76190499D01*
X98228936Y-76190494D01*
X98400903Y-76075589D01*
X98400907Y-76075586D01*
X98547154Y-75929339D01*
X98547157Y-75929335D01*
X98662062Y-75757368D01*
X98662067Y-75757358D01*
X98741216Y-75566276D01*
X98741217Y-75566274D01*
X98752411Y-75510000D01*
X97898556Y-75510000D01*
X97915773Y-75500060D01*
X97971628Y-75444205D01*
X98011124Y-75375796D01*
X98031568Y-75299496D01*
X98031568Y-75220504D01*
X98011124Y-75144204D01*
X97971628Y-75075795D01*
X97915773Y-75019940D01*
X97898556Y-75010000D01*
X98752411Y-75010000D01*
X98741217Y-74953725D01*
X98741216Y-74953723D01*
X98662067Y-74762641D01*
X98662062Y-74762631D01*
X98547157Y-74590664D01*
X98547154Y-74590660D01*
X98400907Y-74444413D01*
X98400903Y-74444410D01*
X98228936Y-74329505D01*
X98228926Y-74329500D01*
X98037842Y-74250350D01*
X98037834Y-74250348D01*
X97834988Y-74210000D01*
X97681568Y-74210000D01*
X97681568Y-74960000D01*
X97181568Y-74960000D01*
X97181568Y-74210000D01*
X97028147Y-74210000D01*
X96825301Y-74250348D01*
X96825293Y-74250350D01*
X96634209Y-74329500D01*
X96634199Y-74329505D01*
X96462232Y-74444410D01*
X96462228Y-74444413D01*
X96315981Y-74590660D01*
X96315978Y-74590664D01*
X96201073Y-74762631D01*
X96201068Y-74762641D01*
X96121919Y-74953723D01*
X96121918Y-74953725D01*
X96110725Y-75010000D01*
X94952411Y-75010000D01*
X94941217Y-74953725D01*
X94941216Y-74953723D01*
X94862067Y-74762641D01*
X94862062Y-74762631D01*
X94747157Y-74590664D01*
X94747154Y-74590660D01*
X94600907Y-74444413D01*
X94600903Y-74444410D01*
X94428936Y-74329505D01*
X94428926Y-74329500D01*
X94237842Y-74250350D01*
X94237834Y-74250348D01*
X94034988Y-74210000D01*
X93881568Y-74210000D01*
X93881568Y-74960000D01*
X93381568Y-74960000D01*
X93381568Y-74210000D01*
X93228147Y-74210000D01*
X93025301Y-74250348D01*
X93025293Y-74250350D01*
X92834209Y-74329500D01*
X92834199Y-74329505D01*
X92662232Y-74444410D01*
X92662228Y-74444413D01*
X92515981Y-74590660D01*
X92515978Y-74590664D01*
X92401073Y-74762631D01*
X92401068Y-74762641D01*
X92321919Y-74953723D01*
X92321918Y-74953725D01*
X92310725Y-75010000D01*
X91500500Y-75010000D01*
X91500500Y-74042038D01*
X109143500Y-74042038D01*
X109143500Y-74293962D01*
X109165502Y-74432873D01*
X109182910Y-74542785D01*
X109260760Y-74782383D01*
X109375132Y-75006848D01*
X109523201Y-75210649D01*
X109523205Y-75210654D01*
X109701345Y-75388794D01*
X109701350Y-75388798D01*
X109879117Y-75517952D01*
X109905155Y-75536870D01*
X110031296Y-75601142D01*
X110129616Y-75651239D01*
X110129618Y-75651239D01*
X110129621Y-75651241D01*
X110369215Y-75729090D01*
X110618038Y-75768500D01*
X110618039Y-75768500D01*
X110869961Y-75768500D01*
X110869962Y-75768500D01*
X111118785Y-75729090D01*
X111358379Y-75651241D01*
X111582845Y-75536870D01*
X111786656Y-75388793D01*
X111964793Y-75210656D01*
X112112870Y-75006845D01*
X112227241Y-74782379D01*
X112305090Y-74542785D01*
X112344500Y-74293962D01*
X112344500Y-74042038D01*
X112305090Y-73793215D01*
X112227241Y-73553621D01*
X112227239Y-73553618D01*
X112227239Y-73553616D01*
X112148869Y-73399807D01*
X112112870Y-73329155D01*
X112099415Y-73310636D01*
X112068425Y-73267982D01*
X119303500Y-73267982D01*
X119303500Y-75068017D01*
X119314000Y-75170796D01*
X119369185Y-75337332D01*
X119369187Y-75337337D01*
X119400926Y-75388794D01*
X119461288Y-75486656D01*
X119585344Y-75610712D01*
X119734665Y-75702814D01*
X119901202Y-75757999D01*
X120003990Y-75768500D01*
X120003995Y-75768500D01*
X121804005Y-75768500D01*
X121804010Y-75768500D01*
X121906798Y-75757999D01*
X122073335Y-75702814D01*
X122222656Y-75610712D01*
X122346712Y-75486656D01*
X122438814Y-75337335D01*
X122493999Y-75170798D01*
X122504500Y-75068010D01*
X122504500Y-73267990D01*
X122493999Y-73165202D01*
X122438814Y-72998665D01*
X122346712Y-72849344D01*
X122222656Y-72725288D01*
X122073335Y-72633186D01*
X121906798Y-72578001D01*
X121906796Y-72578000D01*
X121804017Y-72567500D01*
X121804010Y-72567500D01*
X120003990Y-72567500D01*
X120003982Y-72567500D01*
X119901203Y-72578000D01*
X119901202Y-72578001D01*
X119834817Y-72599999D01*
X119734667Y-72633185D01*
X119734662Y-72633187D01*
X119585342Y-72725289D01*
X119461289Y-72849342D01*
X119369187Y-72998662D01*
X119369186Y-72998665D01*
X119314001Y-73165202D01*
X119314001Y-73165203D01*
X119314000Y-73165203D01*
X119303500Y-73267982D01*
X112068425Y-73267982D01*
X111964798Y-73125350D01*
X111964794Y-73125345D01*
X111786654Y-72947205D01*
X111786649Y-72947201D01*
X111582848Y-72799132D01*
X111582847Y-72799131D01*
X111582845Y-72799130D01*
X111512747Y-72763413D01*
X111358383Y-72684760D01*
X111118785Y-72606910D01*
X111075151Y-72599999D01*
X110869962Y-72567500D01*
X110618038Y-72567500D01*
X110551738Y-72578001D01*
X110369214Y-72606910D01*
X110129616Y-72684760D01*
X109905151Y-72799132D01*
X109701350Y-72947201D01*
X109701345Y-72947205D01*
X109523205Y-73125345D01*
X109523201Y-73125350D01*
X109375132Y-73329151D01*
X109260760Y-73553616D01*
X109182910Y-73793214D01*
X109159587Y-73940471D01*
X109143500Y-74042038D01*
X91500500Y-74042038D01*
X91500500Y-70109635D01*
X94402000Y-70109635D01*
X94402000Y-72505370D01*
X94402001Y-72505376D01*
X94408408Y-72564983D01*
X94458702Y-72699828D01*
X94458706Y-72699835D01*
X94544952Y-72815044D01*
X94544955Y-72815047D01*
X94660164Y-72901293D01*
X94660171Y-72901297D01*
X94795017Y-72951591D01*
X94795016Y-72951591D01*
X94801944Y-72952335D01*
X94854627Y-72958000D01*
X96450372Y-72957999D01*
X96509983Y-72951591D01*
X96644831Y-72901296D01*
X96760046Y-72815046D01*
X96846296Y-72699831D01*
X96896591Y-72564983D01*
X96903000Y-72505373D01*
X96902999Y-72440913D01*
X96922683Y-72373877D01*
X96975486Y-72328121D01*
X97044644Y-72318177D01*
X97108200Y-72347201D01*
X97127317Y-72368029D01*
X97239055Y-72521821D01*
X97378178Y-72660944D01*
X97537356Y-72776595D01*
X97712662Y-72865918D01*
X97899783Y-72926718D01*
X97942500Y-72933484D01*
X97942500Y-71740512D01*
X97999507Y-71773425D01*
X98126674Y-71807500D01*
X98258326Y-71807500D01*
X98385493Y-71773425D01*
X98442500Y-71740512D01*
X98442500Y-72933483D01*
X98485216Y-72926718D01*
X98672337Y-72865918D01*
X98847643Y-72776595D01*
X99006821Y-72660944D01*
X99145944Y-72521821D01*
X99261597Y-72362641D01*
X99351734Y-72185736D01*
X99399708Y-72134939D01*
X99467529Y-72118144D01*
X99533664Y-72140681D01*
X99572704Y-72185735D01*
X99573615Y-72187524D01*
X99573616Y-72187525D01*
X99662976Y-72362905D01*
X99778672Y-72522146D01*
X99917854Y-72661328D01*
X100077095Y-72777024D01*
X100120481Y-72799130D01*
X100252470Y-72866382D01*
X100252472Y-72866382D01*
X100252475Y-72866384D01*
X100342146Y-72895520D01*
X100439673Y-72927209D01*
X100634078Y-72958000D01*
X100634083Y-72958000D01*
X100830922Y-72958000D01*
X101025326Y-72927209D01*
X101027013Y-72926661D01*
X101212525Y-72866384D01*
X101387905Y-72777024D01*
X101547146Y-72661328D01*
X101686328Y-72522146D01*
X101802024Y-72362905D01*
X101891384Y-72187525D01*
X101952209Y-72000326D01*
X101962651Y-71934398D01*
X101983000Y-71805922D01*
X101983000Y-70809077D01*
X101952209Y-70614673D01*
X101943425Y-70587638D01*
X106857500Y-70587638D01*
X106857500Y-70839562D01*
X106884648Y-71010966D01*
X106896910Y-71088385D01*
X106974760Y-71327983D01*
X107089132Y-71552448D01*
X107237201Y-71756249D01*
X107237205Y-71756254D01*
X107415345Y-71934394D01*
X107415350Y-71934398D01*
X107593117Y-72063552D01*
X107619155Y-72082470D01*
X107733401Y-72140681D01*
X107843616Y-72196839D01*
X107843618Y-72196839D01*
X107843621Y-72196841D01*
X108083215Y-72274690D01*
X108332038Y-72314100D01*
X108332039Y-72314100D01*
X108583961Y-72314100D01*
X108583962Y-72314100D01*
X108832785Y-72274690D01*
X109072379Y-72196841D01*
X109296845Y-72082470D01*
X109500656Y-71934393D01*
X109678793Y-71756256D01*
X109826870Y-71552445D01*
X109941241Y-71327979D01*
X110019090Y-71088385D01*
X110058500Y-70839562D01*
X110058500Y-70587638D01*
X110019090Y-70338815D01*
X109941241Y-70099221D01*
X109941239Y-70099218D01*
X109941239Y-70099216D01*
X109826869Y-69874754D01*
X109826865Y-69874748D01*
X109782426Y-69813582D01*
X117017500Y-69813582D01*
X117017500Y-71613617D01*
X117028000Y-71716396D01*
X117046898Y-71773425D01*
X117083186Y-71882935D01*
X117175288Y-72032256D01*
X117299344Y-72156312D01*
X117448665Y-72248414D01*
X117615202Y-72303599D01*
X117717990Y-72314100D01*
X117717995Y-72314100D01*
X119518005Y-72314100D01*
X119518010Y-72314100D01*
X119620798Y-72303599D01*
X119787335Y-72248414D01*
X119936656Y-72156312D01*
X120060712Y-72032256D01*
X120152814Y-71882935D01*
X120207999Y-71716398D01*
X120218500Y-71613610D01*
X120218500Y-69813590D01*
X120207999Y-69710802D01*
X120152814Y-69544265D01*
X120060712Y-69394944D01*
X119936656Y-69270888D01*
X119787335Y-69178786D01*
X119620798Y-69123601D01*
X119620796Y-69123600D01*
X119518017Y-69113100D01*
X119518010Y-69113100D01*
X117717990Y-69113100D01*
X117717982Y-69113100D01*
X117615203Y-69123600D01*
X117615202Y-69123601D01*
X117532669Y-69150949D01*
X117448667Y-69178785D01*
X117448662Y-69178787D01*
X117299342Y-69270889D01*
X117175289Y-69394942D01*
X117083187Y-69544262D01*
X117083186Y-69544265D01*
X117028001Y-69710802D01*
X117028001Y-69710803D01*
X117028000Y-69710803D01*
X117017500Y-69813582D01*
X109782426Y-69813582D01*
X109678798Y-69670950D01*
X109678794Y-69670945D01*
X109500654Y-69492805D01*
X109500649Y-69492801D01*
X109296848Y-69344732D01*
X109296847Y-69344731D01*
X109296845Y-69344730D01*
X109226747Y-69309013D01*
X109072383Y-69230360D01*
X108832785Y-69152510D01*
X108583962Y-69113100D01*
X108332038Y-69113100D01*
X108265738Y-69123601D01*
X108083214Y-69152510D01*
X107843616Y-69230360D01*
X107619151Y-69344732D01*
X107415350Y-69492801D01*
X107415345Y-69492805D01*
X107237205Y-69670945D01*
X107237201Y-69670950D01*
X107089132Y-69874751D01*
X106974760Y-70099216D01*
X106896910Y-70338814D01*
X106882584Y-70429264D01*
X106857500Y-70587638D01*
X101943425Y-70587638D01*
X101908470Y-70480060D01*
X101891384Y-70427475D01*
X101891382Y-70427472D01*
X101891382Y-70427470D01*
X101821152Y-70289637D01*
X101802024Y-70252095D01*
X101686328Y-70092854D01*
X101547146Y-69953672D01*
X101387905Y-69837976D01*
X101359410Y-69823457D01*
X101212529Y-69748617D01*
X101025326Y-69687790D01*
X100830922Y-69657000D01*
X100830917Y-69657000D01*
X100634083Y-69657000D01*
X100634078Y-69657000D01*
X100439673Y-69687790D01*
X100252470Y-69748617D01*
X100077094Y-69837976D01*
X100026473Y-69874755D01*
X99917854Y-69953672D01*
X99917852Y-69953674D01*
X99917851Y-69953674D01*
X99778674Y-70092851D01*
X99778674Y-70092852D01*
X99778672Y-70092854D01*
X99746094Y-70137694D01*
X99662976Y-70252094D01*
X99572704Y-70429264D01*
X99524729Y-70480060D01*
X99456908Y-70496855D01*
X99390774Y-70474318D01*
X99351734Y-70429264D01*
X99261595Y-70252356D01*
X99145944Y-70093178D01*
X99006821Y-69954055D01*
X98847643Y-69838404D01*
X98672335Y-69749081D01*
X98485205Y-69688278D01*
X98442500Y-69681514D01*
X98442500Y-70874488D01*
X98385493Y-70841575D01*
X98258326Y-70807500D01*
X98126674Y-70807500D01*
X97999507Y-70841575D01*
X97942500Y-70874488D01*
X97942500Y-69681514D01*
X97942499Y-69681514D01*
X97899794Y-69688278D01*
X97712664Y-69749081D01*
X97537356Y-69838404D01*
X97378178Y-69954055D01*
X97239055Y-70093178D01*
X97127317Y-70246971D01*
X97071986Y-70289637D01*
X97002373Y-70295615D01*
X96940578Y-70263009D01*
X96906221Y-70202170D01*
X96902999Y-70174085D01*
X96902999Y-70109629D01*
X96902998Y-70109623D01*
X96902997Y-70109616D01*
X96896591Y-70050017D01*
X96886953Y-70024177D01*
X96846297Y-69915171D01*
X96846293Y-69915164D01*
X96760047Y-69799955D01*
X96760044Y-69799952D01*
X96644835Y-69713706D01*
X96644828Y-69713702D01*
X96509982Y-69663408D01*
X96509983Y-69663408D01*
X96450383Y-69657001D01*
X96450381Y-69657000D01*
X96450373Y-69657000D01*
X96450364Y-69657000D01*
X94854629Y-69657000D01*
X94854623Y-69657001D01*
X94795016Y-69663408D01*
X94660171Y-69713702D01*
X94660164Y-69713706D01*
X94544955Y-69799952D01*
X94544952Y-69799955D01*
X94458706Y-69915164D01*
X94458702Y-69915171D01*
X94408408Y-70050017D01*
X94402001Y-70109616D01*
X94402001Y-70109623D01*
X94402000Y-70109635D01*
X91500500Y-70109635D01*
X91500500Y-67024038D01*
X104819500Y-67024038D01*
X104819500Y-67275962D01*
X104826935Y-67322904D01*
X104858910Y-67524785D01*
X104936760Y-67764383D01*
X105051132Y-67988848D01*
X105199201Y-68192649D01*
X105199205Y-68192654D01*
X105377345Y-68370794D01*
X105377350Y-68370798D01*
X105555117Y-68499952D01*
X105581155Y-68518870D01*
X105724184Y-68591747D01*
X105805616Y-68633239D01*
X105805618Y-68633239D01*
X105805621Y-68633241D01*
X106045215Y-68711090D01*
X106294038Y-68750500D01*
X106294039Y-68750500D01*
X106545961Y-68750500D01*
X106545962Y-68750500D01*
X106794785Y-68711090D01*
X107034379Y-68633241D01*
X107258845Y-68518870D01*
X107462656Y-68370793D01*
X107640793Y-68192656D01*
X107788870Y-67988845D01*
X107903241Y-67764379D01*
X107981090Y-67524785D01*
X108020500Y-67275962D01*
X108020500Y-67024038D01*
X107981090Y-66775215D01*
X107903241Y-66535621D01*
X107903239Y-66535618D01*
X107903239Y-66535616D01*
X107800978Y-66334919D01*
X107788870Y-66311155D01*
X107774710Y-66291665D01*
X107744426Y-66249982D01*
X114979500Y-66249982D01*
X114979500Y-68050017D01*
X114990000Y-68152796D01*
X115045185Y-68319332D01*
X115045187Y-68319337D01*
X115074188Y-68366354D01*
X115137288Y-68468656D01*
X115261344Y-68592712D01*
X115410665Y-68684814D01*
X115577202Y-68739999D01*
X115679990Y-68750500D01*
X115679995Y-68750500D01*
X117480005Y-68750500D01*
X117480010Y-68750500D01*
X117582798Y-68739999D01*
X117749335Y-68684814D01*
X117898656Y-68592712D01*
X118022712Y-68468656D01*
X118114814Y-68319335D01*
X118169999Y-68152798D01*
X118180500Y-68050010D01*
X118180500Y-67184038D01*
X121589500Y-67184038D01*
X121589500Y-67435961D01*
X121628910Y-67684785D01*
X121706760Y-67924383D01*
X121821132Y-68148848D01*
X121969201Y-68352649D01*
X121969205Y-68352654D01*
X122147345Y-68530794D01*
X122147350Y-68530798D01*
X122276790Y-68624841D01*
X122351155Y-68678870D01*
X122425564Y-68716783D01*
X122575616Y-68793239D01*
X122575618Y-68793239D01*
X122575621Y-68793241D01*
X122815215Y-68871090D01*
X123064038Y-68910500D01*
X123064039Y-68910500D01*
X123315961Y-68910500D01*
X123315962Y-68910500D01*
X123564785Y-68871090D01*
X123804379Y-68793241D01*
X124028845Y-68678870D01*
X124232656Y-68530793D01*
X124410793Y-68352656D01*
X124558870Y-68148845D01*
X124673241Y-67924379D01*
X124751090Y-67684785D01*
X124790500Y-67435962D01*
X124790500Y-67184038D01*
X124751090Y-66935215D01*
X124673241Y-66695621D01*
X124673239Y-66695618D01*
X124673239Y-66695616D01*
X124598720Y-66549365D01*
X124558870Y-66471155D01*
X124521746Y-66420058D01*
X124410798Y-66267350D01*
X124410794Y-66267345D01*
X124232654Y-66089205D01*
X124232649Y-66089201D01*
X124028848Y-65941132D01*
X124028847Y-65941131D01*
X124028845Y-65941130D01*
X123958747Y-65905413D01*
X123804383Y-65826760D01*
X123564785Y-65748910D01*
X123315962Y-65709500D01*
X123064038Y-65709500D01*
X122939626Y-65729205D01*
X122815214Y-65748910D01*
X122575616Y-65826760D01*
X122351151Y-65941132D01*
X122147350Y-66089201D01*
X122147345Y-66089205D01*
X121969205Y-66267345D01*
X121969201Y-66267350D01*
X121821132Y-66471151D01*
X121706760Y-66695616D01*
X121628910Y-66935214D01*
X121589500Y-67184038D01*
X118180500Y-67184038D01*
X118180500Y-66249990D01*
X118169999Y-66147202D01*
X118114814Y-65980665D01*
X118022712Y-65831344D01*
X117898656Y-65707288D01*
X117800110Y-65646504D01*
X117749337Y-65615187D01*
X117749332Y-65615185D01*
X117710882Y-65602444D01*
X117582798Y-65560001D01*
X117582796Y-65560000D01*
X117480017Y-65549500D01*
X117480010Y-65549500D01*
X115679990Y-65549500D01*
X115679982Y-65549500D01*
X115577203Y-65560000D01*
X115577202Y-65560001D01*
X115528860Y-65576020D01*
X115410667Y-65615185D01*
X115410662Y-65615187D01*
X115261342Y-65707289D01*
X115137289Y-65831342D01*
X115045187Y-65980662D01*
X115045185Y-65980667D01*
X115017349Y-66064669D01*
X114990001Y-66147202D01*
X114990001Y-66147203D01*
X114990000Y-66147203D01*
X114979500Y-66249982D01*
X107744426Y-66249982D01*
X107640798Y-66107350D01*
X107640794Y-66107345D01*
X107462654Y-65929205D01*
X107462649Y-65929201D01*
X107258848Y-65781132D01*
X107258847Y-65781131D01*
X107258845Y-65781130D01*
X107188747Y-65745413D01*
X107034383Y-65666760D01*
X106794785Y-65588910D01*
X106713401Y-65576020D01*
X106545962Y-65549500D01*
X106294038Y-65549500D01*
X106227738Y-65560001D01*
X106045214Y-65588910D01*
X105805616Y-65666760D01*
X105581151Y-65781132D01*
X105377350Y-65929201D01*
X105377345Y-65929205D01*
X105199205Y-66107345D01*
X105199201Y-66107350D01*
X105051132Y-66311151D01*
X104936760Y-66535616D01*
X104858910Y-66775214D01*
X104833568Y-66935214D01*
X104819500Y-67024038D01*
X91500500Y-67024038D01*
X91500500Y-59199983D01*
X96374500Y-59199983D01*
X96374500Y-60000001D01*
X96374501Y-60000019D01*
X96385000Y-60102796D01*
X96385001Y-60102799D01*
X96440185Y-60269331D01*
X96440187Y-60269336D01*
X96464194Y-60308258D01*
X96532288Y-60418656D01*
X96656344Y-60542712D01*
X96720981Y-60582580D01*
X96767705Y-60634526D01*
X96778928Y-60703489D01*
X96751085Y-60767571D01*
X96743566Y-60775799D01*
X96635964Y-60883401D01*
X96534195Y-61023475D01*
X96455591Y-61177744D01*
X96402085Y-61342415D01*
X96400884Y-61349999D01*
X96400885Y-61350000D01*
X97469670Y-61350000D01*
X97449925Y-61369745D01*
X97400556Y-61455255D01*
X97375000Y-61550630D01*
X97375000Y-61649370D01*
X97400556Y-61744745D01*
X97449925Y-61830255D01*
X97469670Y-61850000D01*
X96400885Y-61850000D01*
X96402085Y-61857584D01*
X96455591Y-62022255D01*
X96534195Y-62176524D01*
X96635967Y-62316602D01*
X96758397Y-62439032D01*
X96898475Y-62540804D01*
X97052742Y-62619408D01*
X97217415Y-62672914D01*
X97388429Y-62700000D01*
X97500000Y-62700000D01*
X97500000Y-61880330D01*
X97519745Y-61900075D01*
X97605255Y-61949444D01*
X97700630Y-61975000D01*
X97799370Y-61975000D01*
X97894745Y-61949444D01*
X97980255Y-61900075D01*
X98000000Y-61880330D01*
X98000000Y-62700000D01*
X98111571Y-62700000D01*
X98282584Y-62672914D01*
X98447257Y-62619408D01*
X98601524Y-62540804D01*
X98741602Y-62439032D01*
X98864032Y-62316602D01*
X98965804Y-62176524D01*
X99024512Y-62061304D01*
X107193250Y-62061304D01*
X107193250Y-62238695D01*
X107227853Y-62412658D01*
X107227856Y-62412667D01*
X107295733Y-62576540D01*
X107295740Y-62576553D01*
X107394285Y-62724034D01*
X107394288Y-62724038D01*
X107519711Y-62849461D01*
X107519715Y-62849464D01*
X107667196Y-62948009D01*
X107667209Y-62948016D01*
X107790113Y-62998923D01*
X107831084Y-63015894D01*
X107831086Y-63015894D01*
X107831091Y-63015896D01*
X108005054Y-63050499D01*
X108005057Y-63050500D01*
X108005059Y-63050500D01*
X108182443Y-63050500D01*
X108182444Y-63050499D01*
X108259696Y-63035133D01*
X108356408Y-63015896D01*
X108356411Y-63015894D01*
X108356416Y-63015894D01*
X108491505Y-62959939D01*
X108538957Y-62950500D01*
X114648543Y-62950500D01*
X114695995Y-62959939D01*
X114831084Y-63015894D01*
X114831086Y-63015894D01*
X114831091Y-63015896D01*
X115005054Y-63050499D01*
X115005057Y-63050500D01*
X115005059Y-63050500D01*
X115182443Y-63050500D01*
X115182444Y-63050499D01*
X115259696Y-63035133D01*
X115356408Y-63015896D01*
X115356411Y-63015894D01*
X115356416Y-63015894D01*
X115520297Y-62948013D01*
X115667785Y-62849464D01*
X115793214Y-62724035D01*
X115891763Y-62576547D01*
X115959644Y-62412666D01*
X115965935Y-62381043D01*
X115986678Y-62276757D01*
X115994250Y-62238691D01*
X115994250Y-62061309D01*
X115994250Y-62061306D01*
X115994249Y-62061304D01*
X115959646Y-61887341D01*
X115959643Y-61887332D01*
X115951631Y-61867990D01*
X115916681Y-61783611D01*
X115891766Y-61723459D01*
X115891759Y-61723446D01*
X115793214Y-61575965D01*
X115793211Y-61575961D01*
X115667788Y-61450538D01*
X115667784Y-61450535D01*
X115520303Y-61351990D01*
X115520290Y-61351983D01*
X115356417Y-61284106D01*
X115356408Y-61284103D01*
X115182444Y-61249500D01*
X115182441Y-61249500D01*
X115005059Y-61249500D01*
X115005056Y-61249500D01*
X114831091Y-61284103D01*
X114831082Y-61284106D01*
X114695995Y-61340061D01*
X114648543Y-61349500D01*
X108538957Y-61349500D01*
X108491505Y-61340061D01*
X108356417Y-61284106D01*
X108356408Y-61284103D01*
X108182444Y-61249500D01*
X108182441Y-61249500D01*
X108005059Y-61249500D01*
X108005056Y-61249500D01*
X107831091Y-61284103D01*
X107831082Y-61284106D01*
X107667209Y-61351983D01*
X107667196Y-61351990D01*
X107519715Y-61450535D01*
X107519711Y-61450538D01*
X107394288Y-61575961D01*
X107394285Y-61575965D01*
X107295740Y-61723446D01*
X107295733Y-61723459D01*
X107227856Y-61887332D01*
X107227853Y-61887341D01*
X107193250Y-62061304D01*
X99024512Y-62061304D01*
X99044408Y-62022256D01*
X99046148Y-62016902D01*
X99046148Y-62016901D01*
X99046149Y-62016898D01*
X99097914Y-61857582D01*
X99099115Y-61850000D01*
X98030330Y-61850000D01*
X98050075Y-61830255D01*
X98099444Y-61744745D01*
X98125000Y-61649370D01*
X98125000Y-61550630D01*
X98099444Y-61455255D01*
X98050075Y-61369745D01*
X98030330Y-61350000D01*
X99099115Y-61350000D01*
X99099115Y-61349999D01*
X99097914Y-61342415D01*
X99044408Y-61177744D01*
X98965804Y-61023475D01*
X98864032Y-60883397D01*
X98756434Y-60775799D01*
X98722949Y-60714476D01*
X98727933Y-60644784D01*
X98769805Y-60588851D01*
X98778995Y-60582594D01*
X98843656Y-60542712D01*
X98888720Y-60497648D01*
X101049500Y-60497648D01*
X101049500Y-60702351D01*
X101081522Y-60904534D01*
X101144781Y-61099223D01*
X101185996Y-61180110D01*
X101237585Y-61281359D01*
X101237715Y-61281613D01*
X101358028Y-61447213D01*
X101502786Y-61591971D01*
X101632191Y-61685987D01*
X101668390Y-61712287D01*
X101784607Y-61771503D01*
X101850776Y-61805218D01*
X101850778Y-61805218D01*
X101850781Y-61805220D01*
X101927831Y-61830255D01*
X102045465Y-61868477D01*
X102146557Y-61884488D01*
X102247648Y-61900500D01*
X102247649Y-61900500D01*
X102452351Y-61900500D01*
X102452352Y-61900500D01*
X102654534Y-61868477D01*
X102849219Y-61805220D01*
X103031610Y-61712287D01*
X103166893Y-61613999D01*
X103197213Y-61591971D01*
X103197215Y-61591968D01*
X103197219Y-61591966D01*
X103341966Y-61447219D01*
X103341968Y-61447215D01*
X103341971Y-61447213D01*
X103458106Y-61287365D01*
X103462287Y-61281610D01*
X103489795Y-61227621D01*
X103537769Y-61176826D01*
X103605589Y-61160030D01*
X103671725Y-61182567D01*
X103710765Y-61227621D01*
X103738141Y-61281350D01*
X103738147Y-61281359D01*
X103770523Y-61325921D01*
X103770524Y-61325922D01*
X104450000Y-60646446D01*
X104450000Y-60652661D01*
X104477259Y-60754394D01*
X104529920Y-60845606D01*
X104604394Y-60920080D01*
X104695606Y-60972741D01*
X104797339Y-61000000D01*
X104803553Y-61000000D01*
X104124076Y-61679474D01*
X104168650Y-61711859D01*
X104350968Y-61804755D01*
X104545582Y-61867990D01*
X104747683Y-61900000D01*
X104952317Y-61900000D01*
X105154417Y-61867990D01*
X105349031Y-61804755D01*
X105531349Y-61711859D01*
X105575921Y-61679474D01*
X104896447Y-61000000D01*
X104902661Y-61000000D01*
X105004394Y-60972741D01*
X105095606Y-60920080D01*
X105170080Y-60845606D01*
X105222741Y-60754394D01*
X105250000Y-60652661D01*
X105250000Y-60646447D01*
X105929474Y-61325921D01*
X105961859Y-61281349D01*
X106054755Y-61099031D01*
X106117990Y-60904417D01*
X106150000Y-60702317D01*
X106150000Y-60497682D01*
X106117990Y-60295582D01*
X106054755Y-60100968D01*
X105961859Y-59918650D01*
X105929474Y-59874077D01*
X105929474Y-59874076D01*
X105250000Y-60553551D01*
X105250000Y-60547339D01*
X105222741Y-60445606D01*
X105170080Y-60354394D01*
X105095606Y-60279920D01*
X105004394Y-60227259D01*
X104902661Y-60200000D01*
X104896446Y-60200000D01*
X105575922Y-59520524D01*
X105575921Y-59520523D01*
X105531359Y-59488147D01*
X105531350Y-59488141D01*
X105349031Y-59395244D01*
X105154417Y-59332009D01*
X104952317Y-59300000D01*
X104747683Y-59300000D01*
X104545582Y-59332009D01*
X104350968Y-59395244D01*
X104168644Y-59488143D01*
X104124077Y-59520523D01*
X104124077Y-59520524D01*
X104803554Y-60200000D01*
X104797339Y-60200000D01*
X104695606Y-60227259D01*
X104604394Y-60279920D01*
X104529920Y-60354394D01*
X104477259Y-60445606D01*
X104450000Y-60547339D01*
X104450000Y-60553553D01*
X103770524Y-59874077D01*
X103770523Y-59874077D01*
X103738143Y-59918644D01*
X103710765Y-59972378D01*
X103662790Y-60023174D01*
X103594969Y-60039969D01*
X103528834Y-60017431D01*
X103489795Y-59972378D01*
X103481911Y-59956904D01*
X103462287Y-59918390D01*
X103462285Y-59918387D01*
X103462284Y-59918385D01*
X103341971Y-59752786D01*
X103197213Y-59608028D01*
X103031613Y-59487715D01*
X103031612Y-59487714D01*
X103031610Y-59487713D01*
X102957808Y-59450109D01*
X102849223Y-59394781D01*
X102654534Y-59331522D01*
X102459082Y-59300566D01*
X102452352Y-59299500D01*
X102247648Y-59299500D01*
X102240918Y-59300566D01*
X102045465Y-59331522D01*
X101850776Y-59394781D01*
X101668386Y-59487715D01*
X101502786Y-59608028D01*
X101358028Y-59752786D01*
X101237715Y-59918386D01*
X101144781Y-60100776D01*
X101081522Y-60295465D01*
X101049500Y-60497648D01*
X98888720Y-60497648D01*
X98967712Y-60418656D01*
X99059814Y-60269334D01*
X99114999Y-60102797D01*
X99125500Y-60000009D01*
X99125499Y-59199992D01*
X99114999Y-59097203D01*
X99059814Y-58930666D01*
X98967712Y-58781344D01*
X98843656Y-58657288D01*
X98694334Y-58565186D01*
X98527797Y-58510001D01*
X98527795Y-58510000D01*
X98425010Y-58499500D01*
X97074998Y-58499500D01*
X97074981Y-58499501D01*
X96972203Y-58510000D01*
X96972200Y-58510001D01*
X96805668Y-58565185D01*
X96805663Y-58565187D01*
X96656342Y-58657289D01*
X96532289Y-58781342D01*
X96440187Y-58930663D01*
X96440185Y-58930668D01*
X96425166Y-58975993D01*
X96385001Y-59097203D01*
X96385001Y-59097204D01*
X96385000Y-59097204D01*
X96374500Y-59199983D01*
X91500500Y-59199983D01*
X91500500Y-56249982D01*
X121589500Y-56249982D01*
X121589500Y-58050017D01*
X121600000Y-58152796D01*
X121646152Y-58292073D01*
X121655186Y-58319335D01*
X121747288Y-58468656D01*
X121871344Y-58592712D01*
X122020665Y-58684814D01*
X122187202Y-58739999D01*
X122289990Y-58750500D01*
X122289995Y-58750500D01*
X124090005Y-58750500D01*
X124090010Y-58750500D01*
X124192798Y-58739999D01*
X124359335Y-58684814D01*
X124508656Y-58592712D01*
X124632712Y-58468656D01*
X124724814Y-58319335D01*
X124779999Y-58152798D01*
X124790500Y-58050010D01*
X124790500Y-56249990D01*
X124779999Y-56147202D01*
X124724814Y-55980665D01*
X124632712Y-55831344D01*
X124508656Y-55707288D01*
X124359335Y-55615186D01*
X124192798Y-55560001D01*
X124192796Y-55560000D01*
X124090017Y-55549500D01*
X124090010Y-55549500D01*
X122289990Y-55549500D01*
X122289982Y-55549500D01*
X122187203Y-55560000D01*
X122187202Y-55560001D01*
X122104669Y-55587349D01*
X122020667Y-55615185D01*
X122020662Y-55615187D01*
X121871342Y-55707289D01*
X121747289Y-55831342D01*
X121655187Y-55980662D01*
X121655186Y-55980665D01*
X121600001Y-56147202D01*
X121600001Y-56147203D01*
X121600000Y-56147203D01*
X121589500Y-56249982D01*
X91500500Y-56249982D01*
X91500500Y-52299983D01*
X96374500Y-52299983D01*
X96374500Y-53100001D01*
X96374501Y-53100019D01*
X96385000Y-53202796D01*
X96385001Y-53202799D01*
X96440185Y-53369331D01*
X96440187Y-53369336D01*
X96459087Y-53399977D01*
X96532288Y-53518656D01*
X96656344Y-53642712D01*
X96720543Y-53682310D01*
X96767268Y-53734258D01*
X96778489Y-53803221D01*
X96750646Y-53867303D01*
X96743128Y-53875530D01*
X96635585Y-53983073D01*
X96533768Y-54123211D01*
X96455128Y-54277552D01*
X96401597Y-54442302D01*
X96374500Y-54613389D01*
X96374500Y-54786610D01*
X96392389Y-54899561D01*
X96401598Y-54957701D01*
X96455127Y-55122445D01*
X96533768Y-55276788D01*
X96635586Y-55416928D01*
X96758072Y-55539414D01*
X96898212Y-55641232D01*
X97052555Y-55719873D01*
X97217299Y-55773402D01*
X97388389Y-55800500D01*
X97388390Y-55800500D01*
X98111610Y-55800500D01*
X98111611Y-55800500D01*
X98282701Y-55773402D01*
X98447445Y-55719873D01*
X98601788Y-55641232D01*
X98741928Y-55539414D01*
X98864414Y-55416928D01*
X98966232Y-55276788D01*
X99044873Y-55122445D01*
X99098402Y-54957701D01*
X99125500Y-54786611D01*
X99125500Y-54613389D01*
X99098402Y-54442299D01*
X99044873Y-54277555D01*
X98966232Y-54123212D01*
X98864414Y-53983072D01*
X98756872Y-53875530D01*
X98723387Y-53814207D01*
X98728371Y-53744515D01*
X98770243Y-53688582D01*
X98779457Y-53682310D01*
X98843656Y-53642712D01*
X98967712Y-53518656D01*
X99059814Y-53369334D01*
X99114999Y-53202797D01*
X99125500Y-53100009D01*
X99125499Y-52299992D01*
X99120740Y-52253409D01*
X99114999Y-52197203D01*
X99114998Y-52197200D01*
X99069922Y-52061170D01*
X99059814Y-52030666D01*
X98967712Y-51881344D01*
X98843656Y-51757288D01*
X98726430Y-51684983D01*
X98694336Y-51665187D01*
X98694331Y-51665185D01*
X98692862Y-51664698D01*
X98527797Y-51610001D01*
X98527795Y-51610000D01*
X98425010Y-51599500D01*
X97074998Y-51599500D01*
X97074981Y-51599501D01*
X96972203Y-51610000D01*
X96972200Y-51610001D01*
X96805668Y-51665185D01*
X96805663Y-51665187D01*
X96656342Y-51757289D01*
X96532289Y-51881342D01*
X96440187Y-52030663D01*
X96440186Y-52030666D01*
X96385001Y-52197203D01*
X96385001Y-52197204D01*
X96385000Y-52197204D01*
X96374500Y-52299983D01*
X91500500Y-52299983D01*
X91500500Y-46686304D01*
X108337000Y-46686304D01*
X108337000Y-46863695D01*
X108371603Y-47037658D01*
X108371606Y-47037667D01*
X108439483Y-47201540D01*
X108439490Y-47201553D01*
X108538035Y-47349034D01*
X108538038Y-47349038D01*
X108575680Y-47386679D01*
X108609166Y-47448001D01*
X108612000Y-47474361D01*
X108612000Y-49485893D01*
X108612000Y-49609107D01*
X108614664Y-49622500D01*
X108636037Y-49729952D01*
X108644208Y-49749679D01*
X108647871Y-49758524D01*
X108647872Y-49758525D01*
X108683185Y-49843781D01*
X108683189Y-49843788D01*
X108714394Y-49890490D01*
X108714400Y-49890497D01*
X108751640Y-49946231D01*
X108751641Y-49946232D01*
X108751642Y-49946233D01*
X108838767Y-50033358D01*
X108838768Y-50033358D01*
X108845835Y-50040425D01*
X108845834Y-50040425D01*
X108845838Y-50040428D01*
X112091263Y-53285855D01*
X112091267Y-53285858D01*
X112193712Y-53354310D01*
X112193711Y-53354310D01*
X112193713Y-53354311D01*
X112193715Y-53354312D01*
X112229982Y-53369334D01*
X112307548Y-53401463D01*
X112327597Y-53405451D01*
X112336536Y-53407229D01*
X112428392Y-53425501D01*
X112428394Y-53425501D01*
X112557721Y-53425501D01*
X112557741Y-53425500D01*
X133288394Y-53425500D01*
X134480748Y-53425500D01*
X134547787Y-53445185D01*
X134568429Y-53461819D01*
X135024981Y-53918371D01*
X135058466Y-53979694D01*
X135061300Y-54006052D01*
X135061300Y-61783611D01*
X135085335Y-61904444D01*
X135085340Y-61904461D01*
X135132485Y-62018280D01*
X135132487Y-62018283D01*
X135132488Y-62018286D01*
X135159151Y-62058189D01*
X135200942Y-62120733D01*
X135288067Y-62207858D01*
X135288070Y-62207860D01*
X135295696Y-62215486D01*
X135664381Y-62584171D01*
X135697866Y-62645494D01*
X135700700Y-62671852D01*
X135700700Y-62725095D01*
X135735303Y-62899058D01*
X135735306Y-62899067D01*
X135803183Y-63062940D01*
X135803190Y-63062953D01*
X135901735Y-63210434D01*
X135901738Y-63210438D01*
X135977958Y-63286658D01*
X136011443Y-63347981D01*
X136006459Y-63417673D01*
X135977958Y-63462020D01*
X134663285Y-64776694D01*
X133408469Y-66031510D01*
X133408467Y-66031512D01*
X133364903Y-66075075D01*
X133321340Y-66118638D01*
X133292542Y-66161740D01*
X133292537Y-66161747D01*
X133266042Y-66201397D01*
X133252887Y-66221085D01*
X133252885Y-66221088D01*
X133222426Y-66294624D01*
X133222426Y-66294627D01*
X133215581Y-66311154D01*
X133205737Y-66334919D01*
X133205735Y-66334923D01*
X133202685Y-66350256D01*
X133202686Y-66350257D01*
X133188803Y-66420056D01*
X133188802Y-66420058D01*
X133181700Y-66455761D01*
X133181700Y-67135200D01*
X133162015Y-67202239D01*
X133109211Y-67247994D01*
X133057700Y-67259200D01*
X126131618Y-67259200D01*
X126131618Y-73292583D01*
X126120363Y-73330912D01*
X126120363Y-73355200D01*
X126120363Y-73867982D01*
X129986241Y-73867982D01*
X130053280Y-73887667D01*
X130089343Y-73923091D01*
X130161335Y-74030834D01*
X130161338Y-74030838D01*
X130286761Y-74156261D01*
X130286765Y-74156264D01*
X130434246Y-74254809D01*
X130434259Y-74254816D01*
X130528768Y-74293962D01*
X130598134Y-74322694D01*
X130598136Y-74322694D01*
X130598141Y-74322696D01*
X130772104Y-74357299D01*
X130772107Y-74357300D01*
X130772109Y-74357300D01*
X130825348Y-74357300D01*
X130892387Y-74376985D01*
X130913028Y-74393618D01*
X131898941Y-75379532D01*
X131898942Y-75379533D01*
X131986067Y-75466658D01*
X132015996Y-75486656D01*
X132050933Y-75510000D01*
X132088508Y-75535107D01*
X132088516Y-75535112D01*
X132099245Y-75539556D01*
X132202348Y-75582263D01*
X132323188Y-75606299D01*
X132323192Y-75606300D01*
X132323193Y-75606300D01*
X132323194Y-75606300D01*
X133598348Y-75606300D01*
X133627788Y-75614944D01*
X133657775Y-75621468D01*
X133662790Y-75625222D01*
X133665387Y-75625985D01*
X133686029Y-75642619D01*
X133754981Y-75711571D01*
X133788466Y-75772894D01*
X133791300Y-75799252D01*
X133791300Y-83204811D01*
X133815335Y-83325644D01*
X133815340Y-83325661D01*
X133862485Y-83439480D01*
X133862487Y-83439483D01*
X133862488Y-83439486D01*
X133896715Y-83490709D01*
X133930942Y-83541933D01*
X134018067Y-83629058D01*
X134018070Y-83629060D01*
X134025354Y-83636344D01*
X134672019Y-84283009D01*
X134705504Y-84344332D01*
X134700520Y-84414024D01*
X134698900Y-84418141D01*
X134643084Y-84552896D01*
X134643082Y-84552900D01*
X134608479Y-84726863D01*
X134608479Y-84904254D01*
X134643082Y-85078217D01*
X134643085Y-85078226D01*
X134710963Y-85242101D01*
X134710964Y-85242102D01*
X134710966Y-85242106D01*
X134713367Y-85245699D01*
X134734242Y-85312377D01*
X134715755Y-85379756D01*
X134713365Y-85383476D01*
X134676633Y-85438449D01*
X134676627Y-85438460D01*
X134608750Y-85602332D01*
X134608747Y-85602341D01*
X134574144Y-85776304D01*
X134574144Y-85776309D01*
X134574144Y-85953691D01*
X134574962Y-85957807D01*
X134568737Y-86027396D01*
X134525876Y-86082575D01*
X134459987Y-86105822D01*
X134453346Y-86106000D01*
X128648000Y-86106000D01*
X128580961Y-86086315D01*
X128535206Y-86033511D01*
X128524000Y-85982000D01*
X128524000Y-80642000D01*
X128543685Y-80574961D01*
X128596489Y-80529206D01*
X128648000Y-80518000D01*
X133350000Y-80518000D01*
X133350000Y-79248000D01*
X127000000Y-79248000D01*
X127000000Y-86106000D01*
X127000000Y-87376000D01*
X135636000Y-87376000D01*
X135636000Y-86852809D01*
X135655685Y-86785770D01*
X135708489Y-86740015D01*
X135735814Y-86731191D01*
X135737310Y-86730894D01*
X135901191Y-86663013D01*
X136048679Y-86564464D01*
X136174108Y-86439035D01*
X136272657Y-86291547D01*
X136340538Y-86127666D01*
X136348764Y-86086315D01*
X136375143Y-85953695D01*
X136375144Y-85953693D01*
X136375144Y-85912065D01*
X136394829Y-85845026D01*
X136411459Y-85824388D01*
X136618485Y-85617361D01*
X136618490Y-85617358D01*
X136628693Y-85607154D01*
X136628695Y-85607154D01*
X136740499Y-85495350D01*
X136801557Y-85389594D01*
X136819556Y-85358419D01*
X136860479Y-85205692D01*
X136860479Y-85047577D01*
X136860479Y-84234156D01*
X136841893Y-84164793D01*
X136819556Y-84081428D01*
X136769434Y-83994615D01*
X136740499Y-83944497D01*
X136628695Y-83832693D01*
X136628694Y-83832692D01*
X136624364Y-83828362D01*
X136624353Y-83828352D01*
X135529619Y-82733618D01*
X135496134Y-82672295D01*
X135493300Y-82645937D01*
X135493300Y-75211296D01*
X135512985Y-75144257D01*
X135529615Y-75123619D01*
X136350106Y-74303127D01*
X136350111Y-74303124D01*
X136360314Y-74292920D01*
X136360316Y-74292920D01*
X136472120Y-74181116D01*
X136531899Y-74077575D01*
X136551177Y-74044185D01*
X136592101Y-73891457D01*
X136592101Y-73733343D01*
X136592101Y-73725748D01*
X136592100Y-73725730D01*
X136592100Y-69380260D01*
X136592101Y-69380247D01*
X136592101Y-69212145D01*
X136592101Y-69212143D01*
X136551177Y-69059415D01*
X136472120Y-68922484D01*
X135875519Y-68325883D01*
X135842034Y-68264560D01*
X135839200Y-68238202D01*
X135839200Y-67259200D01*
X134556700Y-67259200D01*
X134489661Y-67239515D01*
X134443906Y-67186711D01*
X134432700Y-67135200D01*
X134432700Y-66827822D01*
X134452385Y-66760783D01*
X134469019Y-66740141D01*
X135871660Y-65337500D01*
X137281226Y-63927933D01*
X137284821Y-63924482D01*
X137291939Y-63917917D01*
X137321363Y-63898258D01*
X137408488Y-63811133D01*
X137408490Y-63811129D01*
X137775929Y-63443690D01*
X137775933Y-63443688D01*
X137863058Y-63356563D01*
X137897284Y-63305339D01*
X137931512Y-63254116D01*
X137978663Y-63140281D01*
X137985726Y-63104775D01*
X137994245Y-63061947D01*
X137999578Y-63035134D01*
X138002700Y-63019437D01*
X138002700Y-62546761D01*
X138022385Y-62479722D01*
X138039015Y-62459083D01*
X138062664Y-62435435D01*
X138161213Y-62287947D01*
X138165646Y-62277246D01*
X138194386Y-62207860D01*
X138229094Y-62124066D01*
X138229412Y-62122471D01*
X138263699Y-61950095D01*
X138263700Y-61950093D01*
X138263700Y-61772706D01*
X138263699Y-61772704D01*
X138229096Y-61598741D01*
X138229093Y-61598732D01*
X138226290Y-61591966D01*
X138200793Y-61530409D01*
X138161216Y-61434859D01*
X138161209Y-61434846D01*
X138062664Y-61287365D01*
X138062661Y-61287361D01*
X137937238Y-61161938D01*
X137937234Y-61161935D01*
X137789753Y-61063390D01*
X137789740Y-61063383D01*
X137625867Y-60995506D01*
X137625858Y-60995503D01*
X137451894Y-60960900D01*
X137451891Y-60960900D01*
X137274509Y-60960900D01*
X137274506Y-60960900D01*
X137100541Y-60995503D01*
X137100532Y-60995506D01*
X136936659Y-61063383D01*
X136936646Y-61063390D01*
X136789165Y-61161935D01*
X136789161Y-61161938D01*
X136663738Y-61287361D01*
X136663735Y-61287365D01*
X136565190Y-61434846D01*
X136565185Y-61434856D01*
X136553918Y-61462058D01*
X136533330Y-61487605D01*
X136513667Y-61513872D01*
X136511517Y-61514673D01*
X136510077Y-61516461D01*
X136478946Y-61526822D01*
X136448203Y-61538289D01*
X136445960Y-61537801D01*
X136443782Y-61538526D01*
X136411980Y-61530409D01*
X136379930Y-61523437D01*
X136377481Y-61521603D01*
X136376083Y-61521247D01*
X136351676Y-61502286D01*
X136348619Y-61499229D01*
X136315134Y-61437906D01*
X136312300Y-61411548D01*
X136312300Y-53763341D01*
X136312301Y-53763320D01*
X136312301Y-53633991D01*
X136300306Y-53573692D01*
X136306533Y-53504101D01*
X136349395Y-53448923D01*
X136415285Y-53425678D01*
X136421923Y-53425500D01*
X139946007Y-53425500D01*
X140006429Y-53413481D01*
X140066852Y-53401463D01*
X140100192Y-53387652D01*
X140180686Y-53354312D01*
X140224283Y-53325180D01*
X140235657Y-53317581D01*
X140235671Y-53317571D01*
X140235706Y-53317548D01*
X140283133Y-53285858D01*
X140370258Y-53198733D01*
X140370258Y-53198731D01*
X140380466Y-53188524D01*
X140380467Y-53188521D01*
X140687820Y-52881169D01*
X140749142Y-52847685D01*
X140818834Y-52852669D01*
X140874767Y-52894541D01*
X140899184Y-52960005D01*
X140899500Y-52968851D01*
X140899500Y-59321238D01*
X140879815Y-59388277D01*
X140863181Y-59408919D01*
X140800538Y-59471561D01*
X140800535Y-59471565D01*
X140701990Y-59619046D01*
X140701983Y-59619059D01*
X140634106Y-59782932D01*
X140634103Y-59782941D01*
X140599500Y-59956904D01*
X140599500Y-60134295D01*
X140634103Y-60308258D01*
X140634106Y-60308267D01*
X140701983Y-60472140D01*
X140701990Y-60472153D01*
X140800535Y-60619634D01*
X140800538Y-60619638D01*
X140925961Y-60745061D01*
X140925965Y-60745064D01*
X141073446Y-60843609D01*
X141073459Y-60843616D01*
X141195519Y-60894174D01*
X141237334Y-60911494D01*
X141237336Y-60911494D01*
X141237341Y-60911496D01*
X141411304Y-60946099D01*
X141411307Y-60946100D01*
X141411309Y-60946100D01*
X141588693Y-60946100D01*
X141588694Y-60946099D01*
X141646682Y-60934564D01*
X141762658Y-60911496D01*
X141762661Y-60911494D01*
X141762666Y-60911494D01*
X141902535Y-60853558D01*
X141926540Y-60843616D01*
X141926540Y-60843615D01*
X141926547Y-60843613D01*
X142074035Y-60745064D01*
X142199464Y-60619635D01*
X142298013Y-60472147D01*
X142365894Y-60308266D01*
X142366346Y-60305998D01*
X142400499Y-60134295D01*
X142400500Y-60134293D01*
X142400500Y-59956906D01*
X142400499Y-59956904D01*
X142365896Y-59782941D01*
X142365893Y-59782932D01*
X142298016Y-59619059D01*
X142298009Y-59619046D01*
X142199464Y-59471565D01*
X142199461Y-59471561D01*
X142136819Y-59408919D01*
X142103334Y-59347596D01*
X142100500Y-59321238D01*
X142100500Y-52157663D01*
X142120185Y-52090624D01*
X142136819Y-52069982D01*
X144547982Y-49658819D01*
X144609305Y-49625334D01*
X144635663Y-49622500D01*
X146934000Y-49622500D01*
X147001039Y-49642185D01*
X147046794Y-49694989D01*
X147058000Y-49746500D01*
X147058000Y-53418047D01*
X147038315Y-53485086D01*
X146985511Y-53530841D01*
X146916353Y-53540785D01*
X146852797Y-53511760D01*
X146846319Y-53505728D01*
X146451822Y-53111232D01*
X146441859Y-53101269D01*
X146441858Y-53101267D01*
X146354733Y-53014142D01*
X146303509Y-52979915D01*
X146252286Y-52945688D01*
X146252283Y-52945686D01*
X146252280Y-52945685D01*
X146171792Y-52912347D01*
X146171785Y-52912344D01*
X146170312Y-52911734D01*
X146167495Y-52910567D01*
X146167494Y-52910566D01*
X146167486Y-52910563D01*
X146142991Y-52890822D01*
X146113090Y-52866727D01*
X146113088Y-52866721D01*
X146113085Y-52866719D01*
X146103928Y-52839202D01*
X146091024Y-52800434D01*
X146091025Y-52800428D01*
X146091024Y-52800424D01*
X146099417Y-52767546D01*
X146108302Y-52732734D01*
X146109357Y-52730987D01*
X146199814Y-52584334D01*
X146254999Y-52417797D01*
X146265500Y-52315009D01*
X146265499Y-51684992D01*
X146257838Y-51610000D01*
X146254999Y-51582203D01*
X146254998Y-51582200D01*
X146218231Y-51471245D01*
X146199814Y-51415666D01*
X146107712Y-51266344D01*
X145983656Y-51142288D01*
X145890888Y-51085069D01*
X145834336Y-51050187D01*
X145834331Y-51050185D01*
X145810050Y-51042139D01*
X145667797Y-50995001D01*
X145667795Y-50995000D01*
X145565010Y-50984500D01*
X144234998Y-50984500D01*
X144234981Y-50984501D01*
X144132203Y-50995000D01*
X144132200Y-50995001D01*
X143965668Y-51050185D01*
X143965663Y-51050187D01*
X143816342Y-51142289D01*
X143692289Y-51266342D01*
X143600187Y-51415663D01*
X143600186Y-51415666D01*
X143545001Y-51582203D01*
X143545001Y-51582204D01*
X143545000Y-51582204D01*
X143534500Y-51684983D01*
X143534500Y-52315001D01*
X143534501Y-52315019D01*
X143545000Y-52417796D01*
X143545001Y-52417799D01*
X143557522Y-52455584D01*
X143600186Y-52584334D01*
X143691719Y-52732734D01*
X143692289Y-52733657D01*
X143709309Y-52750677D01*
X143742794Y-52812000D01*
X143737810Y-52881692D01*
X143724730Y-52907248D01*
X143650081Y-53018968D01*
X143650071Y-53018986D01*
X143573526Y-53203784D01*
X143573523Y-53203796D01*
X143534500Y-53399977D01*
X143534500Y-53600022D01*
X143573523Y-53796203D01*
X143573526Y-53796215D01*
X143650071Y-53981013D01*
X143650078Y-53981026D01*
X143761208Y-54147343D01*
X143761211Y-54147347D01*
X143776183Y-54162319D01*
X143809668Y-54223642D01*
X143804684Y-54293334D01*
X143776183Y-54337681D01*
X143761211Y-54352652D01*
X143761208Y-54352656D01*
X143650078Y-54518973D01*
X143650071Y-54518986D01*
X143573526Y-54703784D01*
X143573523Y-54703796D01*
X143534500Y-54899977D01*
X143534500Y-55100022D01*
X143573523Y-55296203D01*
X143573526Y-55296215D01*
X143650071Y-55481013D01*
X143650078Y-55481026D01*
X143761208Y-55647343D01*
X143761210Y-55647346D01*
X143776535Y-55662670D01*
X143810022Y-55723992D01*
X143805039Y-55793684D01*
X143776540Y-55838032D01*
X143761597Y-55852975D01*
X143650522Y-56019210D01*
X143650517Y-56019219D01*
X143574006Y-56203934D01*
X143574004Y-56203942D01*
X143564842Y-56249999D01*
X143564843Y-56250000D01*
X144633811Y-56250000D01*
X144607927Y-56275884D01*
X144559874Y-56359115D01*
X144535000Y-56451947D01*
X144535000Y-56548053D01*
X144559874Y-56640885D01*
X144607927Y-56724116D01*
X144633811Y-56750000D01*
X143564843Y-56750000D01*
X143574004Y-56796057D01*
X143574006Y-56796065D01*
X143650517Y-56980780D01*
X143650522Y-56980789D01*
X143761597Y-57147024D01*
X143761600Y-57147028D01*
X143776891Y-57162319D01*
X143810376Y-57223642D01*
X143805392Y-57293334D01*
X143776891Y-57337681D01*
X143761600Y-57352971D01*
X143761597Y-57352975D01*
X143650522Y-57519210D01*
X143650517Y-57519219D01*
X143574006Y-57703934D01*
X143574004Y-57703942D01*
X143564842Y-57749999D01*
X143564843Y-57750000D01*
X144633811Y-57750000D01*
X144607927Y-57775884D01*
X144559874Y-57859115D01*
X144535000Y-57951947D01*
X144535000Y-58048053D01*
X144559874Y-58140885D01*
X144607927Y-58224116D01*
X144633811Y-58250000D01*
X143564843Y-58250000D01*
X143574004Y-58296057D01*
X143574006Y-58296065D01*
X143650517Y-58480780D01*
X143650522Y-58480789D01*
X143761597Y-58647024D01*
X143761600Y-58647028D01*
X143902971Y-58788399D01*
X143902975Y-58788402D01*
X144069210Y-58899477D01*
X144069219Y-58899482D01*
X144253934Y-58975993D01*
X144253942Y-58975995D01*
X144450026Y-59014999D01*
X144450029Y-59015000D01*
X144650000Y-59015000D01*
X144650000Y-58266189D01*
X144675884Y-58292073D01*
X144759115Y-58340126D01*
X144851947Y-58365000D01*
X144948053Y-58365000D01*
X145040885Y-58340126D01*
X145124116Y-58292073D01*
X145150000Y-58266189D01*
X145150000Y-59015000D01*
X145349971Y-59015000D01*
X145349973Y-59014999D01*
X145546057Y-58975995D01*
X145546065Y-58975993D01*
X145634047Y-58939550D01*
X145703516Y-58932081D01*
X145765995Y-58963356D01*
X145801648Y-59023444D01*
X145805500Y-59054111D01*
X145805500Y-64637347D01*
X145785815Y-64704386D01*
X145769181Y-64725028D01*
X144946689Y-65547519D01*
X144885366Y-65581004D01*
X144815674Y-65576020D01*
X144759743Y-65534150D01*
X144719546Y-65480454D01*
X144719544Y-65480452D01*
X144719543Y-65480451D01*
X144604335Y-65394206D01*
X144604328Y-65394202D01*
X144469482Y-65343908D01*
X144469483Y-65343908D01*
X144409883Y-65337501D01*
X144409881Y-65337500D01*
X144409873Y-65337500D01*
X144409865Y-65337500D01*
X143211500Y-65337500D01*
X143144461Y-65317815D01*
X143098706Y-65265011D01*
X143087500Y-65213500D01*
X143087500Y-63711193D01*
X143087499Y-63711189D01*
X143079044Y-63668681D01*
X143063463Y-63590348D01*
X143038589Y-63530297D01*
X143019308Y-63483747D01*
X143016315Y-63476521D01*
X143016308Y-63476508D01*
X142947858Y-63374067D01*
X142947855Y-63374063D01*
X142311750Y-62737958D01*
X142278265Y-62676635D01*
X142275431Y-62650277D01*
X142275431Y-62597037D01*
X142275430Y-62597035D01*
X142240827Y-62423072D01*
X142240824Y-62423063D01*
X142172947Y-62259190D01*
X142172940Y-62259177D01*
X142074395Y-62111696D01*
X142074392Y-62111692D01*
X141948969Y-61986269D01*
X141948965Y-61986266D01*
X141801484Y-61887721D01*
X141801471Y-61887714D01*
X141637598Y-61819837D01*
X141637589Y-61819834D01*
X141463625Y-61785231D01*
X141463622Y-61785231D01*
X141286240Y-61785231D01*
X141286237Y-61785231D01*
X141112272Y-61819834D01*
X141112263Y-61819837D01*
X140948390Y-61887714D01*
X140948377Y-61887721D01*
X140800896Y-61986266D01*
X140800892Y-61986269D01*
X140675469Y-62111692D01*
X140675466Y-62111696D01*
X140576921Y-62259177D01*
X140576914Y-62259190D01*
X140509037Y-62423063D01*
X140509034Y-62423072D01*
X140474431Y-62597035D01*
X140474431Y-62774426D01*
X140509034Y-62948389D01*
X140509037Y-62948398D01*
X140576914Y-63112271D01*
X140576921Y-63112284D01*
X140675466Y-63259765D01*
X140675469Y-63259769D01*
X140800892Y-63385192D01*
X140800896Y-63385195D01*
X140948377Y-63483740D01*
X140948390Y-63483747D01*
X141060772Y-63530296D01*
X141112265Y-63551625D01*
X141112267Y-63551625D01*
X141112272Y-63551627D01*
X141286235Y-63586230D01*
X141286238Y-63586231D01*
X141286240Y-63586231D01*
X141339479Y-63586231D01*
X141406518Y-63605916D01*
X141427160Y-63622550D01*
X141800181Y-63995571D01*
X141833666Y-64056894D01*
X141836500Y-64083252D01*
X141836500Y-69371539D01*
X141816815Y-69438578D01*
X141800181Y-69459220D01*
X140628254Y-70631146D01*
X140628247Y-70631153D01*
X140625270Y-70634131D01*
X140625267Y-70634134D01*
X140538142Y-70721259D01*
X140504911Y-70770993D01*
X140500491Y-70777606D01*
X140500488Y-70777611D01*
X140469687Y-70823706D01*
X140469686Y-70823708D01*
X140440487Y-70894204D01*
X140422538Y-70937535D01*
X140422538Y-70937537D01*
X140422537Y-70937540D01*
X140403365Y-71033927D01*
X140398500Y-71058388D01*
X140398500Y-74223619D01*
X140422535Y-74344452D01*
X140422540Y-74344469D01*
X140469685Y-74458289D01*
X140469687Y-74458292D01*
X140469688Y-74458294D01*
X140489262Y-74487587D01*
X140538142Y-74560741D01*
X140625267Y-74647866D01*
X140625270Y-74647868D01*
X140633183Y-74655781D01*
X142116177Y-76138775D01*
X142149662Y-76200098D01*
X142152496Y-76226456D01*
X142152496Y-83290500D01*
X142132811Y-83357539D01*
X142080007Y-83403294D01*
X142028496Y-83414500D01*
X141846506Y-83414500D01*
X141672541Y-83449103D01*
X141672532Y-83449106D01*
X141508659Y-83516983D01*
X141508646Y-83516990D01*
X141361165Y-83615535D01*
X141361161Y-83615538D01*
X141235738Y-83740961D01*
X141235735Y-83740965D01*
X141137190Y-83888446D01*
X141137183Y-83888459D01*
X141069306Y-84052332D01*
X141069303Y-84052341D01*
X141034700Y-84226304D01*
X141034700Y-84403695D01*
X141069303Y-84577658D01*
X141069306Y-84577667D01*
X141137183Y-84741540D01*
X141137190Y-84741552D01*
X141193961Y-84826515D01*
X141214839Y-84893192D01*
X141196355Y-84960572D01*
X141144376Y-85007263D01*
X141138311Y-85009967D01*
X141000659Y-85066983D01*
X141000646Y-85066990D01*
X140853165Y-85165535D01*
X140853161Y-85165538D01*
X140727738Y-85290961D01*
X140727735Y-85290965D01*
X140629190Y-85438446D01*
X140629183Y-85438459D01*
X140561306Y-85602332D01*
X140561303Y-85602341D01*
X140526700Y-85776304D01*
X140526700Y-85953695D01*
X140561303Y-86127658D01*
X140561306Y-86127667D01*
X140629183Y-86291540D01*
X140629190Y-86291553D01*
X140727735Y-86439034D01*
X140727738Y-86439038D01*
X140853161Y-86564461D01*
X140853165Y-86564464D01*
X141000646Y-86663009D01*
X141000659Y-86663016D01*
X141091899Y-86700808D01*
X141164534Y-86730894D01*
X141164536Y-86730894D01*
X141164541Y-86730896D01*
X141338504Y-86765499D01*
X141338507Y-86765500D01*
X141338509Y-86765500D01*
X141515893Y-86765500D01*
X141515894Y-86765499D01*
X141588561Y-86751045D01*
X141689858Y-86730896D01*
X141689861Y-86730894D01*
X141689866Y-86730894D01*
X141853747Y-86663013D01*
X142001235Y-86564464D01*
X142016881Y-86548816D01*
X142078202Y-86515331D01*
X142147894Y-86520314D01*
X142192244Y-86548816D01*
X142239961Y-86596533D01*
X142239965Y-86596536D01*
X142387446Y-86695081D01*
X142387459Y-86695088D01*
X142495925Y-86740015D01*
X142551334Y-86762966D01*
X142551336Y-86762966D01*
X142551341Y-86762968D01*
X142725304Y-86797571D01*
X142725307Y-86797572D01*
X142725309Y-86797572D01*
X142902693Y-86797572D01*
X142902694Y-86797571D01*
X142974858Y-86783217D01*
X143076658Y-86762968D01*
X143076660Y-86762967D01*
X143076666Y-86762966D01*
X143150185Y-86732513D01*
X143219652Y-86725045D01*
X143282131Y-86756320D01*
X143285316Y-86759394D01*
X146693151Y-90167229D01*
X146720031Y-90207457D01*
X146775985Y-90342544D01*
X146775990Y-90342553D01*
X146874535Y-90490034D01*
X146874538Y-90490038D01*
X146999961Y-90615461D01*
X146999965Y-90615464D01*
X147147446Y-90714009D01*
X147147459Y-90714016D01*
X147270363Y-90764923D01*
X147311334Y-90781894D01*
X147311336Y-90781894D01*
X147311341Y-90781896D01*
X147485304Y-90816499D01*
X147485307Y-90816500D01*
X147485309Y-90816500D01*
X147662693Y-90816500D01*
X147662694Y-90816499D01*
X147736658Y-90801787D01*
X147836658Y-90781896D01*
X147836661Y-90781894D01*
X147836666Y-90781894D01*
X147971755Y-90725939D01*
X148019207Y-90716500D01*
X163654844Y-90716500D01*
X163654845Y-90716499D01*
X163809497Y-90685737D01*
X163955179Y-90625394D01*
X164086289Y-90537789D01*
X165441258Y-89182818D01*
X165502581Y-89149334D01*
X165528939Y-89146500D01*
X165707360Y-89146500D01*
X165707361Y-89146500D01*
X165903636Y-89115413D01*
X166092632Y-89054005D01*
X166269694Y-88963787D01*
X166430464Y-88846981D01*
X166570981Y-88706464D01*
X166687787Y-88545694D01*
X166777601Y-88369424D01*
X166800402Y-88338043D01*
X167227000Y-87911445D01*
X167227000Y-87934160D01*
X167252964Y-88031061D01*
X167303124Y-88117940D01*
X167374060Y-88188876D01*
X167460939Y-88239036D01*
X167557840Y-88265000D01*
X167580553Y-88265000D01*
X166909283Y-88936268D01*
X166909283Y-88936269D01*
X166946567Y-88963358D01*
X167123562Y-89053542D01*
X167312477Y-89114924D01*
X167508679Y-89146000D01*
X167707321Y-89146000D01*
X167903520Y-89114924D01*
X167903523Y-89114924D01*
X168092437Y-89053542D01*
X168269425Y-88963362D01*
X168306716Y-88936268D01*
X167635448Y-88265000D01*
X167658160Y-88265000D01*
X167755061Y-88239036D01*
X167841940Y-88188876D01*
X167912876Y-88117940D01*
X167963036Y-88031061D01*
X167989000Y-87934160D01*
X167989000Y-87911447D01*
X168660268Y-88582715D01*
X168687362Y-88545425D01*
X168777542Y-88368437D01*
X168838924Y-88179523D01*
X168838924Y-88179520D01*
X168870000Y-87983321D01*
X168870000Y-87784678D01*
X168838924Y-87588479D01*
X168838924Y-87588476D01*
X168777542Y-87399562D01*
X168687358Y-87222567D01*
X168660268Y-87185283D01*
X167989000Y-87856551D01*
X167989000Y-87833840D01*
X167963036Y-87736939D01*
X167912876Y-87650060D01*
X167841940Y-87579124D01*
X167755061Y-87528964D01*
X167658160Y-87503000D01*
X167635446Y-87503000D01*
X168306715Y-86831730D01*
X168269430Y-86804639D01*
X168269424Y-86804636D01*
X168123396Y-86730230D01*
X168072600Y-86682256D01*
X168055805Y-86614435D01*
X168078343Y-86548300D01*
X168091996Y-86532080D01*
X169459259Y-85164819D01*
X169520582Y-85131334D01*
X169546940Y-85128500D01*
X175592844Y-85128500D01*
X175592845Y-85128499D01*
X175747497Y-85097737D01*
X175893179Y-85037394D01*
X176024289Y-84949789D01*
X177113574Y-83860504D01*
X178221782Y-82752297D01*
X178221783Y-82752295D01*
X178221788Y-82752290D01*
X178240357Y-82724500D01*
X178309394Y-82621179D01*
X178313757Y-82610647D01*
X178346708Y-82531094D01*
X178369737Y-82475497D01*
X178369737Y-82475494D01*
X178369739Y-82475490D01*
X178378548Y-82431205D01*
X178400499Y-82320846D01*
X178400500Y-82320844D01*
X178400500Y-79176940D01*
X178420185Y-79109901D01*
X178436819Y-79089259D01*
X178851904Y-78674174D01*
X179285389Y-78240689D01*
X179292724Y-78229711D01*
X179372994Y-78109579D01*
X179433337Y-77963897D01*
X179457559Y-77842127D01*
X179464100Y-77809243D01*
X179464100Y-77651558D01*
X179464100Y-64148407D01*
X179473539Y-64100955D01*
X179529492Y-63965870D01*
X179529494Y-63965866D01*
X179564100Y-63791891D01*
X179564100Y-63614509D01*
X179564100Y-63614506D01*
X179564099Y-63614504D01*
X179529496Y-63440541D01*
X179529493Y-63440532D01*
X179461616Y-63276659D01*
X179461609Y-63276646D01*
X179363064Y-63129165D01*
X179363061Y-63129161D01*
X179237638Y-63003738D01*
X179237634Y-63003735D01*
X179090153Y-62905190D01*
X179090140Y-62905183D01*
X178926267Y-62837306D01*
X178926258Y-62837303D01*
X178752294Y-62802700D01*
X178752291Y-62802700D01*
X178574909Y-62802700D01*
X178574906Y-62802700D01*
X178400941Y-62837303D01*
X178400932Y-62837306D01*
X178237059Y-62905183D01*
X178237046Y-62905190D01*
X178089565Y-63003735D01*
X178089561Y-63003738D01*
X177964138Y-63129161D01*
X177964135Y-63129165D01*
X177865590Y-63276646D01*
X177865583Y-63276659D01*
X177797706Y-63440532D01*
X177797703Y-63440541D01*
X177763100Y-63614504D01*
X177763100Y-63791895D01*
X177797704Y-63965858D01*
X177797707Y-63965870D01*
X177853661Y-64100955D01*
X177863100Y-64148407D01*
X177863100Y-77347459D01*
X177843415Y-77414498D01*
X177826781Y-77435140D01*
X177353098Y-77908822D01*
X177291775Y-77942307D01*
X177241228Y-77942759D01*
X177224842Y-77939500D01*
X176410894Y-77939500D01*
X176343855Y-77919815D01*
X176310577Y-77888387D01*
X176290104Y-77860208D01*
X176139792Y-77709896D01*
X176139786Y-77709890D01*
X175967820Y-77584951D01*
X175778414Y-77488444D01*
X175778413Y-77488443D01*
X175778412Y-77488443D01*
X175576243Y-77422754D01*
X175576241Y-77422753D01*
X175576240Y-77422753D01*
X175414957Y-77397208D01*
X175366287Y-77389500D01*
X175153713Y-77389500D01*
X175105042Y-77397208D01*
X174943760Y-77422753D01*
X174741585Y-77488444D01*
X174552179Y-77584951D01*
X174380213Y-77709890D01*
X174229890Y-77860213D01*
X174104949Y-78032182D01*
X174100202Y-78041499D01*
X174052227Y-78092293D01*
X173984405Y-78109087D01*
X173918271Y-78086548D01*
X173879234Y-78041495D01*
X173874626Y-78032452D01*
X173835270Y-77978282D01*
X173835269Y-77978282D01*
X173202962Y-78610590D01*
X173185925Y-78547007D01*
X173120099Y-78432993D01*
X173027007Y-78339901D01*
X172912993Y-78274075D01*
X172849409Y-78257037D01*
X173481716Y-77624728D01*
X173427550Y-77585375D01*
X173238217Y-77488904D01*
X173036129Y-77423242D01*
X172826246Y-77390000D01*
X172613754Y-77390000D01*
X172403872Y-77423242D01*
X172403869Y-77423242D01*
X172201782Y-77488904D01*
X172012439Y-77585380D01*
X171958282Y-77624727D01*
X171958282Y-77624728D01*
X172590591Y-78257037D01*
X172527007Y-78274075D01*
X172412993Y-78339901D01*
X172319901Y-78432993D01*
X172254075Y-78547007D01*
X172237037Y-78610591D01*
X171604728Y-77978282D01*
X171604727Y-77978282D01*
X171565380Y-78032440D01*
X171565376Y-78032446D01*
X171560760Y-78041505D01*
X171512781Y-78092297D01*
X171444959Y-78109087D01*
X171378826Y-78086543D01*
X171339794Y-78041493D01*
X171335051Y-78032184D01*
X171335049Y-78032181D01*
X171335048Y-78032179D01*
X171210109Y-77860213D01*
X171059786Y-77709890D01*
X170887820Y-77584951D01*
X170698414Y-77488444D01*
X170698413Y-77488443D01*
X170698412Y-77488443D01*
X170496243Y-77422754D01*
X170496241Y-77422753D01*
X170496240Y-77422753D01*
X170334957Y-77397208D01*
X170286287Y-77389500D01*
X170073713Y-77389500D01*
X170025042Y-77397208D01*
X169863760Y-77422753D01*
X169661585Y-77488444D01*
X169472184Y-77584948D01*
X169344245Y-77677901D01*
X169278438Y-77701380D01*
X169210384Y-77685554D01*
X169183679Y-77665263D01*
X167213975Y-75695559D01*
X167206686Y-75688270D01*
X167206684Y-75688267D01*
X167119559Y-75601142D01*
X167068194Y-75566821D01*
X167033926Y-75543923D01*
X167017111Y-75532687D01*
X166943890Y-75502359D01*
X166943889Y-75502358D01*
X166936618Y-75499347D01*
X166903278Y-75485537D01*
X166829072Y-75470777D01*
X166824842Y-75469935D01*
X166824829Y-75469932D01*
X166782437Y-75461500D01*
X166782433Y-75461500D01*
X166782432Y-75461500D01*
X162670100Y-75461500D01*
X162603061Y-75441815D01*
X162557306Y-75389011D01*
X162546100Y-75337500D01*
X162546100Y-75196906D01*
X162546099Y-75196904D01*
X162511496Y-75022941D01*
X162511493Y-75022932D01*
X162443616Y-74859059D01*
X162443609Y-74859046D01*
X162345064Y-74711565D01*
X162345061Y-74711561D01*
X162219638Y-74586138D01*
X162219634Y-74586135D01*
X162072153Y-74487590D01*
X162072140Y-74487583D01*
X161908267Y-74419706D01*
X161908258Y-74419703D01*
X161734294Y-74385100D01*
X161734291Y-74385100D01*
X161556909Y-74385100D01*
X161556906Y-74385100D01*
X161382941Y-74419703D01*
X161382933Y-74419706D01*
X161369164Y-74425409D01*
X161299694Y-74432873D01*
X161237216Y-74401595D01*
X161234037Y-74398526D01*
X159410479Y-72574968D01*
X159376994Y-72513645D01*
X159374160Y-72487287D01*
X159374160Y-71097836D01*
X159393845Y-71030797D01*
X159446649Y-70985042D01*
X159515807Y-70975098D01*
X159536462Y-70979901D01*
X159704241Y-71034416D01*
X159914197Y-71067670D01*
X159914198Y-71067670D01*
X160126770Y-71067670D01*
X160126771Y-71067670D01*
X160336727Y-71034416D01*
X160538896Y-70968727D01*
X160728300Y-70872221D01*
X160814622Y-70809505D01*
X160900270Y-70747279D01*
X160900272Y-70747276D01*
X160900276Y-70747274D01*
X161050588Y-70596962D01*
X161050590Y-70596958D01*
X161050593Y-70596956D01*
X161175532Y-70424990D01*
X161175531Y-70424990D01*
X161175535Y-70424986D01*
X161179998Y-70416224D01*
X161227972Y-70365429D01*
X161295792Y-70348633D01*
X161361928Y-70371169D01*
X161400970Y-70416226D01*
X161405435Y-70424990D01*
X161530374Y-70596956D01*
X161680697Y-70747279D01*
X161852663Y-70872218D01*
X161852665Y-70872219D01*
X161852668Y-70872221D01*
X162042072Y-70968727D01*
X162244241Y-71034416D01*
X162454197Y-71067670D01*
X162454198Y-71067670D01*
X162666770Y-71067670D01*
X162666771Y-71067670D01*
X162876727Y-71034416D01*
X163078896Y-70968727D01*
X163268300Y-70872221D01*
X163354622Y-70809505D01*
X163440270Y-70747279D01*
X163440272Y-70747276D01*
X163440276Y-70747274D01*
X163590588Y-70596962D01*
X163590590Y-70596958D01*
X163590593Y-70596956D01*
X163715532Y-70424990D01*
X163715531Y-70424990D01*
X163715535Y-70424986D01*
X163719998Y-70416224D01*
X163767972Y-70365429D01*
X163835792Y-70348633D01*
X163901928Y-70371169D01*
X163940970Y-70416226D01*
X163945435Y-70424990D01*
X164070374Y-70596956D01*
X164220697Y-70747279D01*
X164392663Y-70872218D01*
X164392665Y-70872219D01*
X164392668Y-70872221D01*
X164582072Y-70968727D01*
X164784241Y-71034416D01*
X164994197Y-71067670D01*
X164994198Y-71067670D01*
X165106031Y-71067670D01*
X165173070Y-71087355D01*
X165218825Y-71140159D01*
X165228769Y-71209317D01*
X165199744Y-71272873D01*
X165193712Y-71279351D01*
X164901155Y-71571907D01*
X164839832Y-71605392D01*
X164770140Y-71600408D01*
X164755032Y-71593590D01*
X164752035Y-71591988D01*
X164588151Y-71524106D01*
X164588142Y-71524103D01*
X164414178Y-71489500D01*
X164414175Y-71489500D01*
X164236793Y-71489500D01*
X164236790Y-71489500D01*
X164062825Y-71524103D01*
X164062816Y-71524106D01*
X163898943Y-71591983D01*
X163898930Y-71591990D01*
X163751449Y-71690535D01*
X163751445Y-71690538D01*
X163626022Y-71815961D01*
X163626019Y-71815965D01*
X163527474Y-71963446D01*
X163527467Y-71963459D01*
X163459590Y-72127332D01*
X163459587Y-72127341D01*
X163424984Y-72301304D01*
X163424984Y-72478695D01*
X163459587Y-72652658D01*
X163459590Y-72652667D01*
X163527467Y-72816540D01*
X163527474Y-72816553D01*
X163626019Y-72964034D01*
X163626022Y-72964038D01*
X163751445Y-73089461D01*
X163751449Y-73089464D01*
X163898930Y-73188009D01*
X163898943Y-73188016D01*
X163974097Y-73219145D01*
X164062818Y-73255894D01*
X164062820Y-73255894D01*
X164062825Y-73255896D01*
X164236788Y-73290499D01*
X164236791Y-73290500D01*
X164236793Y-73290500D01*
X164414177Y-73290500D01*
X164414178Y-73290499D01*
X164488011Y-73275813D01*
X164588142Y-73255896D01*
X164588145Y-73255894D01*
X164588150Y-73255894D01*
X164737237Y-73194141D01*
X164752024Y-73188016D01*
X164752024Y-73188015D01*
X164752031Y-73188013D01*
X164899519Y-73089464D01*
X164904546Y-73084437D01*
X165001965Y-72987019D01*
X165063288Y-72953534D01*
X165068938Y-72952441D01*
X165079216Y-72950700D01*
X165094061Y-72950700D01*
X165177446Y-72934114D01*
X165214906Y-72926663D01*
X165248649Y-72912686D01*
X165328740Y-72879512D01*
X165379963Y-72845284D01*
X165431187Y-72811058D01*
X165518312Y-72723933D01*
X165518312Y-72723931D01*
X165528520Y-72713724D01*
X165528521Y-72713721D01*
X167182647Y-71059596D01*
X167243968Y-71026113D01*
X167308643Y-71029348D01*
X167324241Y-71034416D01*
X167534197Y-71067670D01*
X167534198Y-71067670D01*
X167746770Y-71067670D01*
X167746771Y-71067670D01*
X167956727Y-71034416D01*
X168158896Y-70968727D01*
X168348300Y-70872221D01*
X168434622Y-70809505D01*
X168520270Y-70747279D01*
X168520272Y-70747276D01*
X168520276Y-70747274D01*
X168670588Y-70596962D01*
X168670590Y-70596958D01*
X168670593Y-70596956D01*
X168795532Y-70424990D01*
X168795531Y-70424990D01*
X168795535Y-70424986D01*
X168799998Y-70416224D01*
X168847972Y-70365429D01*
X168915792Y-70348633D01*
X168981928Y-70371169D01*
X169020970Y-70416226D01*
X169025435Y-70424990D01*
X169150374Y-70596956D01*
X169300697Y-70747279D01*
X169472663Y-70872218D01*
X169472665Y-70872219D01*
X169472668Y-70872221D01*
X169662072Y-70968727D01*
X169864241Y-71034416D01*
X170074197Y-71067670D01*
X170074198Y-71067670D01*
X170286770Y-71067670D01*
X170286771Y-71067670D01*
X170496727Y-71034416D01*
X170698896Y-70968727D01*
X170888300Y-70872221D01*
X170974622Y-70809505D01*
X171060270Y-70747279D01*
X171060272Y-70747276D01*
X171060276Y-70747274D01*
X171210588Y-70596962D01*
X171210590Y-70596958D01*
X171210593Y-70596956D01*
X171295522Y-70480060D01*
X171335535Y-70424986D01*
X171340277Y-70415678D01*
X171388247Y-70364881D01*
X171456067Y-70348081D01*
X171522203Y-70370615D01*
X171561247Y-70415670D01*
X171565857Y-70424717D01*
X171605212Y-70478886D01*
X172237521Y-69846578D01*
X172254559Y-69910163D01*
X172320385Y-70024177D01*
X172413477Y-70117269D01*
X172527491Y-70183095D01*
X172591074Y-70200132D01*
X171958766Y-70832439D01*
X171958766Y-70832440D01*
X172012933Y-70871794D01*
X172202266Y-70968265D01*
X172404354Y-71033927D01*
X172614238Y-71067170D01*
X172826730Y-71067170D01*
X173036611Y-71033927D01*
X173036614Y-71033927D01*
X173238701Y-70968265D01*
X173428038Y-70871792D01*
X173482200Y-70832440D01*
X173482201Y-70832440D01*
X172849892Y-70200132D01*
X172913477Y-70183095D01*
X173027491Y-70117269D01*
X173120583Y-70024177D01*
X173186409Y-69910163D01*
X173203446Y-69846578D01*
X173873665Y-70516798D01*
X173907150Y-70578121D01*
X173909984Y-70604470D01*
X173909984Y-70615035D01*
X173909985Y-70615046D01*
X173916392Y-70674653D01*
X173966686Y-70809498D01*
X173966690Y-70809505D01*
X174052936Y-70924714D01*
X174052939Y-70924717D01*
X174168148Y-71010963D01*
X174168155Y-71010967D01*
X174303001Y-71061261D01*
X174303000Y-71061261D01*
X174309928Y-71062005D01*
X174362611Y-71067670D01*
X176158356Y-71067669D01*
X176217967Y-71061261D01*
X176352815Y-71010966D01*
X176468030Y-70924716D01*
X176554280Y-70809501D01*
X176604575Y-70674653D01*
X176610984Y-70615043D01*
X176610983Y-68819298D01*
X176604575Y-68759687D01*
X176601148Y-68750500D01*
X176554281Y-68624841D01*
X176554277Y-68624834D01*
X176468031Y-68509625D01*
X176468028Y-68509622D01*
X176352819Y-68423376D01*
X176352812Y-68423372D01*
X176217966Y-68373078D01*
X176217967Y-68373078D01*
X176158367Y-68366671D01*
X176158365Y-68366670D01*
X176158357Y-68366670D01*
X176158348Y-68366670D01*
X174362613Y-68366670D01*
X174362607Y-68366671D01*
X174303000Y-68373078D01*
X174168155Y-68423372D01*
X174168148Y-68423376D01*
X174052939Y-68509622D01*
X174052936Y-68509625D01*
X173966690Y-68624834D01*
X173966686Y-68624841D01*
X173916392Y-68759687D01*
X173912785Y-68793241D01*
X173909985Y-68819293D01*
X173909984Y-68819305D01*
X173909984Y-68829860D01*
X173890299Y-68896899D01*
X173873665Y-68917541D01*
X173203446Y-69587760D01*
X173186409Y-69524177D01*
X173120583Y-69410163D01*
X173027491Y-69317071D01*
X172913477Y-69251245D01*
X172849892Y-69234207D01*
X173482200Y-68601898D01*
X173428034Y-68562545D01*
X173238701Y-68466074D01*
X173036613Y-68400412D01*
X172826730Y-68367170D01*
X172614238Y-68367170D01*
X172404356Y-68400412D01*
X172404353Y-68400412D01*
X172202266Y-68466074D01*
X172012930Y-68562546D01*
X171888585Y-68652888D01*
X171822778Y-68676367D01*
X171754724Y-68660541D01*
X171706030Y-68610435D01*
X171691700Y-68552569D01*
X171691700Y-63679740D01*
X171700344Y-63650299D01*
X171706868Y-63620313D01*
X171710622Y-63615297D01*
X171711385Y-63612701D01*
X171728019Y-63592059D01*
X171899259Y-63420819D01*
X171960582Y-63387334D01*
X171986940Y-63384500D01*
X172046693Y-63384500D01*
X172046694Y-63384499D01*
X172104682Y-63372964D01*
X172220658Y-63349896D01*
X172220661Y-63349894D01*
X172220666Y-63349894D01*
X172355755Y-63293939D01*
X172403207Y-63284500D01*
X175866158Y-63284500D01*
X175866159Y-63284499D01*
X176020811Y-63253737D01*
X176166493Y-63193394D01*
X176297603Y-63105789D01*
X178167789Y-61235603D01*
X178255394Y-61104493D01*
X178315738Y-60958811D01*
X178346500Y-60804156D01*
X178346500Y-60646471D01*
X178346500Y-55293158D01*
X178346500Y-50721158D01*
X178346500Y-50721155D01*
X178346499Y-50721153D01*
X178326363Y-50619923D01*
X178315737Y-50566503D01*
X178261811Y-50436312D01*
X178255397Y-50420827D01*
X178255390Y-50420814D01*
X178167790Y-50289712D01*
X178167789Y-50289711D01*
X178056289Y-50178211D01*
X177487183Y-49609105D01*
X176913292Y-49035213D01*
X176913288Y-49035210D01*
X176782185Y-48947609D01*
X176782172Y-48947602D01*
X176636501Y-48887264D01*
X176636489Y-48887261D01*
X176481845Y-48856500D01*
X176481842Y-48856500D01*
X176102207Y-48856500D01*
X176054755Y-48847061D01*
X175919667Y-48791106D01*
X175919658Y-48791103D01*
X175745694Y-48756500D01*
X175745691Y-48756500D01*
X175568309Y-48756500D01*
X175568306Y-48756500D01*
X175394341Y-48791103D01*
X175394332Y-48791106D01*
X175230459Y-48858983D01*
X175230446Y-48858990D01*
X175082965Y-48957535D01*
X175082961Y-48957538D01*
X174957538Y-49082961D01*
X174957535Y-49082965D01*
X174858990Y-49230446D01*
X174858983Y-49230459D01*
X174791106Y-49394332D01*
X174791103Y-49394341D01*
X174756500Y-49568304D01*
X174756500Y-49745695D01*
X174791103Y-49919658D01*
X174791106Y-49919667D01*
X174858983Y-50083540D01*
X174858990Y-50083553D01*
X174957535Y-50231034D01*
X174957538Y-50231038D01*
X175082961Y-50356461D01*
X175082967Y-50356466D01*
X175088359Y-50360069D01*
X175133163Y-50413681D01*
X175141870Y-50483006D01*
X175111715Y-50546034D01*
X175052271Y-50582752D01*
X175019467Y-50587170D01*
X174362639Y-50587170D01*
X174303111Y-50593571D01*
X174303104Y-50593573D01*
X174168397Y-50643815D01*
X174168390Y-50643819D01*
X174053296Y-50729979D01*
X174053293Y-50729982D01*
X173967133Y-50845076D01*
X173967130Y-50845082D01*
X173918061Y-50976641D01*
X173876189Y-51032574D01*
X173810725Y-51056991D01*
X173742452Y-51042139D01*
X173714198Y-51020988D01*
X173600270Y-50907060D01*
X173428304Y-50782121D01*
X173238898Y-50685614D01*
X173238897Y-50685613D01*
X173238896Y-50685613D01*
X173036727Y-50619924D01*
X173036725Y-50619923D01*
X173036724Y-50619923D01*
X172875441Y-50594378D01*
X172826771Y-50586670D01*
X172614197Y-50586670D01*
X172565526Y-50594378D01*
X172404244Y-50619923D01*
X172202069Y-50685614D01*
X172012663Y-50782121D01*
X171840697Y-50907060D01*
X171690374Y-51057383D01*
X171565433Y-51229352D01*
X171560968Y-51238116D01*
X171512993Y-51288912D01*
X171445172Y-51305706D01*
X171379037Y-51283168D01*
X171340000Y-51238116D01*
X171335534Y-51229352D01*
X171210593Y-51057383D01*
X171060270Y-50907060D01*
X170888304Y-50782121D01*
X170698898Y-50685614D01*
X170698897Y-50685613D01*
X170698896Y-50685613D01*
X170496727Y-50619924D01*
X170496725Y-50619923D01*
X170496724Y-50619923D01*
X170335441Y-50594378D01*
X170286771Y-50586670D01*
X170074197Y-50586670D01*
X170045490Y-50591216D01*
X169864241Y-50619923D01*
X169848642Y-50624992D01*
X169778801Y-50626986D01*
X169722645Y-50594741D01*
X168876100Y-49748196D01*
X168868774Y-49740870D01*
X168868772Y-49740867D01*
X168781647Y-49653742D01*
X168729190Y-49618691D01*
X168722572Y-49614269D01*
X168722563Y-49614261D01*
X168679202Y-49585289D01*
X168679200Y-49585288D01*
X168590505Y-49548550D01*
X168582060Y-49545052D01*
X168565366Y-49538137D01*
X168488692Y-49522886D01*
X168485702Y-49522291D01*
X168485697Y-49522290D01*
X168444522Y-49514100D01*
X168444521Y-49514100D01*
X168444520Y-49514100D01*
X167662154Y-49514100D01*
X167595115Y-49494415D01*
X167549360Y-49441611D01*
X167538154Y-49390100D01*
X167538154Y-49275906D01*
X167538153Y-49275904D01*
X167503550Y-49101941D01*
X167503547Y-49101932D01*
X167435670Y-48938059D01*
X167435663Y-48938046D01*
X167337118Y-48790565D01*
X167337115Y-48790561D01*
X167285819Y-48739265D01*
X167252334Y-48677942D01*
X167249500Y-48651584D01*
X167249500Y-46245782D01*
X167269185Y-46178743D01*
X167321989Y-46132988D01*
X167335169Y-46127855D01*
X167396412Y-46107957D01*
X167585816Y-46011451D01*
X167633252Y-45976987D01*
X167757786Y-45886509D01*
X167757788Y-45886506D01*
X167757792Y-45886504D01*
X167908104Y-45736192D01*
X167908106Y-45736188D01*
X167908109Y-45736186D01*
X168033048Y-45564220D01*
X168033047Y-45564220D01*
X168033051Y-45564216D01*
X168129557Y-45374812D01*
X168195246Y-45172643D01*
X168228500Y-44962687D01*
X168228500Y-44750113D01*
X168195246Y-44540157D01*
X168129557Y-44337988D01*
X168033051Y-44148584D01*
X168033049Y-44148581D01*
X168033048Y-44148579D01*
X167908109Y-43976613D01*
X167757786Y-43826290D01*
X167585820Y-43701351D01*
X167396414Y-43604844D01*
X167396413Y-43604843D01*
X167396412Y-43604843D01*
X167194243Y-43539154D01*
X167194241Y-43539153D01*
X167194240Y-43539153D01*
X167032957Y-43513608D01*
X166984287Y-43505900D01*
X166771713Y-43505900D01*
X166723042Y-43513608D01*
X166561760Y-43539153D01*
X166359585Y-43604844D01*
X166170179Y-43701351D01*
X165998213Y-43826290D01*
X165847890Y-43976613D01*
X165722949Y-44148582D01*
X165718484Y-44157346D01*
X165670509Y-44208142D01*
X165602688Y-44224936D01*
X165536553Y-44202398D01*
X165497516Y-44157346D01*
X165493050Y-44148582D01*
X165368109Y-43976613D01*
X165217786Y-43826290D01*
X165045820Y-43701351D01*
X164856414Y-43604844D01*
X164856413Y-43604843D01*
X164856412Y-43604843D01*
X164654243Y-43539154D01*
X164654241Y-43539153D01*
X164654240Y-43539153D01*
X164492957Y-43513608D01*
X164444287Y-43505900D01*
X164231713Y-43505900D01*
X164183042Y-43513608D01*
X164021760Y-43539153D01*
X163819585Y-43604844D01*
X163630179Y-43701351D01*
X163458213Y-43826290D01*
X163307890Y-43976613D01*
X163182949Y-44148582D01*
X163178484Y-44157346D01*
X163130509Y-44208142D01*
X163062688Y-44224936D01*
X162996553Y-44202398D01*
X162957516Y-44157346D01*
X162953050Y-44148582D01*
X162828109Y-43976613D01*
X162677786Y-43826290D01*
X162505820Y-43701351D01*
X162316414Y-43604844D01*
X162316413Y-43604843D01*
X162316412Y-43604843D01*
X162114243Y-43539154D01*
X162114241Y-43539153D01*
X162114240Y-43539153D01*
X161952957Y-43513608D01*
X161904287Y-43505900D01*
X161691713Y-43505900D01*
X161643042Y-43513608D01*
X161481760Y-43539153D01*
X161279585Y-43604844D01*
X161090179Y-43701351D01*
X160918213Y-43826290D01*
X160767890Y-43976613D01*
X160642949Y-44148582D01*
X160638484Y-44157346D01*
X160590509Y-44208142D01*
X160522688Y-44224936D01*
X160456553Y-44202398D01*
X160417516Y-44157346D01*
X160413050Y-44148582D01*
X160288109Y-43976613D01*
X160137786Y-43826290D01*
X159965820Y-43701351D01*
X159776414Y-43604844D01*
X159776413Y-43604843D01*
X159776412Y-43604843D01*
X159574243Y-43539154D01*
X159574241Y-43539153D01*
X159574240Y-43539153D01*
X159412957Y-43513608D01*
X159364287Y-43505900D01*
X159151713Y-43505900D01*
X159103042Y-43513608D01*
X158941760Y-43539153D01*
X158739585Y-43604844D01*
X158550179Y-43701351D01*
X158378215Y-43826289D01*
X158264285Y-43940219D01*
X158202962Y-43973703D01*
X158133270Y-43968719D01*
X158077337Y-43926847D01*
X158060422Y-43895870D01*
X158011354Y-43764313D01*
X158011350Y-43764306D01*
X157925190Y-43649212D01*
X157925187Y-43649209D01*
X157810093Y-43563049D01*
X157810086Y-43563045D01*
X157675379Y-43512803D01*
X157675372Y-43512801D01*
X157615844Y-43506400D01*
X156968000Y-43506400D01*
X156968000Y-44423388D01*
X156910993Y-44390475D01*
X156783826Y-44356400D01*
X156652174Y-44356400D01*
X156525007Y-44390475D01*
X156468000Y-44423388D01*
X156468000Y-43506400D01*
X155820155Y-43506400D01*
X155760627Y-43512801D01*
X155760620Y-43512803D01*
X155625913Y-43563045D01*
X155625906Y-43563049D01*
X155510812Y-43649209D01*
X155510809Y-43649212D01*
X155424649Y-43764306D01*
X155424645Y-43764313D01*
X155374403Y-43899020D01*
X155374401Y-43899027D01*
X155368000Y-43958555D01*
X155368000Y-44606400D01*
X156284988Y-44606400D01*
X156252075Y-44663407D01*
X156218000Y-44790574D01*
X156218000Y-44922226D01*
X156252075Y-45049393D01*
X156284988Y-45106400D01*
X155368000Y-45106400D01*
X155368000Y-45754244D01*
X155374401Y-45813772D01*
X155374403Y-45813779D01*
X155424645Y-45948486D01*
X155424649Y-45948493D01*
X155510809Y-46063587D01*
X155510812Y-46063590D01*
X155625906Y-46149750D01*
X155625913Y-46149754D01*
X155760620Y-46199996D01*
X155760627Y-46199998D01*
X155820155Y-46206399D01*
X155820172Y-46206400D01*
X156468000Y-46206400D01*
X156468000Y-45289412D01*
X156525007Y-45322325D01*
X156652174Y-45356400D01*
X156783826Y-45356400D01*
X156910993Y-45322325D01*
X156968000Y-45289412D01*
X156968000Y-46206400D01*
X157615828Y-46206400D01*
X157615844Y-46206399D01*
X157675372Y-46199998D01*
X157675379Y-46199996D01*
X157810086Y-46149754D01*
X157810093Y-46149750D01*
X157925187Y-46063590D01*
X157925190Y-46063587D01*
X158011350Y-45948493D01*
X158011354Y-45948486D01*
X158060422Y-45816929D01*
X158102293Y-45760995D01*
X158167757Y-45736578D01*
X158236030Y-45751430D01*
X158264285Y-45772581D01*
X158378213Y-45886509D01*
X158550181Y-46011450D01*
X158564792Y-46018894D01*
X158615589Y-46066867D01*
X158632500Y-46129380D01*
X158632500Y-48537419D01*
X158624386Y-48565048D01*
X158619156Y-48593378D01*
X158613963Y-48600547D01*
X158612815Y-48604458D01*
X158598908Y-48622286D01*
X158597560Y-48623721D01*
X158483717Y-48737565D01*
X158466483Y-48763355D01*
X158459478Y-48770819D01*
X158437827Y-48783545D01*
X158418557Y-48799649D01*
X158408222Y-48800946D01*
X158399243Y-48806225D01*
X158374149Y-48805225D01*
X158349232Y-48808355D01*
X158339836Y-48803859D01*
X158329429Y-48803445D01*
X158308857Y-48789036D01*
X158286205Y-48778198D01*
X158281389Y-48773633D01*
X157662094Y-48154338D01*
X157662091Y-48154334D01*
X157662091Y-48154335D01*
X157655024Y-48147268D01*
X157655024Y-48147267D01*
X157567899Y-48060142D01*
X157567898Y-48060141D01*
X157567897Y-48060140D01*
X157522491Y-48029801D01*
X157522490Y-48029800D01*
X157516675Y-48025915D01*
X157465452Y-47991688D01*
X157384958Y-47958347D01*
X157369623Y-47951995D01*
X157351619Y-47944537D01*
X157341593Y-47942543D01*
X157291195Y-47932518D01*
X157230776Y-47920500D01*
X157230773Y-47920500D01*
X157230772Y-47920500D01*
X144200006Y-47920500D01*
X144076793Y-47920500D01*
X144076788Y-47920500D01*
X143955955Y-47944535D01*
X143955947Y-47944537D01*
X143842116Y-47991687D01*
X143739665Y-48060142D01*
X143739662Y-48060145D01*
X139661629Y-52138181D01*
X139600306Y-52171666D01*
X139573948Y-52174500D01*
X112800453Y-52174500D01*
X112733414Y-52154815D01*
X112712772Y-52138181D01*
X110015895Y-49441304D01*
X134481500Y-49441304D01*
X134481500Y-49618695D01*
X134516103Y-49792658D01*
X134516106Y-49792667D01*
X134583983Y-49956540D01*
X134583990Y-49956553D01*
X134682535Y-50104034D01*
X134682538Y-50104038D01*
X134807961Y-50229461D01*
X134807965Y-50229464D01*
X134955446Y-50328009D01*
X134955459Y-50328016D01*
X135068864Y-50374989D01*
X135119334Y-50395894D01*
X135119336Y-50395894D01*
X135119341Y-50395896D01*
X135293304Y-50430499D01*
X135293307Y-50430500D01*
X135293309Y-50430500D01*
X135470693Y-50430500D01*
X135470694Y-50430499D01*
X135528682Y-50418964D01*
X135644658Y-50395896D01*
X135644661Y-50395894D01*
X135644666Y-50395894D01*
X135808547Y-50328013D01*
X135956035Y-50229464D01*
X135993679Y-50191820D01*
X136055001Y-50158334D01*
X136081361Y-50155500D01*
X140726807Y-50155500D01*
X140787229Y-50143481D01*
X140847652Y-50131463D01*
X140880992Y-50117652D01*
X140961486Y-50084312D01*
X141012709Y-50050084D01*
X141063933Y-50015858D01*
X141151058Y-49928733D01*
X141151058Y-49928731D01*
X141161266Y-49918524D01*
X141161267Y-49918521D01*
X145286572Y-45793219D01*
X145347895Y-45759734D01*
X145374253Y-45756900D01*
X145427493Y-45756900D01*
X145427494Y-45756899D01*
X145485482Y-45745364D01*
X145601458Y-45722296D01*
X145601461Y-45722294D01*
X145601466Y-45722294D01*
X145765347Y-45654413D01*
X145912835Y-45555864D01*
X146006820Y-45461878D01*
X146068141Y-45428395D01*
X146137833Y-45433379D01*
X146193767Y-45475250D01*
X146218184Y-45540714D01*
X146218500Y-45549560D01*
X146218500Y-45754269D01*
X146218501Y-45754276D01*
X146224908Y-45813883D01*
X146275202Y-45948728D01*
X146275206Y-45948735D01*
X146361452Y-46063944D01*
X146361455Y-46063947D01*
X146476664Y-46150193D01*
X146476671Y-46150197D01*
X146611517Y-46200491D01*
X146611516Y-46200491D01*
X146618444Y-46201235D01*
X146671127Y-46206900D01*
X148466872Y-46206899D01*
X148526483Y-46200491D01*
X148661331Y-46150196D01*
X148776546Y-46063946D01*
X148862796Y-45948731D01*
X148913091Y-45813883D01*
X148919500Y-45754273D01*
X148919499Y-45730379D01*
X148922330Y-45717363D01*
X148932940Y-45697925D01*
X148939179Y-45676675D01*
X148955803Y-45656043D01*
X148955808Y-45656036D01*
X148955811Y-45656034D01*
X148955818Y-45656026D01*
X149626037Y-44985808D01*
X149643075Y-45049393D01*
X149708901Y-45163407D01*
X149801993Y-45256499D01*
X149916007Y-45322325D01*
X149979590Y-45339362D01*
X149347282Y-45971669D01*
X149347282Y-45971670D01*
X149401449Y-46011024D01*
X149590782Y-46107495D01*
X149792870Y-46173157D01*
X150002754Y-46206400D01*
X150215246Y-46206400D01*
X150425127Y-46173157D01*
X150425130Y-46173157D01*
X150627217Y-46107495D01*
X150816554Y-46011022D01*
X150870716Y-45971670D01*
X150870717Y-45971670D01*
X150238408Y-45339362D01*
X150301993Y-45322325D01*
X150416007Y-45256499D01*
X150509099Y-45163407D01*
X150574925Y-45049393D01*
X150591962Y-44985808D01*
X151224270Y-45618117D01*
X151224270Y-45618116D01*
X151263622Y-45563954D01*
X151360095Y-45374617D01*
X151425757Y-45172530D01*
X151425757Y-45172527D01*
X151447439Y-45035640D01*
X151459000Y-44962646D01*
X151459000Y-44750153D01*
X151425757Y-44540272D01*
X151425757Y-44540269D01*
X151360095Y-44338182D01*
X151263624Y-44148849D01*
X151224270Y-44094682D01*
X151224269Y-44094682D01*
X150591962Y-44726990D01*
X150574925Y-44663407D01*
X150509099Y-44549393D01*
X150416007Y-44456301D01*
X150301993Y-44390475D01*
X150238409Y-44373437D01*
X150744275Y-43867570D01*
X150870716Y-43741128D01*
X150816550Y-43701775D01*
X150627217Y-43605304D01*
X150425129Y-43539642D01*
X150215246Y-43506400D01*
X150002754Y-43506400D01*
X149792872Y-43539642D01*
X149792869Y-43539642D01*
X149590782Y-43605304D01*
X149401439Y-43701780D01*
X149347282Y-43741127D01*
X149347282Y-43741128D01*
X149979591Y-44373437D01*
X149916007Y-44390475D01*
X149801993Y-44456301D01*
X149708901Y-44549393D01*
X149643075Y-44663407D01*
X149626037Y-44726991D01*
X148955818Y-44056772D01*
X148922333Y-43995449D01*
X148922330Y-43995436D01*
X148919499Y-43982415D01*
X148919499Y-43958528D01*
X148913091Y-43898917D01*
X148883394Y-43819295D01*
X148862798Y-43764073D01*
X148862793Y-43764064D01*
X148776547Y-43648855D01*
X148776544Y-43648852D01*
X148661335Y-43562606D01*
X148661328Y-43562602D01*
X148526482Y-43512308D01*
X148526483Y-43512308D01*
X148466883Y-43505901D01*
X148466881Y-43505900D01*
X148466873Y-43505900D01*
X148466864Y-43505900D01*
X146671129Y-43505900D01*
X146671123Y-43505901D01*
X146611516Y-43512308D01*
X146476671Y-43562602D01*
X146476664Y-43562606D01*
X146361455Y-43648852D01*
X146361452Y-43648855D01*
X146275206Y-43764064D01*
X146275202Y-43764071D01*
X146224908Y-43898917D01*
X146218501Y-43958516D01*
X146218500Y-43958535D01*
X146218500Y-44163238D01*
X146198815Y-44230277D01*
X146146011Y-44276032D01*
X146076853Y-44285976D01*
X146013297Y-44256951D01*
X146006819Y-44250919D01*
X145912838Y-44156938D01*
X145912834Y-44156935D01*
X145765353Y-44058390D01*
X145765340Y-44058383D01*
X145601467Y-43990506D01*
X145601458Y-43990503D01*
X145427494Y-43955900D01*
X145427491Y-43955900D01*
X145250109Y-43955900D01*
X145250106Y-43955900D01*
X145076141Y-43990503D01*
X145076132Y-43990506D01*
X144912259Y-44058383D01*
X144912246Y-44058390D01*
X144764765Y-44156935D01*
X144764761Y-44156938D01*
X144639338Y-44282361D01*
X144639335Y-44282365D01*
X144540790Y-44429846D01*
X144540783Y-44429859D01*
X144472906Y-44593732D01*
X144472903Y-44593741D01*
X144438300Y-44767704D01*
X144438300Y-44820947D01*
X144418615Y-44887986D01*
X144401981Y-44908628D01*
X140442429Y-48868181D01*
X140381106Y-48901666D01*
X140354748Y-48904500D01*
X136081361Y-48904500D01*
X136014322Y-48884815D01*
X135993679Y-48868180D01*
X135956038Y-48830538D01*
X135956034Y-48830535D01*
X135808553Y-48731990D01*
X135808540Y-48731983D01*
X135644667Y-48664106D01*
X135644658Y-48664103D01*
X135470694Y-48629500D01*
X135470691Y-48629500D01*
X135293309Y-48629500D01*
X135293306Y-48629500D01*
X135119341Y-48664103D01*
X135119332Y-48664106D01*
X134955459Y-48731983D01*
X134955446Y-48731990D01*
X134807965Y-48830535D01*
X134807961Y-48830538D01*
X134682538Y-48955961D01*
X134682535Y-48955965D01*
X134583990Y-49103446D01*
X134583983Y-49103459D01*
X134516106Y-49267332D01*
X134516103Y-49267341D01*
X134481500Y-49441304D01*
X110015895Y-49441304D01*
X109899319Y-49324728D01*
X109865834Y-49263405D01*
X109863000Y-49237047D01*
X109863000Y-47474361D01*
X109882685Y-47407322D01*
X109899320Y-47386679D01*
X109936961Y-47349038D01*
X109936964Y-47349035D01*
X110035513Y-47201547D01*
X110103394Y-47037666D01*
X110138000Y-46863691D01*
X110138000Y-46686309D01*
X110138000Y-46686306D01*
X110137999Y-46686304D01*
X110103396Y-46512341D01*
X110103393Y-46512332D01*
X110035516Y-46348459D01*
X110035509Y-46348446D01*
X109936964Y-46200965D01*
X109936961Y-46200961D01*
X109811538Y-46075538D01*
X109811534Y-46075535D01*
X109664053Y-45976990D01*
X109664040Y-45976983D01*
X109500167Y-45909106D01*
X109500158Y-45909103D01*
X109326194Y-45874500D01*
X109326191Y-45874500D01*
X109148809Y-45874500D01*
X109148806Y-45874500D01*
X108974841Y-45909103D01*
X108974832Y-45909106D01*
X108810959Y-45976983D01*
X108810946Y-45976990D01*
X108663465Y-46075535D01*
X108663461Y-46075538D01*
X108538038Y-46200961D01*
X108538035Y-46200965D01*
X108439490Y-46348446D01*
X108439483Y-46348459D01*
X108371606Y-46512332D01*
X108371603Y-46512341D01*
X108337000Y-46686304D01*
X91500500Y-46686304D01*
X91500500Y-45003750D01*
X91500726Y-44996263D01*
X91506027Y-44908628D01*
X91518271Y-44706201D01*
X91520076Y-44691340D01*
X91525244Y-44663142D01*
X91571780Y-44409197D01*
X91575364Y-44394663D01*
X91576669Y-44390475D01*
X91660696Y-44120822D01*
X91665998Y-44106841D01*
X91783731Y-43845249D01*
X91790676Y-43832016D01*
X91939080Y-43586526D01*
X91947567Y-43574230D01*
X92124480Y-43348417D01*
X92134395Y-43337226D01*
X92337226Y-43134395D01*
X92348417Y-43124480D01*
X92574230Y-42947567D01*
X92586526Y-42939080D01*
X92832016Y-42790676D01*
X92845249Y-42783731D01*
X93106841Y-42665998D01*
X93120822Y-42660696D01*
X93394668Y-42575362D01*
X93409197Y-42571780D01*
X93691344Y-42520075D01*
X93706201Y-42518271D01*
X93996264Y-42500726D01*
X94003751Y-42500500D01*
X94065892Y-42500500D01*
X177934108Y-42500500D01*
X177996249Y-42500500D01*
X178003736Y-42500726D01*
G37*
%TD.AperFunction*%
%TD*%
M02*
