M48
; DRILL file {KiCad 9.0.7} date 2026-02-04T22:23:52+0200
; FORMAT={-:-/ absolute / metric / decimal}
; #@! TF.CreationDate,2026-02-04T22:23:52+02:00
; #@! TF.GenerationSoftware,Kicad,Pcbnew,9.0.7
; #@! TF.FileFunction,Plated,1,2,PTH
FMAT,2
METRIC
; #@! TA.AperFunction,Plated,PTH,ViaDrill
T1C0.400
; #@! TA.AperFunction,Plated,PTH,ComponentDrill
T2C0.500
; #@! TA.AperFunction,Plated,PTH,ComponentDrill
T3C0.600
; #@! TA.AperFunction,Plated,PTH,ComponentDrill
T4C0.730
; #@! TA.AperFunction,Plated,PTH,ComponentDrill
T5C0.750
; #@! TA.AperFunction,Plated,PTH,ComponentDrill
T6C0.762
; #@! TA.AperFunction,Plated,PTH,ComponentDrill
T7C0.800
; #@! TA.AperFunction,Plated,PTH,ComponentDrill
T8C1.000
; #@! TA.AperFunction,Plated,PTH,ComponentDrill
T9C1.100
; #@! TA.AperFunction,Plated,PTH,ComponentDrill
T10C2.500
%
G90
G05
T1
X93.345Y-77.47
X93.345Y-81.915
X94.615Y-54.61
X94.615Y-61.595
X94.615Y-67.945
X99.695Y-44.45
X100.33Y-85.725
X100.965Y-67.945
X102.235Y-85.725
X103.124Y-72.517
X103.378Y-50.038
X103.505Y-58.42
X107.188Y-50.038
X108.094Y-62.15
X109.22Y-88.9
X109.237Y-46.775
X109.728Y-63.246
X109.855Y-67.31
X111.125Y-48.26
X111.893Y-71.084
X113.665Y-44.45
X114.046Y-74.168
X114.2Y-50.2
X115.094Y-62.15
X116.84Y-78.994
X116.84Y-88.9
X119.888Y-49.174
X120.65Y-71.755
X123.19Y-44.45
X123.2Y-63.8
X123.52Y-81.102
X124.46Y-51.41
X124.46Y-53.975
X124.46Y-88.9
X125.374Y-69.24
X126.746Y-81.686
X127.254Y-77.216
X127.508Y-68.428
X128.981Y-82.855
X130.861Y-73.457
X133.096Y-81.026
X133.6Y-84.074
X133.604Y-76.048
X134.264Y-51.41
X134.264Y-54.204
X134.518Y-72.847
X134.671Y-68.478
X134.671Y-69.748
X135.128Y-63.195
X135.23Y-66.802
X135.382Y-49.53
X135.475Y-85.865
X135.509Y-84.816
X135.687Y-76.048
X136.601Y-62.636
X136.742Y-71.476
X137.16Y-88.9
X137.312Y-51.41
X137.312Y-54.204
X137.363Y-60.503
X137.363Y-61.861
X138.811Y-78.435
X139.344Y-47.854
X141.224Y-76.657
X141.326Y-65.329
X141.375Y-62.686
X141.427Y-85.865
X141.5Y-60.046
X141.935Y-84.315
X142.814Y-85.897
X143.764Y-81.4
X144.323Y-88.9
X144.374Y-47.346
X144.678Y-64.618
X145.186Y-80.315
X145.339Y-44.856
X145.954Y-85.128
X146.202Y-68.428
X147.574Y-89.916
X147.726Y-87.782
X155.848Y-72.41
X156.362Y-50.14
X156.413Y-54.153
X156.972Y-67.412
X157.429Y-56.51
X157.531Y-75.336
X157.582Y-85.852
X158.191Y-48.209
X158.479Y-56.484
X159.183Y-49.312
X159.664Y-54.175
X160.477Y-66.04
X160.528Y-49.365
X161.646Y-75.286
X161.8Y-49.365
X162.979Y-65.865
X163.068Y-75.286
X164.2Y-49.365
X164.325Y-72.39
X164.694Y-65.989
X166.37Y-59.69
X166.638Y-49.365
X166.675Y-75.286
X166.863Y-65.721
X167.792Y-55.474
X167.945Y-65.735
X168.453Y-47.396
X168.91Y-59.69
X169.469Y-85.954
X169.723Y-65.989
X171.958Y-62.484
X172.161Y-65.989
X175.26Y-55.118
X175.657Y-49.657
X177.292Y-76.556
X177.394Y-70.155
X177.495Y-66.04
X178.664Y-63.703
X179.07Y-55.626
X179.07Y-60.198
X179.375Y-79.146
X179.832Y-65.989
X179.832Y-70.206
T2
X93.125Y-46.0
X93.125Y-88.0
X93.674Y-44.674
X93.674Y-47.326
X93.674Y-86.674
X93.674Y-89.326
X95.0Y-44.125
X95.0Y-47.875
X95.0Y-86.125
X95.0Y-89.875
X96.326Y-44.674
X96.326Y-47.326
X96.326Y-86.674
X96.326Y-89.326
X96.875Y-46.0
X96.875Y-88.0
X174.125Y-46.0
X174.125Y-88.0
X174.674Y-44.674
X174.674Y-47.326
X174.674Y-86.674
X174.674Y-89.326
X176.0Y-44.125
X176.0Y-47.875
X176.0Y-86.125
X176.0Y-89.875
X177.326Y-44.674
X177.326Y-47.326
X177.326Y-86.674
X177.326Y-89.326
X177.875Y-46.0
X177.875Y-88.0
T4
X144.9Y-52.0
X144.9Y-53.5
X144.9Y-55.0
X144.9Y-56.5
X144.9Y-58.0
T5
X97.75Y-52.7
X97.75Y-54.7
X97.75Y-59.6
X97.75Y-61.6
T6
X143.6Y-66.6
X143.6Y-68.6
X143.6Y-70.6
X143.6Y-72.6
X161.608Y-87.884
X163.608Y-87.884
X165.608Y-87.884
X167.608Y-87.884
T7
X102.35Y-60.6
X104.85Y-60.6
T8
X95.652Y-71.307
X98.192Y-71.307
X100.733Y-71.307
X105.8Y-83.6
X105.8Y-86.14
X120.59Y-83.725
X120.59Y-86.265
X147.569Y-44.856
X150.109Y-44.856
X156.718Y-44.856
X157.48Y-78.74
X157.48Y-81.28
X157.48Y-51.937
X157.48Y-69.717
X157.55Y-58.42
X157.55Y-60.96
X159.258Y-44.856
X160.02Y-78.74
X160.02Y-81.28
X160.02Y-51.937
X160.02Y-69.717
X160.09Y-58.42
X160.09Y-60.96
X161.798Y-44.856
X162.56Y-78.74
X162.56Y-81.28
X162.56Y-51.937
X162.56Y-69.717
X162.63Y-58.42
X162.63Y-60.96
X164.338Y-44.856
X165.1Y-78.74
X165.1Y-81.28
X165.1Y-51.937
X165.1Y-69.717
X165.17Y-58.42
X165.17Y-60.96
X166.878Y-44.856
X167.64Y-78.74
X167.64Y-81.28
X167.64Y-51.937
X167.64Y-69.717
X167.71Y-58.42
X167.71Y-60.96
X170.18Y-78.74
X170.18Y-81.28
X170.18Y-51.937
X170.18Y-69.717
X170.25Y-58.42
X170.25Y-60.96
X172.72Y-78.74
X172.72Y-81.28
X172.72Y-51.937
X172.72Y-69.717
X172.79Y-58.42
X172.79Y-60.96
X175.26Y-78.74
X175.26Y-81.28
X175.26Y-51.937
X175.26Y-69.717
X175.33Y-58.42
X175.33Y-60.96
T9
X106.42Y-67.15
X108.458Y-70.714
X110.744Y-74.168
X116.58Y-67.15
X118.618Y-70.714
X120.904Y-74.168
X123.19Y-57.15
X123.19Y-67.31
T10
X95.0Y-46.0
X95.0Y-88.0
X176.0Y-46.0
X176.0Y-88.0
T3
G00X93.932Y-75.26
M15
G01X93.332Y-75.26
M16
G05
G00X93.932Y-83.9
M15
G01X93.332Y-83.9
M16
G05
G00X97.732Y-75.26
M15
G01X97.132Y-75.26
M16
G05
G00X97.732Y-83.9
M15
G01X97.132Y-83.9
M16
G05
M30
