%TF.GenerationSoftware,KiCad,Pcbnew,9.0.7*%
%TF.CreationDate,2026-02-04T22:23:49+02:00*%
%TF.ProjectId,isd-board-dual-socket,6973642d-626f-4617-9264-2d6475616c2d,rev?*%
%TF.SameCoordinates,Original*%
%TF.FileFunction,Soldermask,Top*%
%TF.FilePolarity,Negative*%
%FSLAX46Y46*%
G04 Gerber Fmt 4.6, Leading zero omitted, Abs format (unit mm)*
G04 Created by KiCad (PCBNEW 9.0.7) date 2026-02-04 22:23:49*
%MOMM*%
%LPD*%
G01*
G04 APERTURE LIST*
G04 Aperture macros list*
%AMRoundRect*
0 Rectangle with rounded corners*
0 $1 Rounding radius*
0 $2 $3 $4 $5 $6 $7 $8 $9 X,Y pos of 4 corners*
0 Add a 4 corners polygon primitive as box body*
4,1,4,$2,$3,$4,$5,$6,$7,$8,$9,$2,$3,0*
0 Add four circle primitives for the rounded corners*
1,1,$1+$1,$2,$3*
1,1,$1+$1,$4,$5*
1,1,$1+$1,$6,$7*
1,1,$1+$1,$8,$9*
0 Add four rect primitives between the rounded corners*
20,1,$1+$1,$2,$3,$4,$5,0*
20,1,$1+$1,$4,$5,$6,$7,0*
20,1,$1+$1,$6,$7,$8,$9,0*
20,1,$1+$1,$8,$9,$2,$3,0*%
G04 Aperture macros list end*
%ADD10RoundRect,0.250001X-0.462499X-1.074999X0.462499X-1.074999X0.462499X1.074999X-0.462499X1.074999X0*%
%ADD11R,1.700000X1.700000*%
%ADD12C,1.700000*%
%ADD13RoundRect,0.249999X-0.850001X0.850001X-0.850001X-0.850001X0.850001X-0.850001X0.850001X0.850001X0*%
%ADD14C,2.200000*%
%ADD15RoundRect,0.162500X-0.162500X0.617500X-0.162500X-0.617500X0.162500X-0.617500X0.162500X0.617500X0*%
%ADD16RoundRect,0.250000X-0.615000X0.265000X-0.615000X-0.265000X0.615000X-0.265000X0.615000X0.265000X0*%
%ADD17O,1.730000X1.030000*%
%ADD18C,0.800000*%
%ADD19C,5.000000*%
%ADD20RoundRect,0.250000X0.337500X0.475000X-0.337500X0.475000X-0.337500X-0.475000X0.337500X-0.475000X0*%
%ADD21RoundRect,0.250000X-0.625000X0.350000X-0.625000X-0.350000X0.625000X-0.350000X0.625000X0.350000X0*%
%ADD22O,1.750000X1.200000*%
%ADD23RoundRect,0.250000X-0.475000X0.337500X-0.475000X-0.337500X0.475000X-0.337500X0.475000X0.337500X0*%
%ADD24RoundRect,0.249999X0.850001X0.850001X-0.850001X0.850001X-0.850001X-0.850001X0.850001X-0.850001X0*%
%ADD25RoundRect,0.250000X-0.337500X-0.475000X0.337500X-0.475000X0.337500X0.475000X-0.337500X0.475000X0*%
%ADD26RoundRect,0.250000X-0.450000X0.350000X-0.450000X-0.350000X0.450000X-0.350000X0.450000X0.350000X0*%
%ADD27R,1.500000X1.500000*%
%ADD28R,3.600000X1.500000*%
%ADD29R,1.500000X2.300000*%
%ADD30O,1.500000X2.300000*%
%ADD31RoundRect,0.162500X0.162500X-0.617500X0.162500X0.617500X-0.162500X0.617500X-0.162500X-0.617500X0*%
%ADD32RoundRect,0.150000X-0.200000X0.150000X-0.200000X-0.150000X0.200000X-0.150000X0.200000X0.150000X0*%
%ADD33RoundRect,0.250000X0.450000X-0.350000X0.450000X0.350000X-0.450000X0.350000X-0.450000X-0.350000X0*%
%ADD34C,1.600000*%
%ADD35RoundRect,0.250001X-1.074999X0.462499X-1.074999X-0.462499X1.074999X-0.462499X1.074999X0.462499X0*%
%ADD36RoundRect,0.125000X0.125000X0.375000X-0.125000X0.375000X-0.125000X-0.375000X0.125000X-0.375000X0*%
%ADD37RoundRect,0.162500X-0.617500X-0.162500X0.617500X-0.162500X0.617500X0.162500X-0.617500X0.162500X0*%
%ADD38RoundRect,0.175000X-0.425000X0.175000X-0.425000X-0.175000X0.425000X-0.175000X0.425000X0.175000X0*%
%ADD39RoundRect,0.190000X0.410000X-0.190000X0.410000X0.190000X-0.410000X0.190000X-0.410000X-0.190000X0*%
%ADD40RoundRect,0.200000X0.400000X-0.200000X0.400000X0.200000X-0.400000X0.200000X-0.400000X-0.200000X0*%
%ADD41RoundRect,0.175000X0.425000X-0.175000X0.425000X0.175000X-0.425000X0.175000X-0.425000X-0.175000X0*%
%ADD42RoundRect,0.190000X-0.410000X0.190000X-0.410000X-0.190000X0.410000X-0.190000X0.410000X0.190000X0*%
%ADD43RoundRect,0.200000X-0.400000X0.200000X-0.400000X-0.200000X0.400000X-0.200000X0.400000X0.200000X0*%
%ADD44O,1.700000X1.100000*%
%ADD45RoundRect,0.250000X0.325000X0.450000X-0.325000X0.450000X-0.325000X-0.450000X0.325000X-0.450000X0*%
%ADD46R,1.524000X1.524000*%
%ADD47C,1.524000*%
%ADD48RoundRect,0.150000X-0.150000X-0.200000X0.150000X-0.200000X0.150000X0.200000X-0.150000X0.200000X0*%
%ADD49RoundRect,0.250000X0.475000X-0.337500X0.475000X0.337500X-0.475000X0.337500X-0.475000X-0.337500X0*%
%ADD50RoundRect,0.250000X0.350000X0.450000X-0.350000X0.450000X-0.350000X-0.450000X0.350000X-0.450000X0*%
%ADD51R,0.250000X0.720000*%
%ADD52R,0.250000X0.520000*%
%ADD53R,0.300000X0.850000*%
%ADD54RoundRect,0.150000X-0.150000X0.512500X-0.150000X-0.512500X0.150000X-0.512500X0.150000X0.512500X0*%
%ADD55C,1.000000*%
%ADD56RoundRect,0.200000X0.200000X-0.750000X0.200000X0.750000X-0.200000X0.750000X-0.200000X-0.750000X0*%
G04 APERTURE END LIST*
D10*
%TO.C,F4*%
X102689000Y-53594000D03*
X105664000Y-53594000D03*
%TD*%
D11*
%TO.C,J4*%
X157480000Y-78740000D03*
D12*
X157480000Y-81280000D03*
X160020000Y-78740000D03*
X160020000Y-81280000D03*
X162560000Y-78740000D03*
X162560000Y-81280000D03*
X165100000Y-78740000D03*
X165100000Y-81280000D03*
X167640000Y-78740000D03*
X167640000Y-81280000D03*
X170180000Y-78740000D03*
X170180000Y-81280000D03*
X172720000Y-78740000D03*
X172720000Y-81280000D03*
X175260000Y-78740000D03*
X175260000Y-81280000D03*
%TD*%
D13*
%TO.C,D1*%
X123190000Y-57150000D03*
D14*
X123190000Y-67310000D03*
%TD*%
D15*
%TO.C,U4*%
X119650000Y-59150000D03*
X118700000Y-59150000D03*
X117750000Y-59150000D03*
X117750000Y-61850000D03*
X119650000Y-61850000D03*
%TD*%
D16*
%TO.C,J6*%
X144900000Y-52000000D03*
D17*
X144900000Y-53500000D03*
X144900000Y-55000000D03*
X144900000Y-56500000D03*
X144900000Y-58000000D03*
%TD*%
D18*
%TO.C,H2*%
X174125000Y-88000000D03*
X174674175Y-86674175D03*
X174674175Y-89325825D03*
X176000000Y-86125000D03*
D19*
X176000000Y-88000000D03*
D18*
X176000000Y-89875000D03*
X177325825Y-86674175D03*
X177325825Y-89325825D03*
X177875000Y-88000000D03*
%TD*%
D20*
%TO.C,C9*%
X122936000Y-51511200D03*
X120861000Y-51511200D03*
%TD*%
D21*
%TO.C,J1*%
X97750000Y-52700000D03*
D22*
X97750000Y-54700000D03*
%TD*%
D23*
%TO.C,C6*%
X105562400Y-69959400D03*
X105562400Y-72034400D03*
%TD*%
D24*
%TO.C,D8*%
X116580000Y-67150000D03*
D14*
X106420000Y-67150000D03*
%TD*%
D11*
%TO.C,J15*%
X105800000Y-83600000D03*
D12*
X105800000Y-86140000D03*
%TD*%
D25*
%TO.C,C3*%
X129962500Y-75438000D03*
X132037500Y-75438000D03*
%TD*%
D24*
%TO.C,D7*%
X118618000Y-70713600D03*
D14*
X108458000Y-70713600D03*
%TD*%
D26*
%TO.C,R14*%
X100236568Y-82060000D03*
X100236568Y-84060000D03*
%TD*%
D27*
%TO.C,TP6*%
X99837500Y-48700000D03*
%TD*%
D28*
%TO.C,L2*%
X117729000Y-47244000D03*
X117729000Y-44194000D03*
%TD*%
D29*
%TO.C,U2*%
X95652500Y-71307500D03*
D30*
X98192500Y-71307500D03*
X100732500Y-71307500D03*
%TD*%
D25*
%TO.C,C5*%
X135382000Y-47879000D03*
X137457000Y-47879000D03*
%TD*%
D11*
%TO.C,J10*%
X175260484Y-51937170D03*
D12*
X172720484Y-51937170D03*
X170180484Y-51937170D03*
X167640484Y-51937170D03*
X165100484Y-51937170D03*
X162560484Y-51937170D03*
X160020484Y-51937170D03*
X157480484Y-51937170D03*
%TD*%
D31*
%TO.C,U1*%
X113143750Y-60600000D03*
X114093750Y-60600000D03*
X115043750Y-60600000D03*
X115043750Y-57900000D03*
X114093750Y-57900000D03*
X113143750Y-57900000D03*
%TD*%
D32*
%TO.C,D2*%
X123494800Y-83718400D03*
X123494800Y-82318400D03*
%TD*%
D33*
%TO.C,R3*%
X135530500Y-45878250D03*
X135530500Y-43878250D03*
%TD*%
D34*
%TO.C,C4*%
X102350000Y-60600000D03*
X104850000Y-60600000D03*
%TD*%
D35*
%TO.C,F3*%
X109727999Y-79284501D03*
X109728001Y-82259499D03*
%TD*%
D18*
%TO.C,H1*%
X174125000Y-46000000D03*
X174674175Y-44674175D03*
X174674175Y-47325825D03*
X176000000Y-44125000D03*
D19*
X176000000Y-46000000D03*
D18*
X176000000Y-47875000D03*
X177325825Y-44674175D03*
X177325825Y-47325825D03*
X177875000Y-46000000D03*
%TD*%
D31*
%TO.C,U5*%
X121400000Y-49043544D03*
X122350000Y-49043544D03*
X123300000Y-49043544D03*
X123300000Y-46343544D03*
X121400000Y-46343544D03*
%TD*%
D36*
%TO.C,U6*%
X132181600Y-84286500D03*
X131381600Y-84286500D03*
X130581600Y-84286500D03*
X129781600Y-84286500D03*
X129781600Y-81486500D03*
X130581600Y-81486500D03*
X131381600Y-81486500D03*
X132181600Y-81486500D03*
%TD*%
D27*
%TO.C,TP5*%
X123698000Y-77470000D03*
%TD*%
D23*
%TO.C,C14*%
X107237500Y-44700000D03*
X107237500Y-46775000D03*
%TD*%
D18*
%TO.C,H4*%
X93125000Y-46000000D03*
X93674175Y-44674175D03*
X93674175Y-47325825D03*
X95000000Y-44125000D03*
D19*
X95000000Y-46000000D03*
D18*
X95000000Y-47875000D03*
X96325825Y-44674175D03*
X96325825Y-47325825D03*
X96875000Y-46000000D03*
%TD*%
D37*
%TO.C,U3*%
X137863500Y-44055250D03*
X137863500Y-45005250D03*
X137863500Y-45955250D03*
X140563500Y-45955250D03*
X140563500Y-45005250D03*
X140563500Y-44055250D03*
%TD*%
D26*
%TO.C,R6*%
X114200000Y-51500000D03*
X114200000Y-53500000D03*
%TD*%
D38*
%TO.C,J8*%
X97511568Y-79080000D03*
D39*
X97511568Y-81100000D03*
D40*
X97511568Y-82330000D03*
D41*
X97511568Y-80080000D03*
D42*
X97511568Y-78060000D03*
D43*
X97511568Y-76830000D03*
D44*
X97431568Y-75260000D03*
X93631568Y-75260000D03*
X97431568Y-83900000D03*
X93631568Y-83900000D03*
%TD*%
D45*
%TO.C,F2*%
X131927600Y-89941400D03*
X129877600Y-89941400D03*
%TD*%
D27*
%TO.C,TP1*%
X100200000Y-76000000D03*
%TD*%
D24*
%TO.C,D4*%
X120904000Y-74168000D03*
D14*
X110744000Y-74168000D03*
%TD*%
D26*
%TO.C,R16*%
X111137500Y-44700000D03*
X111137500Y-46700000D03*
%TD*%
D21*
%TO.C,J3*%
X97750000Y-59600000D03*
D22*
X97750000Y-61600000D03*
%TD*%
D46*
%TO.C,J9*%
X161608000Y-87884000D03*
D47*
X163608000Y-87884000D03*
X165608000Y-87884000D03*
X167608000Y-87884000D03*
%TD*%
D11*
%TO.C,J13*%
X156718000Y-44856400D03*
D12*
X159258000Y-44856400D03*
X161798000Y-44856400D03*
X164338000Y-44856400D03*
X166878000Y-44856400D03*
%TD*%
D23*
%TO.C,C10*%
X125984000Y-45571500D03*
X125984000Y-47646500D03*
%TD*%
D11*
%TO.C,J16*%
X147569000Y-44856400D03*
D12*
X150109000Y-44856400D03*
%TD*%
D11*
%TO.C,J14*%
X120590000Y-83725000D03*
D12*
X120590000Y-86265000D03*
%TD*%
D26*
%TO.C,R8*%
X102336568Y-82060000D03*
X102336568Y-84060000D03*
%TD*%
D20*
%TO.C,C2*%
X111837500Y-49900000D03*
X109762500Y-49900000D03*
%TD*%
D11*
%TO.C,J5*%
X157550000Y-58420000D03*
D12*
X157550000Y-60960000D03*
X160090000Y-58420000D03*
X160090000Y-60960000D03*
X162630000Y-58420000D03*
X162630000Y-60960000D03*
X165170000Y-58420000D03*
X165170000Y-60960000D03*
X167710000Y-58420000D03*
X167710000Y-60960000D03*
X170250000Y-58420000D03*
X170250000Y-60960000D03*
X172790000Y-58420000D03*
X172790000Y-60960000D03*
X175330000Y-58420000D03*
X175330000Y-60960000D03*
%TD*%
D48*
%TO.C,D3*%
X109666000Y-77216000D03*
X108266000Y-77216000D03*
%TD*%
D46*
%TO.C,J2*%
X143600000Y-66600000D03*
D47*
X143600000Y-68600000D03*
X143600000Y-70600000D03*
X143600000Y-72600000D03*
%TD*%
D49*
%TO.C,C11*%
X135128000Y-82673100D03*
X135128000Y-80598100D03*
%TD*%
D26*
%TO.C,R5*%
X138049000Y-81439000D03*
X138049000Y-83439000D03*
%TD*%
%TO.C,R4*%
X119700000Y-64200000D03*
X119700000Y-66200000D03*
%TD*%
D50*
%TO.C,R2*%
X113493750Y-62950000D03*
X111493750Y-62950000D03*
%TD*%
D20*
%TO.C,C1*%
X111937500Y-55000000D03*
X109862500Y-55000000D03*
%TD*%
D33*
%TO.C,R15*%
X103137500Y-46700000D03*
X103137500Y-44700000D03*
%TD*%
D51*
%TO.C,J12*%
X129130831Y-71711940D03*
D52*
X129425837Y-69281940D03*
D51*
X129730831Y-71711940D03*
D52*
X130025837Y-69281940D03*
D51*
X130330831Y-71711940D03*
D52*
X130625837Y-69281940D03*
D51*
X130930831Y-71711940D03*
D52*
X131225837Y-69281940D03*
D51*
X131530831Y-71711940D03*
D52*
X131825837Y-69281940D03*
D51*
X132130831Y-71711940D03*
D52*
X132425837Y-69281940D03*
D51*
X132730831Y-71711940D03*
D53*
X128420910Y-71645900D03*
X133440900Y-71645900D03*
%TD*%
D54*
%TO.C,Q1*%
X110043750Y-57912500D03*
X109093750Y-57912500D03*
X108143750Y-57912500D03*
X108143750Y-60187500D03*
X109093750Y-60187500D03*
X110043750Y-60187500D03*
%TD*%
D26*
%TO.C,R7*%
X140335000Y-81439000D03*
X140335000Y-83439000D03*
%TD*%
D55*
%TO.C,TP3*%
X149352000Y-89916000D03*
%TD*%
D18*
%TO.C,H3*%
X93125000Y-88000000D03*
X93674175Y-86674175D03*
X93674175Y-89325825D03*
X95000000Y-86125000D03*
D19*
X95000000Y-88000000D03*
D18*
X95000000Y-89875000D03*
X96325825Y-86674175D03*
X96325825Y-89325825D03*
X96875000Y-88000000D03*
%TD*%
D20*
%TO.C,C8*%
X117637500Y-64000000D03*
X115562500Y-64000000D03*
%TD*%
D25*
%TO.C,C7*%
X117580500Y-56261000D03*
X119655500Y-56261000D03*
%TD*%
D55*
%TO.C,TP10*%
X130048000Y-44196000D03*
%TD*%
D27*
%TO.C,TP2*%
X107569000Y-63881000D03*
%TD*%
D50*
%TO.C,R1*%
X111837500Y-52500000D03*
X109837500Y-52500000D03*
%TD*%
D56*
%TO.C,Q4*%
X116350000Y-53200000D03*
X118250000Y-53200000D03*
X117300000Y-50200000D03*
%TD*%
D11*
%TO.C,J7*%
X175260484Y-69717170D03*
D12*
X172720484Y-69717170D03*
X170180484Y-69717170D03*
X167640484Y-69717170D03*
X165100484Y-69717170D03*
X162560484Y-69717170D03*
X160020484Y-69717170D03*
X157480484Y-69717170D03*
%TD*%
D55*
%TO.C,TP4*%
X138684000Y-87630000D03*
%TD*%
M02*
